<svg width="61" height="61" viewBox="0 0 61 61" fill="none" xmlns="http://www.w3.org/2000/svg">
<circle cx="30" cy="31" r="30" fill="#3E3E51"/>
<path d="M13.1742 13.6094C13.307 12.6503 14.693 12.6503 14.8258 13.6094C14.9383 14.4225 15.5775 15.0617 16.3906 15.1742C17.3497 15.307 17.3497 16.693 16.3906 16.8258C15.5775 16.9383 14.9383 17.5775 14.8258 18.3906C14.693 19.3497 13.307 19.3497 13.1742 18.3906C13.0617 17.5775 12.4225 16.9383 11.6094 16.8258C10.6503 16.693 10.6503 15.307 11.6094 15.1742C12.4225 15.0617 13.0617 14.4225 13.1742 13.6094Z" fill="#FCDF49" stroke="#333333"/>
<path d="M46.6094 36.1742C47.4225 36.0617 48.0617 35.4225 48.1742 34.6094C48.307 33.6503 49.693 33.6503 49.8258 34.6094C49.9383 35.4225 50.5775 36.0617 51.3906 36.1742C52.3497 36.307 52.3497 37.693 51.3906 37.8258C50.5775 37.9383 49.9383 38.5775 49.8258 39.3906C49.693 40.3497 48.307 40.3497 48.1742 39.3906C48.0617 38.5775 47.4225 37.9383 46.6094 37.8258C45.6503 37.693 45.6503 36.307 46.6094 36.1742Z" fill="#FCDF49" stroke="#333333"/>
<path d="M33.6094 11.1742C34.4225 11.0617 35.0617 10.4225 35.1742 9.6094C35.307 8.65032 36.693 8.65032 36.8258 9.6094C36.9383 10.4225 37.5775 11.0617 38.3906 11.1742C39.3497 11.307 39.3497 12.693 38.3906 12.8258C37.5775 12.9383 36.9383 13.5775 36.8258 14.3906C36.693 15.3497 35.307 15.3497 35.1742 14.3906C35.0617 13.5775 34.4225 12.9383 33.6094 12.8258C32.6503 12.693 32.6503 11.307 33.6094 11.1742Z" fill="#FCDF49" stroke="#333333"/>
<circle cx="30" cy="31" r="14.5" fill="#B1AFAA" stroke="#333333" stroke-width="3"/>
<circle cx="30" cy="31" r="9.5" fill="#F3C858" stroke="#333333" stroke-width="3"/>
<path d="M18.6961 23.3632C21.6391 19.7131 25.5374 17 30 17C34.4626 17 38.3609 19.7131 41.3039 23.3632C44.4959 27.3223 45.2802 29.196 41.3039 32.249C37.6379 35.0637 34.4626 29.0596 30 29.0596C25.5374 29.0596 22.3621 35.0637 18.6961 32.249C14.7198 29.196 15.5041 27.3223 18.6961 23.3632Z" fill="#759FB6"/>
<circle cx="27" cy="33" r="1" fill="#333333"/>
<circle cx="27" cy="33" r="1" fill="#333333"/>
<circle cx="33" cy="33" r="1" fill="#333333"/>
<path d="M28 37C28 37 28.5 38 30 38C31.5 38 32 37 32 37" stroke="#333333" stroke-linecap="round" stroke-linejoin="round"/>
<path fill-rule="evenodd" clip-rule="evenodd" d="M30.1667 17V29.0596C28.346 29.0596 26.7504 30.1614 25.2466 31.1998C23.2399 32.5854 21.3969 33.858 19.4011 32.249C15.6141 29.196 16.361 27.3223 19.4011 23.3632C22.2039 19.7131 25.9166 17 30.1667 17Z" fill="#90BDD6"/>
<path fill-rule="evenodd" clip-rule="evenodd" d="M41.5379 27.5862C41.1557 26.9061 40.5726 26.0807 39.7318 24.9857C36.8413 21.2214 33.4421 19 30 19C26.5579 19 23.1587 21.2214 20.2682 24.9857C19.4274 26.0807 18.8443 26.9061 18.4621 27.5862C18.0802 28.266 18.0109 28.6089 18.0014 28.7469C18.0013 28.7484 18.0012 28.7499 18.001 28.7514C17.9969 28.809 17.9893 28.9151 18.1575 29.1854C18.3727 29.5313 18.8313 30.0615 19.7716 30.8196C20.0318 31.0294 20.0987 31.0105 20.1576 30.9939C20.1655 30.9917 20.1732 30.9895 20.1812 30.9879C20.4922 30.9261 21.0033 30.6904 21.9601 30.0525C22.1577 29.9208 22.3856 29.7634 22.6351 29.5911C23.3715 29.0825 24.2967 28.4437 25.1879 27.9494C26.4603 27.2438 28.0884 26.5671 30 26.5671C31.9116 26.5671 33.5397 27.2438 34.8121 27.9494C35.7033 28.4437 36.6285 29.0825 37.3649 29.5911C37.6144 29.7634 37.8423 29.9208 38.0399 30.0525C38.9967 30.6904 39.5078 30.9261 39.8188 30.9879C39.8268 30.9895 39.8345 30.9917 39.8424 30.9939C39.9013 31.0105 39.9682 31.0294 40.2284 30.8196C41.1687 30.0615 41.6273 29.5313 41.8425 29.1854C42.0107 28.9151 42.0031 28.809 41.999 28.7514L41.9986 28.7469C41.9891 28.6089 41.9198 28.266 41.5379 27.5862ZM30 16C25.2186 16 21.0419 19.0523 17.8887 23.1586C14.4686 27.6126 13.6284 29.7205 17.8887 33.1551C20.134 34.9652 22.2074 33.5335 24.4649 31.9748C26.1567 30.8066 27.9518 29.5671 30 29.5671C32.0482 29.5671 33.8433 30.8066 35.5351 31.9748C37.7926 33.5335 39.866 34.9652 42.1113 33.1551C46.3716 29.7205 45.5314 27.6126 42.1113 23.1586C38.9581 19.0523 34.7814 16 30 16Z" fill="#333333"/>
<path d="M34 36C34 36 36 35.5 37.5 34.5C38.8786 33.5809 40.5 31.5 40.5 31.5" stroke="#333333"/>
<circle cx="34" cy="36" r="1" fill="#3A3A3A"/>
<ellipse cx="30" cy="49.5" rx="9" ry="1.5" fill="black" fill-opacity="0.5"/>
</svg>
