<svg width="346" height="160" viewBox="0 0 346 160" fill="none" xmlns="http://www.w3.org/2000/svg">
<rect y="1" width="346" height="159" fill="url(#paint0_linear)"/>
<rect x="242.113" y="73" width="10" height="10" transform="rotate(54.2267 242.113 73)" fill="#FC4949" stroke="#222738" stroke-width="3" stroke-linecap="round" stroke-linejoin="round"/>
<rect x="253.113" y="65" width="10" height="16.1606" transform="rotate(54.2267 253.113 65)" fill="#FC4949" stroke="#222738" stroke-width="3" stroke-linecap="round" stroke-linejoin="round"/>
<rect x="264.523" y="99.7335" width="10" height="15" transform="rotate(55.059 264.523 99.7335)" fill="#FC4949" stroke="#222738" stroke-width="3" stroke-linecap="round" stroke-linejoin="round"/>
<rect x="284.697" y="99.6125" width="10" height="15" transform="rotate(55.059 284.697 99.6125)" fill="#FC4949" stroke="#222738" stroke-width="3" stroke-linecap="round" stroke-linejoin="round"/>
<rect x="251" y="94" width="10" height="20" fill="#FC4949" stroke="#222738" stroke-width="3" stroke-linecap="round" stroke-linejoin="round"/>
<rect x="251" y="64" width="30" height="30" fill="#FC4949" stroke="#222738" stroke-width="3" stroke-linecap="round" stroke-linejoin="round"/>
<rect x="258" y="78" width="16" height="8" fill="#FCB449" stroke="#222738" stroke-width="3" stroke-linecap="round" stroke-linejoin="round"/>
<circle cx="255.5" cy="113.5" r="4.5" fill="#FC4949" stroke="#212738" stroke-width="3"/>
<circle cx="255.5" cy="113.5" r="5.5" fill="#FC4949" stroke="#212738" stroke-width="3"/>
<rect x="271" y="94" width="10" height="20" fill="#FC4949" stroke="#222738" stroke-width="3" stroke-linecap="round" stroke-linejoin="round"/>
<circle cx="275.5" cy="113.5" r="5.5" fill="#FC4949" stroke="#212738" stroke-width="3"/>
<rect width="10" height="10" transform="matrix(-0.58458 0.811336 0.811336 0.58458 290.846 72)" fill="#FC4949" stroke="#222738" stroke-width="3" stroke-linecap="round" stroke-linejoin="round"/>
<rect width="10" height="16.1606" transform="matrix(-0.58458 0.811336 0.811336 0.58458 279.846 64)" fill="#FC4949" stroke="#222738" stroke-width="3" stroke-linecap="round" stroke-linejoin="round"/>
<circle cx="265.5" cy="57.5" r="16.5" fill="#FC4949" stroke="#212738" stroke-width="3"/>
<circle cx="265.5" cy="57.5" r="10.5" fill="#49A6FC" stroke="#212738" stroke-width="3"/>
<rect width="33.0508" height="2.2936" rx="1.1468" transform="matrix(-1 0 0 1 237.466 18)" fill="#BD6060"/>
<rect width="33.0508" height="2.2936" rx="1.1468" transform="matrix(-1 0 0 1 237.466 18)" fill="#ECAB4A"/>
<rect width="37.4659" height="2.27066" rx="1.13533" transform="matrix(-1 0 0 1 237.466 22.5413)" fill="#BD6060"/>
<rect width="37.4659" height="2.27066" rx="1.13533" transform="matrix(-1 0 0 1 237.466 22.5413)" fill="#ECAB4A"/>
<rect width="35.4678" height="2.27066" rx="1.13533" transform="matrix(-1 0 0 1 237.466 27.0826)" fill="#BD6060"/>
<rect width="35.4678" height="2.27066" rx="1.13533" transform="matrix(-1 0 0 1 237.466 27.0826)" fill="#ECAB4A"/>
<rect width="33.9691" height="2.27066" rx="1.13533" transform="matrix(-1 0 0 1 237.466 31.624)" fill="#BD6060"/>
<rect width="33.9691" height="2.27066" rx="1.13533" transform="matrix(-1 0 0 1 237.466 31.624)" fill="#ECAB4A"/>
<rect width="36.4668" height="2.27066" rx="1.13533" transform="matrix(-1 0 0 1 237.466 36.1653)" fill="#ECAB4A"/>
<rect width="36.4668" height="2.27066" rx="1.13533" transform="matrix(-1 0 0 1 237.466 40.7293)" fill="#ECAB4A"/>
<path fill-rule="evenodd" clip-rule="evenodd" d="M208.389 40.7339H209.08C209.721 40.7339 210.241 40.2143 210.241 39.5733C210.241 39.0118 209.842 38.5435 209.312 38.436H236.317C236.952 38.436 237.466 38.9504 237.466 39.5849C237.466 40.2195 236.952 40.7339 236.317 40.7339H208.392C208.391 40.7339 208.39 40.7339 208.389 40.7339Z" fill="#ECAB4A"/>
<path fill-rule="evenodd" clip-rule="evenodd" d="M236.331 33.8946C236.958 33.8946 237.466 34.4029 237.466 35.03C237.466 35.657 236.958 36.1653 236.331 36.1653H211.855C212.481 36.1644 212.988 35.6564 212.988 35.03C212.988 34.4029 212.48 33.8946 211.853 33.8946H236.331Z" fill="#ECAB4A"/>
<path fill-rule="evenodd" clip-rule="evenodd" d="M236.331 29.3533C236.958 29.3533 237.466 29.8616 237.466 30.4886C237.466 31.1157 236.958 31.624 236.331 31.624H219.1C219.725 31.6219 220.232 31.1144 220.232 30.4886C220.232 29.8616 219.723 29.3533 219.096 29.3533H211.372C211.373 29.3533 211.375 29.3533 211.376 29.3533H236.331Z" fill="#ECAB4A"/>
<path fill-rule="evenodd" clip-rule="evenodd" d="M236.331 24.812C236.958 24.812 237.466 25.3203 237.466 25.9473C237.466 26.5743 236.958 27.0827 236.331 27.0827H208.379C208.378 27.0827 208.378 27.0827 208.377 27.0827H210.104C210.731 27.0827 211.24 26.5743 211.24 25.9473C211.24 25.3203 210.731 24.812 210.104 24.812H236.331Z" fill="#ECAB4A"/>
<path fill-rule="evenodd" clip-rule="evenodd" d="M236.331 20.2707C236.958 20.2707 237.466 20.779 237.466 21.406C237.466 22.033 236.958 22.5413 236.331 22.5413H217.371C217.37 22.5413 217.37 22.5413 217.37 22.5413H217.598C218.225 22.5413 218.733 22.033 218.733 21.406C218.733 20.779 218.225 20.2707 217.598 20.2707H236.331Z" fill="#ECAB4A"/>
<circle r="12.4886" transform="matrix(-1 0 0 1 236.217 30.4886)" fill="#ECAB4A"/>
<circle r="7.49319" transform="matrix(-1 0 0 1 236.217 30.4886)" fill="#EC674A"/>
<rect width="14.9864" height="3.74659" rx="1.8733" transform="matrix(-1 0 0 1 227.975 23.7448)" fill="#EC674A"/>
<rect width="8.49228" height="3.74659" rx="1.8733" transform="matrix(-1 0 0 1 224.478 34.485)" fill="#EC674A"/>
<path d="M259.609 11.1742C260.422 11.0617 261.062 10.4225 261.174 9.6094C261.307 8.65032 262.693 8.65032 262.826 9.6094C262.938 10.4225 263.578 11.0617 264.391 11.1742C265.35 11.307 265.35 12.693 264.391 12.8258C263.578 12.9383 262.938 13.5775 262.826 14.3906C262.693 15.3497 261.307 15.3497 261.174 14.3906C261.062 13.5775 260.422 12.9383 259.609 12.8258C258.65 12.693 258.65 11.307 259.609 11.1742Z" fill="#FCDF49" stroke="#212738"/>
<path d="M297.2 42.9541C298.111 42.8278 298.828 42.1112 298.954 41.1995C299.122 39.9847 300.878 39.9847 301.046 41.1995C301.172 42.1112 301.889 42.8278 302.8 42.9541C304.015 43.1223 304.015 44.8777 302.8 45.0459C301.889 45.1722 301.172 45.8888 301.046 46.8005C300.878 48.0153 299.122 48.0153 298.954 46.8005C298.828 45.8888 298.111 45.1722 297.2 45.0459C295.985 44.8777 295.985 43.1223 297.2 42.9541Z" fill="#FCDF49" stroke="#212738"/>
<path d="M214.609 58.1742C215.422 58.0617 216.062 57.4225 216.174 56.6094C216.307 55.6503 217.693 55.6503 217.826 56.6094C217.938 57.4225 218.578 58.0617 219.391 58.1742C220.35 58.307 220.35 59.693 219.391 59.8258C218.578 59.9383 217.938 60.5775 217.826 61.3906C217.693 62.3497 216.307 62.3497 216.174 61.3906C216.062 60.5775 215.422 59.9383 214.609 59.8258C213.65 59.693 213.65 58.307 214.609 58.1742Z" fill="#FCDF49" stroke="#212738"/>
<path d="M227.404 112.064C228.267 111.945 228.945 111.267 229.064 110.404C229.215 109.318 230.785 109.318 230.936 110.404C231.055 111.267 231.733 111.945 232.596 112.064C233.682 112.215 233.682 113.785 232.596 113.936C231.733 114.055 231.055 114.733 230.936 115.596C230.785 116.682 229.215 116.682 229.064 115.596C228.945 114.733 228.267 114.055 227.404 113.936C226.318 113.785 226.318 112.215 227.404 112.064Z" fill="#FCDF49" stroke="#212738"/>
<path d="M283.609 138.174C284.422 138.062 285.062 137.422 285.174 136.609C285.307 135.65 286.693 135.65 286.826 136.609C286.938 137.422 287.578 138.062 288.391 138.174C289.35 138.307 289.35 139.693 288.391 139.826C287.578 139.938 286.938 140.578 286.826 141.391C286.693 142.35 285.307 142.35 285.174 141.391C285.062 140.578 284.422 139.938 283.609 139.826C282.65 139.693 282.65 138.307 283.609 138.174Z" fill="#FCDF49" stroke="#212738"/>
<path d="M315.802 99.5091C316.689 99.3863 317.386 98.689 317.509 97.802C317.668 96.6511 319.332 96.6511 319.491 97.802C319.614 98.689 320.311 99.3863 321.198 99.5091C322.349 99.6685 322.349 101.332 321.198 101.491C320.311 101.614 319.614 102.311 319.491 103.198C319.332 104.349 317.668 104.349 317.509 103.198C317.386 102.311 316.689 101.614 315.802 101.491C314.651 101.332 314.651 99.6685 315.802 99.5091Z" fill="#FCDF49" stroke="#212738"/>
<path d="M206.609 89.1742C207.422 89.0617 208.062 88.4225 208.174 87.6094C208.307 86.6503 209.693 86.6503 209.826 87.6094C209.938 88.4225 210.578 89.0617 211.391 89.1742C212.35 89.307 212.35 90.693 211.391 90.8258C210.578 90.9383 209.938 91.5775 209.826 92.3906C209.693 93.3497 208.307 93.3497 208.174 92.3906C208.062 91.5775 207.422 90.9383 206.609 90.8258C205.65 90.693 205.65 89.307 206.609 89.1742Z" fill="#FCDF49" stroke="#212738"/>
<path d="M127.609 100.174C128.422 100.062 129.062 99.4225 129.174 98.6094C129.307 97.6503 130.693 97.6503 130.826 98.6094C130.938 99.4225 131.578 100.062 132.391 100.174C133.35 100.307 133.35 101.693 132.391 101.826C131.578 101.938 130.938 102.578 130.826 103.391C130.693 104.35 129.307 104.35 129.174 103.391C129.062 102.578 128.422 101.938 127.609 101.826C126.65 101.693 126.65 100.307 127.609 100.174Z" fill="#FCDF49" stroke="#212738"/>
<path d="M43.802 33.5091C44.689 33.3863 45.3863 32.689 45.5091 31.802C45.6685 30.6511 47.3315 30.6511 47.4909 31.802C47.6137 32.689 48.311 33.3863 49.198 33.5091C50.3489 33.6685 50.3489 35.3315 49.198 35.4909C48.311 35.6137 47.6137 36.311 47.4909 37.198C47.3315 38.3489 45.6685 38.3489 45.5091 37.198C45.3863 36.311 44.689 35.6137 43.802 35.4909C42.6511 35.3315 42.6511 33.6685 43.802 33.5091Z" fill="#FCDF49" stroke="#212738"/>
<path d="M123.2 27.9541C124.111 27.8278 124.828 27.1112 124.954 26.1995C125.122 24.9847 126.878 24.9847 127.046 26.1995C127.172 27.1112 127.889 27.8278 128.8 27.9541C130.015 28.1223 130.015 29.8777 128.8 30.0459C127.889 30.1722 127.172 30.8888 127.046 31.8005C126.878 33.0153 125.122 33.0153 124.954 31.8005C124.828 30.8888 124.111 30.1722 123.2 30.0459C121.985 29.8777 121.985 28.1223 123.2 27.9541Z" fill="#FCDF49" stroke="#212738"/>
<path d="M30.4045 98.0641C31.2668 97.9447 31.9447 97.2668 32.0641 96.4045C32.2146 95.3175 33.7854 95.3175 33.9359 96.4045C34.0553 97.2668 34.7332 97.9447 35.5955 98.0641C36.6825 98.2146 36.6825 99.7854 35.5955 99.9359C34.7332 100.055 34.0553 100.733 33.9359 101.596C33.7854 102.682 32.2146 102.682 32.0641 101.596C31.9447 100.733 31.2668 100.055 30.4045 99.9359C29.3175 99.7854 29.3175 98.2146 30.4045 98.0641Z" fill="#FCDF49" stroke="#212738"/>
<path d="M31.6094 130.174C32.4225 130.062 33.0617 129.422 33.1742 128.609C33.307 127.65 34.693 127.65 34.8258 128.609C34.9383 129.422 35.5775 130.062 36.3906 130.174C37.3497 130.307 37.3497 131.693 36.3906 131.826C35.5775 131.938 34.9383 132.578 34.8258 133.391C34.693 134.35 33.307 134.35 33.1742 133.391C33.0617 132.578 32.4225 131.938 31.6094 131.826C30.6503 131.693 30.6503 130.307 31.6094 130.174Z" fill="#FCDF49" stroke="#212738"/>
<path d="M92.6094 138.174C93.4225 138.062 94.0617 137.422 94.1742 136.609C94.307 135.65 95.693 135.65 95.8258 136.609C95.9383 137.422 96.5775 138.062 97.3906 138.174C98.3497 138.307 98.3497 139.693 97.3906 139.826C96.5775 139.938 95.9383 140.578 95.8258 141.391C95.693 142.35 94.307 142.35 94.1742 141.391C94.0617 140.578 93.4225 139.938 92.6094 139.826C91.6503 139.693 91.6503 138.307 92.6094 138.174Z" fill="#FCDF49" stroke="#212738"/>
<path d="M158.609 78.1742C159.422 78.0617 160.062 77.4225 160.174 76.6094C160.307 75.6503 161.693 75.6503 161.826 76.6094C161.938 77.4225 162.578 78.0617 163.391 78.1742C164.35 78.307 164.35 79.693 163.391 79.8258C162.578 79.9383 161.938 80.5775 161.826 81.3906C161.693 82.3497 160.307 82.3497 160.174 81.3906C160.062 80.5775 159.422 79.9383 158.609 79.8258C157.65 79.693 157.65 78.307 158.609 78.1742Z" fill="#FCDF49" stroke="#212738"/>
<path d="M179.609 37.1742C180.422 37.0617 181.062 36.4225 181.174 35.6094C181.307 34.6503 182.693 34.6503 182.826 35.6094C182.938 36.4225 183.578 37.0617 184.391 37.1742C185.35 37.307 185.35 38.693 184.391 38.8258C183.578 38.9383 182.938 39.5775 182.826 40.3906C182.693 41.3497 181.307 41.3497 181.174 40.3906C181.062 39.5775 180.422 38.9383 179.609 38.8258C178.65 38.693 178.65 37.307 179.609 37.1742Z" fill="#FCDF49" stroke="#212738"/>
<path d="M159.802 124.509C160.689 124.386 161.386 123.689 161.509 122.802C161.668 121.651 163.332 121.651 163.491 122.802C163.614 123.689 164.311 124.386 165.198 124.509C166.349 124.668 166.349 126.332 165.198 126.491C164.311 126.614 163.614 127.311 163.491 128.198C163.332 129.349 161.668 129.349 161.509 128.198C161.386 127.311 160.689 126.614 159.802 126.491C158.651 126.332 158.651 124.668 159.802 124.509Z" fill="#FCDF49" stroke="#212738"/>
<path d="M329.609 35.1742C330.422 35.0617 331.062 34.4225 331.174 33.6094C331.307 32.6503 332.693 32.6503 332.826 33.6094C332.938 34.4225 333.578 35.0617 334.391 35.1742C335.35 35.307 335.35 36.693 334.391 36.8258C333.578 36.9383 332.938 37.5775 332.826 38.3906C332.693 39.3497 331.307 39.3497 331.174 38.3906C331.062 37.5775 330.422 36.9383 329.609 36.8258C328.65 36.693 328.65 35.307 329.609 35.1742Z" fill="#FCDF49" stroke="#212738"/>
<circle cx="202.5" cy="122.5" r="15" fill="#2F74B5" stroke="#212738" stroke-width="3"/>
<rect x="195.5" y="112.5" width="16" height="3" rx="1.5" fill="#C5DEE3" stroke="#212738"/>
<rect x="196.5" y="123.5" width="18" height="3" rx="1.5" fill="#C5DEE3" stroke="#212738"/>
<rect x="199.5" y="129.5" width="11" height="3" rx="1.5" fill="#C5DEE3" stroke="#212738"/>
<rect x="190.5" y="118.5" width="13" height="3" rx="1.5" fill="#C5DEE3" stroke="#212738"/>
<defs>
<linearGradient id="paint0_linear" x1="0" y1="1" x2="124.164" y2="264.523" gradientUnits="userSpaceOnUse">
<stop stop-color="#23242E"/>
<stop offset="0.244792" stop-color="#323955"/>
<stop offset="0.6875" stop-color="#513A91"/>
<stop offset="1" stop-color="#862CA6"/>
</linearGradient>
</defs>
</svg>
