<svg width="61" height="61" viewBox="0 0 61 61" fill="none" xmlns="http://www.w3.org/2000/svg">
<circle cx="30" cy="31" r="30" fill="#3E3E51"/>
<path d="M13.1742 13.6094C13.307 12.6503 14.693 12.6503 14.8258 13.6094C14.9383 14.4225 15.5775 15.0617 16.3906 15.1742C17.3497 15.307 17.3497 16.693 16.3906 16.8258C15.5775 16.9383 14.9383 17.5775 14.8258 18.3906C14.693 19.3497 13.307 19.3497 13.1742 18.3906C13.0617 17.5775 12.4225 16.9383 11.6094 16.8258C10.6503 16.693 10.6503 15.307 11.6094 15.1742C12.4225 15.0617 13.0617 14.4225 13.1742 13.6094Z" fill="#FCDF49" stroke="#333333"/>
<path d="M46.6094 36.1742C47.4225 36.0617 48.0617 35.4225 48.1742 34.6094C48.307 33.6503 49.693 33.6503 49.8258 34.6094C49.9383 35.4225 50.5775 36.0617 51.3906 36.1742C52.3497 36.307 52.3497 37.693 51.3906 37.8258C50.5775 37.9383 49.9383 38.5775 49.8258 39.3906C49.693 40.3497 48.307 40.3497 48.1742 39.3906C48.0617 38.5775 47.4225 37.9383 46.6094 37.8258C45.6503 37.693 45.6503 36.307 46.6094 36.1742Z" fill="#FCDF49" stroke="#333333"/>
<path d="M33.6094 11.1742C34.4225 11.0617 35.0617 10.4225 35.1742 9.6094C35.307 8.65032 36.693 8.65032 36.8258 9.6094C36.9383 10.4225 37.5775 11.0617 38.3906 11.1742C39.3497 11.307 39.3497 12.693 38.3906 12.8258C37.5775 12.9383 36.9383 13.5775 36.8258 14.3906C36.693 15.3497 35.307 15.3497 35.1742 14.3906C35.0617 13.5775 34.4225 12.9383 33.6094 12.8258C32.6503 12.693 32.6503 11.307 33.6094 11.1742Z" fill="#FCDF49" stroke="#333333"/>
<circle cx="30" cy="31" r="14.5" fill="#B1AFAA" stroke="#333333" stroke-width="3"/>
<circle cx="30" cy="31" r="9.5" fill="#F3C858" stroke="#333333" stroke-width="3"/>
<path d="M18.6961 23.3632C21.6391 19.7131 25.5374 17 30 17C34.4626 17 38.3609 19.7131 41.3039 23.3632C44.4959 27.3223 45.2802 29.196 41.3039 32.249C37.6379 35.0637 34.4626 29.0596 30 29.0596C25.5374 29.0596 22.3621 35.0637 18.6961 32.249C14.7198 29.196 15.5041 27.3223 18.6961 23.3632Z" fill="#759FB6"/>
<circle cx="27" cy="33" r="1" fill="#333333"/>
<circle cx="27" cy="33" r="1" fill="#333333"/>
<circle cx="33" cy="33" r="1" fill="#333333"/>
<path d="M28 37C28 37 28.5 38 30 38C31.5 38 32 37 32 37" stroke="#333333" stroke-linecap="round" stroke-linejoin="round"/>
<path fill-rule="evenodd" clip-rule="evenodd" d="M30.1667 17V29.0596C28.346 29.0596 26.7504 30.1614 25.2466 31.1998C23.2399 32.5854 21.3969 33.858 19.4011 32.249C15.6141 29.196 16.361 27.3223 19.4011 23.3632C22.2039 19.7131 25.9166 17 30.1667 17Z" fill="#90BDD6"/>
<path fill-rule="evenodd" clip-rule="evenodd" d="M42.307 27.8736C41.8994 27.1179 41.2775 26.2007 40.3806 24.9841C37.2974 20.8016 33.6715 18.3333 30 18.3333C26.3285 18.3333 22.7026 20.8016 19.6194 24.9841C18.7225 26.2007 18.1006 27.1179 17.693 27.8736C17.2855 28.6289 17.2117 29.0099 17.2015 29.1632C17.2013 29.1649 17.2012 29.1665 17.2011 29.1683C17.1967 29.2322 17.1886 29.3502 17.368 29.6504C17.5976 30.0348 18.0867 30.6239 19.0897 31.4662C19.3673 31.6993 19.4386 31.6784 19.5015 31.6599C19.5099 31.6574 19.5181 31.655 19.5266 31.6532C19.8584 31.5846 20.4036 31.3226 21.4242 30.6138C21.6349 30.4675 21.8779 30.2927 22.1441 30.1012C22.9296 29.5361 23.9165 28.8263 24.8671 28.2772C26.2243 27.4932 27.9609 26.7412 30 26.7412C32.0391 26.7412 33.7757 27.4932 35.1329 28.2772C36.0835 28.8263 37.0704 29.5361 37.8559 30.1012C38.1221 30.2927 38.3651 30.4675 38.5758 30.6138C39.5964 31.3226 40.1416 31.5846 40.4734 31.6532C40.4819 31.655 40.4901 31.6574 40.4985 31.6599C40.5614 31.6784 40.6327 31.6993 40.9103 31.4662C41.9133 30.6239 42.4024 30.0348 42.632 29.6504C42.8114 29.3502 42.8033 29.2322 42.7989 29.1683L42.7985 29.1632C42.7883 29.0099 42.7145 28.6289 42.307 27.8736ZM30 15C24.8999 15 20.4447 18.3914 17.0813 22.954C13.4332 27.9029 12.5369 30.245 17.0813 34.0613C19.4762 36.0725 21.6879 34.4817 24.0959 32.7497C25.9004 31.4518 27.8152 30.0746 30 30.0746C32.1848 30.0746 34.0996 31.4518 35.9041 32.7497C38.3121 34.4817 40.5238 36.0725 42.9187 34.0613C47.4631 30.245 46.5668 27.9029 42.9187 22.954C39.5553 18.3914 35.1001 15 30 15Z" fill="#333333"/>
<path d="M34 36C34 36 35.5385 35.5556 36.6923 34.6667C37.7528 33.8497 39 32 39 32" stroke="#333333"/>
<circle cx="34" cy="36" r="1" fill="#3A3A3A"/>
<ellipse cx="30" cy="49.5" rx="9" ry="1.5" fill="black" fill-opacity="0.5"/>
</svg>
