<svg width="49" height="11" viewBox="0 0 49 11" fill="none" xmlns="http://www.w3.org/2000/svg">
<path d="M21.858 6.9285C21.7159 7.15823 21.524 7.38644 21.2822 7.61314C21.0403 7.83682 20.7638 8.03934 20.4524 8.2207C20.1441 8.39904 19.8071 8.54262 19.4413 8.65144C19.0756 8.76328 18.6978 8.8192 18.3078 8.8192C18.0025 8.8192 17.6972 8.79199 17.392 8.73758C17.0897 8.68318 16.798 8.60005 16.5169 8.48821C16.2388 8.37637 15.9788 8.23582 15.737 8.06655C15.4982 7.89425 15.2897 7.69173 15.1113 7.45899C14.933 7.22624 14.7924 6.96175 14.6897 6.66553C14.5899 6.3693 14.54 6.03983 14.54 5.67711C14.54 5.32345 14.5914 4.98793 14.6942 4.67055C14.8 4.35317 14.9466 4.05997 15.134 3.79095C15.3214 3.5189 15.5436 3.27407 15.8005 3.05643C16.0574 2.8388 16.3385 2.65441 16.6438 2.50328C16.9491 2.34912 17.271 2.23124 17.6096 2.14962C17.9481 2.06801 18.2942 2.0272 18.6479 2.0272C19.0378 2.0272 19.4036 2.07406 19.7451 2.16776C20.0897 2.25844 20.3905 2.38842 20.6474 2.55769C20.9043 2.72394 21.1068 2.92494 21.255 3.16071C21.4061 3.39346 21.4817 3.65341 21.4817 3.94057C21.4817 4.20657 21.4197 4.46047 21.2958 4.70229C21.1718 4.94108 21.001 5.15116 20.7834 5.33252C20.5688 5.51388 20.3164 5.65746 20.0262 5.76325C19.7391 5.86905 19.4323 5.92195 19.1058 5.92195C18.8428 5.92195 18.6101 5.89021 18.4076 5.82673C18.2051 5.76023 18.0358 5.66955 17.8998 5.55469C17.7637 5.43983 17.661 5.30532 17.5914 5.15116C17.5219 4.997 17.4872 4.83075 17.4872 4.65241C17.4872 4.5043 17.5098 4.36979 17.5552 4.24888C17.6035 4.12495 17.6549 4.01916 17.7093 3.9315C17.7668 3.84384 17.8197 3.77583 17.868 3.72747C17.9194 3.67608 17.9481 3.64737 17.9542 3.64132C17.9693 3.62621 17.9859 3.61714 18.004 3.61412C18.0252 3.60807 18.0449 3.60505 18.063 3.60505C18.1114 3.60505 18.1522 3.62016 18.1854 3.65039C18.2187 3.68062 18.2353 3.71991 18.2353 3.76828C18.2353 3.82268 18.2156 3.86802 18.1763 3.9043C18.1703 3.90732 18.1491 3.92848 18.1129 3.96777C18.0766 4.00405 18.0373 4.05543 17.995 4.12193C17.9527 4.18541 17.9134 4.26249 17.8771 4.35317C17.8438 4.44385 17.8272 4.5436 17.8272 4.65241C17.8272 4.82471 17.865 4.9698 17.9406 5.08768C18.0192 5.20557 18.1204 5.30229 18.2444 5.37786C18.3683 5.4504 18.5058 5.5033 18.6569 5.53655C18.8081 5.56678 18.9592 5.58189 19.1104 5.58189C19.3915 5.58189 19.6544 5.53655 19.8993 5.44587C20.1471 5.35519 20.3633 5.23428 20.5476 5.08315C20.732 4.93201 20.8771 4.75821 20.9829 4.56173C21.0887 4.36526 21.1416 4.15971 21.1416 3.9451C21.1416 3.70933 21.0751 3.49472 20.9421 3.30127C20.8091 3.10479 20.6293 2.93855 20.4026 2.80253C20.1759 2.66348 19.9099 2.55618 19.6046 2.48061C19.3023 2.40504 18.9789 2.36726 18.6343 2.36726C18.3743 2.36726 18.1008 2.399 17.8136 2.46247C17.5295 2.52293 17.2484 2.61512 16.9703 2.73905C16.6922 2.86298 16.4262 3.01714 16.1723 3.20152C15.9214 3.38591 15.7008 3.60203 15.5103 3.84989C15.3199 4.09473 15.1672 4.36979 15.0524 4.67508C14.9405 4.98038 14.8846 5.31438 14.8846 5.67711C14.8846 6.00658 14.93 6.30432 15.0206 6.57031C15.1144 6.83631 15.2428 7.07359 15.406 7.28216C15.5693 7.4877 15.7597 7.66604 15.9773 7.81717C16.198 7.96831 16.4338 8.09375 16.6846 8.1935C16.9385 8.29023 17.203 8.36277 17.4781 8.41113C17.7532 8.45647 18.0267 8.47914 18.2988 8.47914C18.6615 8.47914 19.0106 8.42927 19.3461 8.32952C19.6816 8.22675 19.9915 8.09375 20.2756 7.93052C20.5628 7.76428 20.8167 7.57838 21.0373 7.37284C21.258 7.16729 21.4333 6.96024 21.5633 6.75167C21.5784 6.72447 21.5995 6.70482 21.6267 6.69273C21.6539 6.67762 21.6827 6.67006 21.7129 6.67006C21.7643 6.67006 21.8051 6.6882 21.8353 6.72447C21.8655 6.75772 21.8807 6.7955 21.8807 6.83782C21.8807 6.85293 21.8791 6.86805 21.8761 6.88316C21.8731 6.89828 21.867 6.91339 21.858 6.9285Z" fill="white"/>
<path d="M22.6877 8.22524C22.7361 8.12247 22.792 8.01214 22.8555 7.89425C22.9189 7.77335 22.987 7.65093 23.0595 7.527C23.132 7.40004 23.2091 7.2746 23.2907 7.15067C23.3724 7.02674 23.457 6.91037 23.5446 6.80155C23.6323 6.69575 23.72 6.62019 23.8076 6.57485C23.8983 6.52648 23.9829 6.5023 24.0615 6.5023C24.1401 6.5023 24.2081 6.51893 24.2656 6.55218C24.326 6.5824 24.3744 6.62472 24.4106 6.67913C24.4499 6.73354 24.4787 6.79701 24.4968 6.86956C24.518 6.9421 24.5285 7.02069 24.5285 7.10533C24.5285 7.17485 24.521 7.26856 24.5059 7.38644C24.4938 7.5013 24.4877 7.62221 24.4877 7.74916C24.4877 7.82171 24.4907 7.89425 24.4968 7.9668C24.5059 8.03632 24.5195 8.0998 24.5376 8.15723C24.5588 8.21164 24.589 8.25698 24.6283 8.29325C24.6676 8.3265 24.719 8.34312 24.7824 8.34312C24.855 8.34312 24.9275 8.32347 25.0001 8.28418C25.0726 8.24186 25.1436 8.18745 25.2132 8.12095C25.2827 8.05143 25.3492 7.97587 25.4127 7.89425C25.4761 7.80962 25.5336 7.72649 25.585 7.64488C25.6363 7.56024 25.6817 7.48014 25.721 7.40458C25.7603 7.32599 25.792 7.261 25.8162 7.20961C25.8464 7.14009 25.8993 7.10533 25.9749 7.10533C26.0263 7.10533 26.0671 7.12347 26.0973 7.15974C26.1275 7.19601 26.1426 7.23531 26.1426 7.27762C26.1426 7.3018 26.1381 7.32447 26.129 7.34563C26.117 7.36982 26.0928 7.41969 26.0565 7.49526C26.0233 7.57082 25.9764 7.65848 25.9159 7.75823C25.8585 7.85798 25.7905 7.96226 25.7119 8.07108C25.6333 8.1799 25.5457 8.28116 25.4489 8.37486C25.3552 8.46554 25.2525 8.54111 25.1406 8.60156C25.0318 8.65899 24.9169 8.68771 24.796 8.68771C24.657 8.68771 24.5452 8.65899 24.4605 8.60156C24.3759 8.54111 24.3094 8.46554 24.261 8.37486C24.2157 8.28418 24.1839 8.18292 24.1658 8.07108C24.1507 7.95924 24.1431 7.85042 24.1431 7.74463C24.1431 7.69022 24.1446 7.63279 24.1477 7.57234C24.1537 7.50886 24.1598 7.44689 24.1658 7.38644C24.1719 7.32599 24.1764 7.27007 24.1794 7.21868C24.1855 7.16427 24.1885 7.11893 24.1885 7.08266C24.1885 6.98896 24.1749 6.92548 24.1477 6.89223C24.1235 6.85898 24.0948 6.84236 24.0615 6.84236C24.0132 6.84236 23.9572 6.87107 23.8938 6.9285C23.8333 6.98291 23.7683 7.05546 23.6988 7.14614C23.6323 7.23682 23.5643 7.33959 23.4948 7.45445C23.4283 7.56629 23.3633 7.67813 23.2998 7.78997C23.2363 7.90181 23.1789 8.00912 23.1275 8.11189C23.0761 8.21164 23.0338 8.29476 23.0006 8.36126C22.9371 8.48821 22.8721 8.57285 22.8056 8.61516C22.7421 8.66051 22.6847 8.68318 22.6333 8.68318C22.5396 8.68318 22.4671 8.6469 22.4157 8.57436C22.3673 8.49879 22.3431 8.40811 22.3431 8.30232V8.01667C22.3431 7.44538 22.3431 6.9013 22.3431 6.38442C22.3461 5.86451 22.3537 5.38239 22.3658 4.93806C22.3809 4.4907 22.4036 4.08717 22.4338 3.72747C22.4671 3.36475 22.5154 3.05643 22.5789 2.80253C22.6424 2.5456 22.7225 2.34761 22.8192 2.20857C22.9189 2.06952 23.0429 2 23.191 2C23.3179 2 23.4252 2.03476 23.5129 2.10428C23.6006 2.17381 23.6716 2.26902 23.726 2.38993C23.7804 2.50781 23.8197 2.64686 23.8439 2.80706C23.8681 2.96424 23.8802 3.13049 23.8802 3.3058C23.8802 3.66248 23.8469 4.01311 23.7804 4.3577C23.7169 4.69927 23.6308 5.03327 23.522 5.35972C23.4132 5.68618 23.2862 6.00507 23.1411 6.31641C22.996 6.62472 22.8434 6.92548 22.6832 7.21868C22.6832 7.27309 22.6832 7.33808 22.6832 7.41364C22.6832 7.48921 22.6832 7.56478 22.6832 7.64035C22.6832 7.71591 22.6832 7.78695 22.6832 7.85345C22.6832 7.91995 22.6832 7.97284 22.6832 8.01214L22.6877 8.22524ZM22.6877 6.55218C22.8147 6.27409 22.9295 6.00356 23.0323 5.74058C23.1381 5.47459 23.2273 5.2101 23.2998 4.94713C23.3754 4.68415 23.4343 4.41816 23.4766 4.14914C23.519 3.87709 23.5401 3.59447 23.5401 3.30127C23.5401 3.25291 23.5371 3.17583 23.531 3.07003C23.528 2.96424 23.5144 2.85693 23.4902 2.74812C23.4691 2.6393 23.4343 2.54408 23.386 2.46247C23.3406 2.38086 23.2756 2.34005 23.191 2.34005C23.1245 2.34005 23.0671 2.38539 23.0187 2.47607C22.9703 2.56373 22.928 2.68464 22.8917 2.8388C22.8555 2.98993 22.8252 3.16676 22.8011 3.36928C22.7769 3.5718 22.7572 3.78641 22.7421 4.01311C22.727 4.23982 22.7149 4.47256 22.7058 4.71136C22.6998 4.95015 22.6953 5.1829 22.6922 5.4096C22.6892 5.63328 22.6877 5.84336 22.6877 6.03983C22.6877 6.23631 22.6877 6.40709 22.6877 6.55218Z" fill="white"/>
<path d="M26.3648 8.11189C26.4283 8.19955 26.5099 8.27058 26.6097 8.32499C26.7094 8.37637 26.8318 8.40207 26.9769 8.40207C27.125 8.40207 27.2595 8.3673 27.3804 8.29778C27.5013 8.22524 27.6117 8.13153 27.7114 8.01667C27.8112 7.90181 27.9003 7.77334 27.9789 7.63128C28.0575 7.48921 28.1286 7.34715 28.192 7.20508C28.2071 7.17183 28.2283 7.14765 28.2555 7.13253C28.2827 7.1144 28.3129 7.10533 28.3462 7.10533C28.3976 7.10533 28.4384 7.12347 28.4686 7.15974C28.5019 7.19601 28.5185 7.23531 28.5185 7.27762C28.5185 7.29274 28.517 7.30634 28.514 7.31843C28.5109 7.3275 28.5064 7.33808 28.5003 7.35017C28.2918 7.80962 28.0636 8.15572 27.8157 8.38846C27.5709 8.62121 27.2928 8.74061 26.9814 8.74665C26.7819 8.74665 26.6097 8.70736 26.4646 8.62877C26.3195 8.5532 26.2001 8.45496 26.1064 8.33405C26.0127 8.21012 25.9432 8.07108 25.8978 7.91692C25.8525 7.76277 25.8298 7.60861 25.8298 7.45445C25.8298 7.30029 25.8479 7.15823 25.8842 7.02825C25.9235 6.89827 25.9779 6.78492 26.0474 6.6882C26.12 6.59147 26.2046 6.5159 26.3013 6.4615C26.4011 6.40709 26.5099 6.37988 26.6278 6.37988C26.6973 6.37988 26.7653 6.395 26.8318 6.42522C26.9013 6.45243 26.9633 6.49323 27.0177 6.54764C27.0721 6.59903 27.116 6.66251 27.1492 6.73807C27.1825 6.81364 27.1991 6.89979 27.1991 6.99651C27.1991 7.12044 27.1779 7.23682 27.1356 7.34563C27.0933 7.45445 27.0343 7.55571 26.9588 7.64941C26.8862 7.74312 26.7986 7.82926 26.6958 7.90786C26.593 7.98645 26.4827 8.05446 26.3648 8.11189ZM26.2288 7.81717C26.3225 7.77788 26.4071 7.728 26.4827 7.66755C26.5613 7.6071 26.6278 7.5406 26.6822 7.46805C26.7366 7.39551 26.7789 7.31994 26.8092 7.24135C26.8394 7.15974 26.8545 7.07813 26.8545 6.99651C26.8545 6.90583 26.8318 6.83782 26.7865 6.79248C26.7411 6.74412 26.6882 6.71994 26.6278 6.71994C26.5462 6.71994 26.4767 6.74261 26.4192 6.78795C26.3618 6.83329 26.3149 6.89223 26.2787 6.96477C26.2424 7.03732 26.2152 7.11893 26.1971 7.20961C26.1819 7.29727 26.1744 7.38493 26.1744 7.47259C26.1744 7.527 26.1789 7.58443 26.188 7.64488C26.2001 7.70533 26.2137 7.76277 26.2288 7.81717Z" fill="white"/>
<path d="M31.1618 7.3547C31.1437 7.38795 31.112 7.44841 31.0666 7.53606C31.0243 7.62372 30.9654 7.72347 30.8898 7.83531C30.8172 7.94413 30.7296 8.05748 30.6268 8.17536C30.524 8.29325 30.4062 8.40206 30.2732 8.50181C30.1402 8.59854 29.9905 8.67864 29.8243 8.74212C29.6611 8.80559 29.4827 8.83733 29.2893 8.83733C29.117 8.83733 28.9643 8.80559 28.8313 8.74212C28.6983 8.68166 28.585 8.59552 28.4913 8.48368C28.3976 8.36882 28.3265 8.23431 28.2782 8.08015C28.2298 7.92599 28.2056 7.75521 28.2056 7.5678C28.2056 7.38644 28.2313 7.21717 28.2827 7.05999C28.3341 6.89979 28.4036 6.76074 28.4913 6.64286C28.582 6.52497 28.6862 6.43278 28.8041 6.36628C28.922 6.29676 29.0475 6.262 29.1805 6.262C29.2802 6.262 29.3709 6.28013 29.4525 6.31641C29.5341 6.34966 29.6021 6.395 29.6565 6.45243C29.714 6.50986 29.7578 6.57334 29.788 6.64286C29.8213 6.71238 29.8379 6.7819 29.8379 6.85142C29.8379 6.91792 29.8288 6.97989 29.8107 7.03732C29.7956 7.09475 29.7744 7.14614 29.7472 7.19148C29.723 7.23379 29.6943 7.26855 29.6611 7.29576C29.6278 7.31994 29.5946 7.33203 29.5613 7.33203C29.5099 7.33203 29.4676 7.31541 29.4344 7.28216C29.4041 7.24891 29.389 7.2081 29.389 7.15974C29.389 7.13556 29.3936 7.1144 29.4026 7.09626C29.4147 7.07813 29.4268 7.05999 29.4389 7.04185C29.454 7.02069 29.4661 6.99651 29.4752 6.96931C29.4873 6.93908 29.4933 6.9013 29.4933 6.85596C29.4933 6.79248 29.4631 6.73505 29.4026 6.68366C29.3452 6.63228 29.2711 6.60659 29.1805 6.60659C29.0958 6.60659 29.0142 6.63228 28.9356 6.68366C28.8601 6.73505 28.7936 6.80457 28.7361 6.89223C28.6787 6.97687 28.6318 7.07813 28.5956 7.19601C28.5623 7.31087 28.5457 7.43329 28.5457 7.56327C28.5457 7.6872 28.5608 7.80508 28.591 7.91692C28.6213 8.02876 28.6666 8.12851 28.7271 8.21617C28.7875 8.3008 28.8631 8.36882 28.9538 8.4202C29.0475 8.47159 29.1578 8.49728 29.2847 8.49728C29.448 8.49728 29.5991 8.46856 29.7381 8.41113C29.8772 8.35068 30.0041 8.27511 30.119 8.18443C30.2339 8.09375 30.3351 7.99551 30.4228 7.88972C30.5104 7.7809 30.5845 7.67964 30.645 7.58594C30.7084 7.48921 30.7568 7.40609 30.79 7.33657C30.8263 7.26402 30.8475 7.21868 30.8535 7.20054C30.8656 7.17032 30.8853 7.14765 30.9125 7.13253C30.9427 7.1144 30.9744 7.10533 31.0077 7.10533C31.0591 7.10533 31.0999 7.12347 31.1301 7.15974C31.1633 7.19601 31.18 7.23682 31.18 7.28216C31.18 7.30029 31.1739 7.32448 31.1618 7.3547Z" fill="white"/>
<path d="M31.9961 8.05294C32.0475 8.16781 32.1321 8.26 32.25 8.32952C32.3679 8.39602 32.5009 8.42927 32.649 8.42927C32.6943 8.42927 32.7684 8.42322 32.8712 8.41113C32.9739 8.39602 33.0918 8.35068 33.2248 8.27511C33.3608 8.19652 33.5044 8.0741 33.6556 7.90786C33.8067 7.74161 33.9533 7.50735 34.0954 7.20508C34.1105 7.17183 34.1316 7.14765 34.1588 7.13253C34.186 7.1144 34.2163 7.10533 34.2495 7.10533C34.3009 7.10533 34.3417 7.12347 34.3719 7.15974C34.4052 7.19601 34.4218 7.23531 34.4218 7.27762C34.4218 7.29576 34.4158 7.31994 34.4037 7.35017C34.2979 7.57082 34.18 7.76881 34.05 7.94413C33.92 8.11642 33.7795 8.26453 33.6283 8.38846C33.4772 8.50937 33.3185 8.60156 33.1523 8.66504C32.989 8.73154 32.8213 8.76479 32.649 8.76479C32.513 8.76479 32.3845 8.74363 32.2636 8.70131C32.1457 8.65899 32.0429 8.60307 31.9553 8.53355C31.8707 8.46101 31.8026 8.38091 31.7513 8.29325C31.7029 8.20257 31.6787 8.11038 31.6787 8.01667C31.6787 8.00458 31.6802 7.98796 31.6832 7.9668C31.6863 7.94564 31.6938 7.92297 31.7059 7.89879C31.721 7.87158 31.7407 7.8474 31.7649 7.82624C31.7921 7.80206 31.8283 7.78241 31.8737 7.7673C31.9976 7.73103 32.111 7.6872 32.2137 7.63581C32.3195 7.5814 32.4102 7.52095 32.4858 7.45445C32.5613 7.38795 32.6203 7.31541 32.6626 7.23682C32.7049 7.1552 32.7261 7.06755 32.7261 6.97384C32.7261 6.89223 32.6989 6.82573 32.6445 6.77434C32.5901 6.72296 32.5236 6.69727 32.445 6.69727C32.3634 6.69727 32.2833 6.72598 32.2047 6.78341C32.1261 6.83782 32.049 6.91188 31.9734 7.00558C31.9009 7.09626 31.8314 7.20206 31.7649 7.32296C31.6984 7.44085 31.6364 7.56478 31.579 7.69475C31.5246 7.82473 31.4762 7.95471 31.4339 8.08468C31.3916 8.21164 31.3568 8.32952 31.3296 8.43834C31.3205 8.47159 31.3099 8.50786 31.2979 8.54715C31.2888 8.58645 31.2737 8.62272 31.2525 8.65597C31.2314 8.69224 31.2057 8.72096 31.1754 8.74212C31.1452 8.7663 31.1059 8.77839 31.0575 8.77839C31.0122 8.77839 30.9684 8.75874 30.9261 8.71945C30.8837 8.68318 30.8626 8.6197 30.8626 8.52902C30.8626 8.51088 30.8626 8.44136 30.8626 8.32045C30.8656 8.19954 30.8686 8.04236 30.8717 7.84891C30.8747 7.65244 30.8777 7.42876 30.8807 7.17787C30.8868 6.92397 30.8913 6.65646 30.8943 6.37535C30.8973 6.09122 30.9019 5.79953 30.9079 5.50028C30.914 5.20103 30.9185 4.90934 30.9215 4.62521C30.9246 4.34108 30.9276 4.07206 30.9306 3.81815C30.9366 3.56122 30.9412 3.33452 30.9442 3.13804C30.9472 2.93855 30.9487 2.77683 30.9487 2.6529C30.9518 2.52595 30.9533 2.45038 30.9533 2.4262C30.9533 2.37784 30.9714 2.33854 31.0077 2.30831C31.0439 2.27507 31.0832 2.25844 31.1256 2.25844C31.1739 2.25844 31.2147 2.27507 31.248 2.30831C31.2812 2.33854 31.2979 2.37935 31.2979 2.43073C31.2979 2.43678 31.2963 2.49723 31.2933 2.6121C31.2933 2.72394 31.2918 2.87507 31.2888 3.0655C31.2858 3.25593 31.2812 3.4781 31.2752 3.732C31.2722 3.98591 31.2676 4.25644 31.2616 4.5436C31.2586 4.82773 31.254 5.12093 31.248 5.4232C31.245 5.72547 31.2404 6.02018 31.2344 6.30734C31.2314 6.59449 31.2283 6.86805 31.2253 7.128C31.2223 7.38795 31.2193 7.61768 31.2162 7.81717C31.2646 7.66302 31.3266 7.5013 31.4021 7.33203C31.4777 7.15974 31.5669 7.00105 31.6696 6.85596C31.7724 6.71087 31.8873 6.59147 32.0142 6.49777C32.1442 6.40406 32.2878 6.35721 32.445 6.35721C32.5326 6.35721 32.6142 6.37384 32.6898 6.40709C32.7654 6.43731 32.8304 6.48114 32.8848 6.53857C32.9422 6.59298 32.986 6.65797 33.0163 6.73354C33.0495 6.80911 33.0661 6.89072 33.0661 6.97838C33.0661 7.1144 33.0359 7.23984 32.9754 7.3547C32.915 7.46654 32.8349 7.5678 32.7351 7.65848C32.6354 7.74614 32.5205 7.82322 32.3906 7.88972C32.2636 7.95622 32.1321 8.01063 31.9961 8.05294Z" fill="white"/>
<path d="M35.1473 8.2071C35.1926 8.11642 35.25 8.00458 35.3195 7.87158C35.3921 7.73556 35.4661 7.59954 35.5417 7.46352C35.6203 7.3275 35.6959 7.19903 35.7684 7.07813C35.844 6.95722 35.9075 6.86503 35.9588 6.80155C36.0465 6.69575 36.1372 6.62019 36.2309 6.57485C36.3246 6.52951 36.4107 6.50684 36.4893 6.50684C36.5679 6.50684 36.6344 6.52346 36.6888 6.55671C36.7463 6.58996 36.7931 6.6353 36.8294 6.69273C36.8657 6.74714 36.8929 6.81213 36.911 6.8877C36.9291 6.96024 36.9382 7.03883 36.9382 7.12347C36.9382 7.17183 36.9352 7.23531 36.9291 7.3139C36.9261 7.39249 36.9216 7.47712 36.9155 7.5678C36.9125 7.65848 36.908 7.75219 36.9019 7.84891C36.8989 7.94564 36.8959 8.03632 36.8929 8.12095C36.9382 8.03027 36.9896 7.93052 37.047 7.82171C37.1044 7.70987 37.1619 7.59954 37.2193 7.49072C37.2798 7.38191 37.3372 7.28065 37.3916 7.18694C37.446 7.09022 37.4959 7.01163 37.5412 6.95117C37.6712 6.77283 37.7921 6.65344 37.9039 6.59298C38.0188 6.53253 38.1201 6.5023 38.2077 6.5023C38.3105 6.5023 38.3951 6.52195 38.4616 6.56124C38.5281 6.59752 38.5795 6.64588 38.6158 6.70633C38.6551 6.76377 38.6823 6.82875 38.6974 6.9013C38.7125 6.97384 38.7201 7.04336 38.7201 7.10986C38.7201 7.21264 38.7125 7.31994 38.6974 7.43178C38.6823 7.54362 38.6747 7.67662 38.6747 7.83078C38.6747 7.89425 38.6778 7.95773 38.6838 8.02121C38.6898 8.08468 38.7019 8.1406 38.7201 8.18896C38.7412 8.23733 38.773 8.27662 38.8153 8.30685C38.8576 8.33708 38.915 8.35219 38.9876 8.35219C39.0662 8.35219 39.1433 8.33254 39.2188 8.29325C39.2944 8.25093 39.3669 8.19652 39.4365 8.13002C39.506 8.06352 39.571 7.98796 39.6314 7.90332C39.6949 7.81868 39.7523 7.73405 39.8037 7.64941C39.8551 7.56478 39.9004 7.48468 39.9397 7.40911C39.979 7.33052 40.0108 7.26402 40.0349 7.20961C40.0501 7.17636 40.0712 7.15067 40.0984 7.13253C40.1256 7.1144 40.1559 7.10533 40.1891 7.10533C40.2405 7.10533 40.2813 7.12498 40.3115 7.16427C40.3448 7.20054 40.3614 7.23984 40.3614 7.28216C40.3614 7.30332 40.3569 7.32447 40.3478 7.34563C40.3357 7.36982 40.3115 7.4212 40.2753 7.49979C40.239 7.57536 40.1906 7.66302 40.1302 7.76276C40.0697 7.85949 39.9987 7.96226 39.9171 8.07108C39.8385 8.1799 39.7508 8.28116 39.6541 8.37486C39.5574 8.46554 39.4531 8.54111 39.3412 8.60156C39.2294 8.65899 39.1115 8.68771 38.9876 8.68771C38.8546 8.68771 38.7458 8.66353 38.6611 8.61516C38.5795 8.56982 38.513 8.50786 38.4616 8.42927C38.4133 8.35068 38.38 8.26 38.3619 8.15723C38.3438 8.05445 38.3347 7.94715 38.3347 7.83531C38.3347 7.6872 38.3422 7.55118 38.3574 7.42725C38.3725 7.30029 38.38 7.20206 38.38 7.13253C38.38 7.05697 38.3725 6.99954 38.3574 6.96024C38.3453 6.92095 38.3286 6.89374 38.3075 6.87863C38.2893 6.86049 38.2712 6.85142 38.2531 6.85142C38.2349 6.8484 38.2213 6.84689 38.2123 6.84689C38.1397 6.84689 38.0626 6.8877 37.981 6.96931C37.9024 7.0479 37.8208 7.15369 37.7362 7.28669C37.6516 7.41969 37.5639 7.57082 37.4732 7.7401C37.3856 7.90937 37.2964 8.08166 37.2057 8.25698C37.1543 8.3537 37.1105 8.4338 37.0742 8.49728C37.041 8.56076 37.0077 8.61063 36.9745 8.6469C36.9442 8.68318 36.914 8.70887 36.8838 8.72398C36.8536 8.7391 36.8203 8.74665 36.784 8.74665C36.7055 8.74665 36.645 8.71945 36.6027 8.66504C36.5634 8.61063 36.5437 8.5396 36.5437 8.45194C36.5437 8.4066 36.5452 8.34615 36.5483 8.27058C36.5513 8.19501 36.5543 8.11189 36.5573 8.02121C36.5604 7.93053 36.5649 7.83682 36.5709 7.7401C36.577 7.64337 36.5815 7.55118 36.5845 7.46352C36.5876 7.37284 36.5906 7.29274 36.5936 7.22322C36.5966 7.15369 36.5981 7.1008 36.5981 7.06452C36.5981 6.98593 36.5845 6.93001 36.5573 6.89676C36.5301 6.86049 36.4984 6.84236 36.4621 6.84236C36.4289 6.84236 36.3911 6.85445 36.3488 6.87863C36.3095 6.90281 36.2626 6.94966 36.2082 7.01918C36.1659 7.07359 36.1115 7.15369 36.045 7.25949C35.9815 7.36226 35.9135 7.47712 35.841 7.60407C35.7684 7.73103 35.6959 7.861 35.6233 7.994C35.5538 8.127 35.4934 8.2464 35.442 8.35219C35.3785 8.47914 35.315 8.56529 35.2515 8.61063C35.1881 8.65899 35.1261 8.68318 35.0656 8.68318C34.978 8.68318 34.913 8.65748 34.8707 8.6061C34.8284 8.55169 34.8072 8.48065 34.8072 8.393C34.8072 8.38393 34.8087 8.32952 34.8117 8.22977C34.8178 8.13002 34.8238 8.00911 34.8299 7.86705C34.8359 7.72196 34.842 7.5678 34.848 7.40458C34.8571 7.24135 34.8646 7.0887 34.8707 6.94664C34.8737 6.87107 34.8707 6.80155 34.8616 6.73807C34.8525 6.6746 34.8404 6.63681 34.8253 6.62472C34.8012 6.63077 34.7528 6.68669 34.6802 6.79248C34.6107 6.89828 34.5216 7.08266 34.4127 7.34563C34.3976 7.37888 34.375 7.40458 34.3447 7.42271C34.3145 7.44085 34.2828 7.44992 34.2495 7.44992C34.1981 7.44992 34.1573 7.43329 34.1271 7.40004C34.0969 7.36377 34.0818 7.32296 34.0818 7.27762C34.0818 7.25646 34.0863 7.23379 34.0954 7.20961C34.2314 6.88618 34.3614 6.6489 34.4853 6.49777C34.6092 6.34361 34.7301 6.26653 34.848 6.26653C34.9175 6.26653 34.975 6.28316 35.0203 6.31641C35.0687 6.34663 35.1064 6.38744 35.1336 6.43883C35.1609 6.48719 35.1805 6.54311 35.1926 6.60659C35.2047 6.67006 35.2107 6.73203 35.2107 6.79248C35.2107 7.0615 35.2032 7.30785 35.1881 7.53153C35.176 7.75521 35.1624 7.9804 35.1473 8.2071Z" fill="white"/>
<path d="M43.5443 7.34563C43.5322 7.36982 43.5065 7.4212 43.4672 7.49979C43.4309 7.57536 43.3826 7.66302 43.3221 7.76276C43.2647 7.86251 43.1967 7.9668 43.1181 8.07561C43.0395 8.18443 42.9518 8.28418 42.8551 8.37486C42.7584 8.46554 42.6541 8.54111 42.5423 8.60156C42.4304 8.65899 42.3125 8.68771 42.1886 8.68771C42.0133 8.68771 41.8652 8.63179 41.7443 8.51995C41.6264 8.40811 41.5403 8.26756 41.4858 8.09828C41.3831 8.27058 41.2607 8.40811 41.1186 8.51088C40.9765 8.61063 40.8345 8.66051 40.6924 8.66051C40.5805 8.66051 40.4793 8.64086 40.3886 8.60156C40.2979 8.55924 40.2208 8.50181 40.1574 8.42927C40.0939 8.3537 40.044 8.26604 40.0077 8.1663C39.9745 8.06655 39.9579 7.95773 39.9579 7.83984C39.9579 7.60407 39.9972 7.39702 40.0758 7.21868C40.1574 7.03732 40.2601 6.88618 40.3841 6.76528C40.508 6.64437 40.644 6.55369 40.7921 6.49323C40.9433 6.43278 41.0884 6.40255 41.2274 6.40255C41.3211 6.40255 41.4073 6.41616 41.4858 6.44336C41.5644 6.46754 41.6309 6.49475 41.6853 6.52497C41.7428 6.5552 41.7866 6.58392 41.8168 6.61112C41.8471 6.6353 41.8637 6.6489 41.8667 6.65193C41.9 6.69122 41.9166 6.73203 41.9166 6.77434C41.9166 6.81968 41.9 6.86049 41.8667 6.89676C41.8335 6.93001 41.7942 6.94664 41.7488 6.94664C41.7005 6.94664 41.6596 6.93001 41.6264 6.89676C41.6204 6.89072 41.6067 6.88014 41.5856 6.86503C41.5644 6.84689 41.5357 6.82875 41.4994 6.81062C41.4632 6.79248 41.4193 6.77737 41.368 6.76528C41.3196 6.75016 41.2637 6.74261 41.2002 6.74261C41.1065 6.74261 41.0067 6.76377 40.901 6.80608C40.7952 6.8484 40.6984 6.9149 40.6108 7.00558C40.5231 7.09324 40.4491 7.20508 40.3886 7.3411C40.3312 7.4741 40.3025 7.63279 40.3025 7.81717C40.3025 7.87461 40.3085 7.93355 40.3206 7.994C40.3327 8.05143 40.3538 8.10433 40.3841 8.15269C40.4143 8.20106 40.4551 8.24035 40.5065 8.27058C40.5579 8.30081 40.6214 8.31592 40.6969 8.31592C40.7513 8.31592 40.8133 8.29778 40.8828 8.26151C40.9554 8.22524 41.0234 8.16932 41.0868 8.09375C41.1533 8.01818 41.2123 7.92297 41.2637 7.80811C41.3181 7.69324 41.3559 7.55722 41.377 7.40004C41.3831 7.35772 41.4027 7.32296 41.436 7.29576C41.4692 7.26553 41.5085 7.25042 41.5539 7.25042C41.5962 7.25042 41.6324 7.26704 41.6627 7.30029C41.6959 7.33354 41.7141 7.37133 41.7171 7.41364C41.7201 7.47108 41.7261 7.55269 41.7352 7.65848C41.7443 7.76125 41.7639 7.86403 41.7942 7.9668C41.8274 8.06957 41.8758 8.15874 41.9392 8.23431C42.0027 8.30987 42.0904 8.34766 42.2022 8.34766C42.2748 8.34766 42.3458 8.32801 42.4153 8.28871C42.4879 8.24942 42.5574 8.19803 42.6239 8.13456C42.6934 8.06806 42.7584 7.994 42.8188 7.91239C42.8823 7.82775 42.9398 7.74312 42.9911 7.65848C43.0425 7.57385 43.0879 7.49223 43.1272 7.41364C43.1665 7.33505 43.1997 7.26704 43.2269 7.20961C43.242 7.17636 43.2632 7.15067 43.2904 7.13253C43.3206 7.1144 43.3524 7.10533 43.3856 7.10533C43.437 7.10533 43.4778 7.12498 43.508 7.16427C43.5413 7.20054 43.5579 7.23984 43.5579 7.28216C43.5579 7.30332 43.5534 7.32447 43.5443 7.34563Z" fill="white"/>
<path d="M46.904 4.07206C46.904 4.12042 46.8874 4.15971 46.8541 4.18994C46.8209 4.21715 46.7801 4.23075 46.7317 4.23075H44.433V4.28062C44.433 4.46501 44.4194 4.66148 44.3922 4.87005C44.365 5.07861 44.3272 5.28718 44.2788 5.49575C44.2335 5.70129 44.1806 5.9023 44.1201 6.09877C44.0627 6.29525 44.0022 6.47661 43.9388 6.64286C43.8783 6.80911 43.8179 6.9542 43.7574 7.07813C43.6969 7.19903 43.6425 7.28971 43.5942 7.35017C43.6335 7.48921 43.6803 7.61919 43.7347 7.7401C43.7891 7.85798 43.8496 7.96226 43.9161 8.05294C43.9856 8.1406 44.0597 8.21012 44.1383 8.26151C44.2168 8.3129 44.3015 8.33859 44.3922 8.33859C44.498 8.33859 44.6022 8.29476 44.705 8.2071C44.8108 8.11642 44.9075 8.01063 44.9952 7.88972C45.0859 7.76579 45.1645 7.64186 45.231 7.51793C45.3005 7.39097 45.3504 7.28971 45.3806 7.21415C45.4108 7.1416 45.4637 7.10533 45.5393 7.10533C45.5907 7.10533 45.6315 7.12347 45.6617 7.15974C45.6949 7.19601 45.7116 7.23531 45.7116 7.27762C45.7116 7.29878 45.707 7.31994 45.698 7.3411C45.6889 7.36226 45.6662 7.41062 45.63 7.48619C45.5967 7.56176 45.5514 7.64941 45.4939 7.74916C45.4395 7.84891 45.3745 7.95471 45.299 8.06655C45.2264 8.17536 45.1433 8.27511 45.0496 8.36579C44.9589 8.45647 44.8607 8.53204 44.7549 8.59249C44.6491 8.65295 44.5373 8.68318 44.4194 8.68318C44.2108 8.68318 44.0234 8.61517 43.8571 8.47914C43.6909 8.34312 43.5488 8.15269 43.4309 7.90786C43.3161 7.66302 43.2284 7.37284 43.168 7.03732C43.1075 6.7018 43.0773 6.33454 43.0773 5.93555C43.0773 5.8358 43.0788 5.71942 43.0818 5.58643C43.0848 5.4504 43.0909 5.30834 43.1 5.16023C43.109 5.00909 43.1226 4.85493 43.1408 4.69775C43.1589 4.53755 43.1831 4.38188 43.2133 4.23075H41.5856C41.5372 4.23075 41.4964 4.21715 41.4632 4.18994C41.4299 4.15971 41.4133 4.12042 41.4133 4.07206C41.4133 4.02369 41.4299 3.98591 41.4632 3.95871C41.4964 3.92848 41.5372 3.91337 41.5856 3.91337H43.2904C43.3206 3.80455 43.3554 3.7048 43.3947 3.61412C43.437 3.52344 43.4838 3.44485 43.5352 3.37835C43.5896 3.31185 43.6486 3.26046 43.7121 3.22419C43.7786 3.1849 43.8511 3.16525 43.9297 3.16525C44.0053 3.16525 44.0702 3.1849 44.1247 3.22419C44.1821 3.26046 44.2304 3.31185 44.2697 3.37835C44.309 3.44485 44.3393 3.52344 44.3604 3.61412C44.3846 3.7048 44.4027 3.80455 44.4148 3.91337H46.7317C46.7801 3.91337 46.8209 3.92848 46.8541 3.95871C46.8874 3.98591 46.904 4.02369 46.904 4.07206ZM43.4899 6.89676C43.5806 6.69727 43.6622 6.48265 43.7347 6.25293C43.8103 6.02018 43.8738 5.78592 43.9252 5.55015C43.9796 5.31438 44.0204 5.08315 44.0476 4.85645C44.0778 4.62974 44.0929 4.42118 44.0929 4.23075H43.5579C43.5156 4.41815 43.4808 4.6509 43.4536 4.92899C43.4294 5.20406 43.4173 5.53957 43.4173 5.93555C43.4173 6.1562 43.4234 6.3421 43.4355 6.49323C43.4476 6.64135 43.4657 6.77586 43.4899 6.89676ZM43.9116 3.5053C43.8844 3.5053 43.8451 3.53553 43.7937 3.59598C43.7423 3.65341 43.6909 3.75921 43.6395 3.91337H44.0748C44.0597 3.78641 44.037 3.68666 44.0068 3.61412C43.9796 3.54157 43.9478 3.5053 43.9116 3.5053ZM43.5624 7.22322V7.22775V7.22322Z" fill="white"/>
<path d="M45.9428 8.11189C46.0063 8.19955 46.0879 8.27058 46.1876 8.32499C46.2874 8.37637 46.4098 8.40207 46.5549 8.40207C46.703 8.40207 46.8375 8.3673 46.9584 8.29778C47.0793 8.22524 47.1897 8.13153 47.2894 8.01667C47.3892 7.90181 47.4783 7.77334 47.5569 7.63128C47.6355 7.48921 47.7065 7.34715 47.77 7.20508C47.7851 7.17183 47.8063 7.14765 47.8335 7.13253C47.8607 7.1144 47.8909 7.10533 47.9242 7.10533C47.9756 7.10533 48.0164 7.12347 48.0466 7.15974C48.0798 7.19601 48.0965 7.23531 48.0965 7.27762C48.0965 7.29274 48.095 7.30634 48.0919 7.31843C48.0889 7.3275 48.0844 7.33808 48.0783 7.35017C47.8698 7.80962 47.6416 8.15572 47.3937 8.38846C47.1489 8.62121 46.8708 8.74061 46.5594 8.74665C46.3599 8.74665 46.1876 8.70736 46.0426 8.62877C45.8975 8.5532 45.7781 8.45496 45.6844 8.33405C45.5907 8.21012 45.5211 8.07108 45.4758 7.91692C45.4305 7.76277 45.4078 7.60861 45.4078 7.45445C45.4078 7.30029 45.4259 7.15823 45.4622 7.02825C45.5015 6.89827 45.5559 6.78492 45.6254 6.6882C45.698 6.59147 45.7826 6.5159 45.8793 6.4615C45.9791 6.40709 46.0879 6.37988 46.2058 6.37988C46.2753 6.37988 46.3433 6.395 46.4098 6.42522C46.4793 6.45243 46.5413 6.49323 46.5957 6.54764C46.6501 6.59903 46.6939 6.66251 46.7272 6.73807C46.7604 6.81364 46.7771 6.89979 46.7771 6.99651C46.7771 7.12044 46.7559 7.23682 46.7136 7.34563C46.6713 7.45445 46.6123 7.55571 46.5368 7.64941C46.4642 7.74312 46.3766 7.82926 46.2738 7.90786C46.171 7.98645 46.0607 8.05446 45.9428 8.11189ZM45.8068 7.81717C45.9005 7.77788 45.9851 7.728 46.0607 7.66755C46.1393 7.6071 46.2058 7.5406 46.2602 7.46805C46.3146 7.39551 46.3569 7.31994 46.3871 7.24135C46.4174 7.15974 46.4325 7.07813 46.4325 6.99651C46.4325 6.90583 46.4098 6.83782 46.3645 6.79248C46.3191 6.74412 46.2662 6.71994 46.2058 6.71994C46.1242 6.71994 46.0546 6.74261 45.9972 6.78795C45.9398 6.83329 45.8929 6.89223 45.8567 6.96477C45.8204 7.03732 45.7932 7.11893 45.775 7.20961C45.7599 7.29727 45.7524 7.38493 45.7524 7.47259C45.7524 7.527 45.7569 7.58443 45.766 7.64488C45.7781 7.70533 45.7917 7.76277 45.8068 7.81717Z" fill="white"/>
<circle cx="5.32394" cy="5.32394" r="4.94366" fill="white" stroke="#333333" stroke-width="0.760563"/>
<path d="M8.74644 5.32394C8.74644 7.21415 7.21412 8.74647 5.3239 8.74647C3.43369 8.74647 1.90137 7.21415 1.90137 5.32394C1.90137 3.43373 3.43369 3.42253 5.3239 3.42253C7.21412 3.42253 8.74644 3.43373 8.74644 5.32394Z" fill="white" stroke="#333333" stroke-width="0.760563"/>
<circle cx="3.80277" cy="5.70423" r="0.380282" fill="#333333"/>
<circle cx="6.84513" cy="5.70423" r="0.380282" fill="#333333"/>
<path d="M4.56335 7.22536C4.56335 7.22536 4.86758 7.60564 5.32392 7.60564C5.78026 7.60564 6.08448 7.22536 6.08448 7.22536" stroke="#333333" stroke-width="0.380282" stroke-linecap="round" stroke-linejoin="round"/>
<circle cx="10.6479" cy="2.66197" r="0.380282" fill="white"/>
<path d="M9.88733 5.32394H10.6479V3.04225" stroke="white" stroke-width="0.380282" stroke-linecap="round" stroke-linejoin="round"/>
</svg>
