<svg width="60" height="60" viewBox="0 0 60 60" fill="none" xmlns="http://www.w3.org/2000/svg">
<circle cx="30" cy="30" r="30" fill="#CDE6C4"/>
<path d="M46 30C46 38.8366 38.8366 46 30 46C21.1634 46 14 38.8366 14 30C14 21.1634 21.1634 14 30 14C38.8366 14 46 21.1634 46 30Z" fill="#F3C858"/>
<mask id="path-3-inside-1" fill="white">
<path fill-rule="evenodd" clip-rule="evenodd" d="M45.4959 34C45.825 32.7215 46 31.3812 46 30C46 21.1634 38.8366 14 30 14C21.1634 14 14 21.1634 14 30C14 31.3812 14.175 32.7215 14.5041 34C16.2802 27.0991 22.5446 22 30 22C37.4554 22 43.7198 27.0991 45.4959 34Z"/>
</mask>
<path fill-rule="evenodd" clip-rule="evenodd" d="M45.4959 34C45.825 32.7215 46 31.3812 46 30C46 21.1634 38.8366 14 30 14C21.1634 14 14 21.1634 14 30C14 31.3812 14.175 32.7215 14.5041 34C16.2802 27.0991 22.5446 22 30 22C37.4554 22 43.7198 27.0991 45.4959 34Z" fill="#0CF86A"/>
<path d="M45.4959 34L43.5591 34.4985L47.4328 34.4985L45.4959 34ZM14.5041 34L12.5672 34.4985L16.4409 34.4985L14.5041 34ZM44 30C44 31.2116 43.8465 32.3845 43.5591 33.5015L47.4328 34.4985C47.8034 33.0585 48 31.5508 48 30H44ZM30 16C37.732 16 44 22.268 44 30H48C48 20.0589 39.9411 12 30 12V16ZM16 30C16 22.268 22.268 16 30 16V12C20.0589 12 12 20.0589 12 30H16ZM16.4409 33.5015C16.1535 32.3845 16 31.2116 16 30H12C12 31.5508 12.1966 33.0585 12.5672 34.4985L16.4409 33.5015ZM16.4409 34.4985C17.9952 28.4598 23.4793 24 30 24V20C21.61 20 14.5653 25.7384 12.5672 33.5015L16.4409 34.4985ZM30 24C36.5207 24 42.0048 28.4598 43.5591 34.4985L47.4328 33.5015C45.4347 25.7384 38.39 20 30 20V24Z" fill="#333333" mask="url(#path-3-inside-1)"/>
<circle cx="25" cy="27" r="1" fill="#333333"/>
<circle cx="35" cy="27" r="1" fill="#333333"/>
<path d="M22 31.8889L30 31L38 31.8889V37.8807L30 39L22 37.8807V31.8889Z" fill="#0CF86A" stroke="#333333" stroke-width="2" stroke-linecap="round" stroke-linejoin="round"/>
<path fill-rule="evenodd" clip-rule="evenodd" d="M30 43C37.1797 43 43 37.1797 43 30C43 22.8203 37.1797 17 30 17C22.8203 17 17 22.8203 17 30C17 37.1797 22.8203 43 30 43ZM30 46C38.8366 46 46 38.8366 46 30C46 21.1634 38.8366 14 30 14C21.1634 14 14 21.1634 14 30C14 38.8366 21.1634 46 30 46Z" fill="#333333"/>
<ellipse cx="30" cy="50.5" rx="9" ry="1.5" fill="black" fill-opacity="0.5"/>
<path fill-rule="evenodd" clip-rule="evenodd" d="M46 8H43V10L41 10V13H43V15H46V13H48V10L46 10V8Z" fill="#FC4949"/>
<path d="M43 8V7.5C42.7239 7.5 42.5 7.72386 42.5 8H43ZM46 8H46.5C46.5 7.72386 46.2761 7.5 46 7.5V8ZM43 10L43 10.5C43.1326 10.5 43.2598 10.4473 43.3536 10.3536C43.4473 10.2598 43.5 10.1326 43.5 10H43ZM41 10L41 9.5C40.8674 9.5 40.7402 9.55268 40.6464 9.64645C40.5527 9.74021 40.5 9.86739 40.5 10H41ZM41 13H40.5C40.5 13.2761 40.7239 13.5 41 13.5V13ZM43 13H43.5C43.5 12.7239 43.2761 12.5 43 12.5V13ZM43 15H42.5C42.5 15.2761 42.7239 15.5 43 15.5V15ZM46 15V15.5C46.2761 15.5 46.5 15.2761 46.5 15H46ZM46 13V12.5C45.7239 12.5 45.5 12.7239 45.5 13H46ZM48 13V13.5C48.2761 13.5 48.5 13.2761 48.5 13H48ZM48 10H48.5C48.5 9.72386 48.2761 9.5 48 9.5L48 10ZM46 10H45.5C45.5 10.2761 45.7239 10.5 46 10.5L46 10ZM43 8.5H46V7.5H43V8.5ZM43.5 10V8H42.5V10H43.5ZM41 10.5L43 10.5L43 9.5L41 9.5L41 10.5ZM41.5 13V10H40.5V13H41.5ZM43 12.5H41V13.5H43V12.5ZM43.5 15V13H42.5V15H43.5ZM46 14.5H43V15.5H46V14.5ZM45.5 13V15H46.5V13H45.5ZM48 12.5H46V13.5H48V12.5ZM47.5 10V13H48.5V10H47.5ZM46 10.5L48 10.5L48 9.5L46 9.5L46 10.5ZM45.5 8V10H46.5V8H45.5Z" fill="#333333"/>
<path fill-rule="evenodd" clip-rule="evenodd" d="M11 19H8V21L6 21V24H8V26H11V24H13V21L11 21V19Z" fill="#FC4949"/>
<path d="M8 19V18.5C7.72386 18.5 7.5 18.7239 7.5 19H8ZM11 19H11.5C11.5 18.7239 11.2761 18.5 11 18.5V19ZM8 21L8 21.5C8.13261 21.5 8.25979 21.4473 8.35355 21.3536C8.44732 21.2598 8.5 21.1326 8.5 21H8ZM6 21L6 20.5C5.86739 20.5 5.74021 20.5527 5.64645 20.6464C5.55268 20.7402 5.5 20.8674 5.5 21H6ZM6 24H5.5C5.5 24.2761 5.72386 24.5 6 24.5V24ZM8 24H8.5C8.5 23.7239 8.27614 23.5 8 23.5V24ZM8 26H7.5C7.5 26.2761 7.72386 26.5 8 26.5V26ZM11 26V26.5C11.2761 26.5 11.5 26.2761 11.5 26H11ZM11 24V23.5C10.7239 23.5 10.5 23.7239 10.5 24H11ZM13 24V24.5C13.2761 24.5 13.5 24.2761 13.5 24H13ZM13 21H13.5C13.5 20.7239 13.2761 20.5 13 20.5L13 21ZM11 21H10.5C10.5 21.2761 10.7239 21.5 11 21.5L11 21ZM8 19.5H11V18.5H8V19.5ZM8.5 21V19H7.5V21H8.5ZM6 21.5L8 21.5L8 20.5L6 20.5L6 21.5ZM6.5 24V21H5.5V24H6.5ZM8 23.5H6V24.5H8V23.5ZM8.5 26V24H7.5V26H8.5ZM11 25.5H8V26.5H11V25.5ZM10.5 24V26H11.5V24H10.5ZM13 23.5H11V24.5H13V23.5ZM12.5 21V24H13.5V21H12.5ZM11 21.5L13 21.5L13 20.5L11 20.5L11 21.5ZM10.5 19V21H11.5V19H10.5Z" fill="#333333"/>
<path fill-rule="evenodd" clip-rule="evenodd" d="M20 7H17V9L15 9V12H17V14H20V12H22V9L20 9V7Z" fill="#FC4949"/>
<path d="M17 7V6.5C16.7239 6.5 16.5 6.72386 16.5 7H17ZM20 7H20.5C20.5 6.72386 20.2761 6.5 20 6.5V7ZM17 9L17 9.5C17.1326 9.5 17.2598 9.44732 17.3536 9.35355C17.4473 9.25978 17.5 9.13261 17.5 9H17ZM15 9L15 8.5C14.8674 8.5 14.7402 8.55268 14.6464 8.64645C14.5527 8.74021 14.5 8.86739 14.5 9H15ZM15 12H14.5C14.5 12.2761 14.7239 12.5 15 12.5V12ZM17 12H17.5C17.5 11.7239 17.2761 11.5 17 11.5V12ZM17 14H16.5C16.5 14.2761 16.7239 14.5 17 14.5V14ZM20 14V14.5C20.2761 14.5 20.5 14.2761 20.5 14H20ZM20 12V11.5C19.7239 11.5 19.5 11.7239 19.5 12H20ZM22 12V12.5C22.2761 12.5 22.5 12.2761 22.5 12H22ZM22 9H22.5C22.5 8.72386 22.2761 8.5 22 8.5L22 9ZM20 9H19.5C19.5 9.27614 19.7239 9.5 20 9.5L20 9ZM17 7.5H20V6.5H17V7.5ZM17.5 9V7H16.5V9H17.5ZM15 9.5L17 9.5L17 8.5L15 8.5L15 9.5ZM15.5 12V9H14.5V12H15.5ZM17 11.5H15V12.5H17V11.5ZM17.5 14V12H16.5V14H17.5ZM20 13.5H17V14.5H20V13.5ZM19.5 12V14H20.5V12H19.5ZM22 11.5H20V12.5H22V11.5ZM21.5 9V12H22.5V9H21.5ZM20 9.5L22 9.5L22 8.5L20 8.5L20 9.5ZM19.5 7V9H20.5V7H19.5Z" fill="#333333"/>
</svg>
