<svg width="777" height="777" viewBox="0 0 777 777" fill="none" xmlns="http://www.w3.org/2000/svg">
<path d="M255.222 451.595C255.222 451.595 245.722 271.595 255.222 252.595C264.722 233.594 513.722 252.595 519.222 283.595C524.722 314.595 530.222 507.094 519.222 526.095C508.222 545.095 255.222 512.095 255.222 512.095" stroke="black" stroke-width="40" stroke-linecap="round" stroke-linejoin="round"/>
<path d="M351.781 324.319C334.263 313.955 296.546 312 295.106 324.993C293.667 337.987 337.41 456.991 361.828 451.628C386.246 446.264 699.76 204.883 691.396 187.779C683.032 170.675 638.031 162.854 624.462 169.718C610.894 176.582 381.884 368.397 375.86 368.686C369.836 368.975 362.028 330.381 351.781 324.319Z" fill="#DF2626"/>
</svg>
