<svg width="522" height="522" viewBox="0 0 522 522" fill="none" xmlns="http://www.w3.org/2000/svg">
<path d="M128.222 343.261C128.222 343.261 118.722 163.262 128.222 144.261C137.722 125.261 386.722 102.167 392.222 133.167C397.722 164.167 403.222 362.166 392.222 381.167C381.222 400.167 128.222 403.761 128.222 403.761" stroke="black" stroke-width="40" stroke-linecap="round" stroke-linejoin="round"/>
<path d="M229.338 200.792C215.951 191.833 187.127 190.143 186.026 201.376C184.926 212.608 218.355 315.485 237.016 310.848C255.676 306.211 495.266 97.5429 488.874 82.757C482.482 67.9712 448.093 61.2104 437.723 67.1439C427.354 73.0774 252.343 238.897 247.739 239.147C243.136 239.397 237.168 206.033 229.338 200.792Z" fill="#E64545"/>
</svg>
