<svg width="456" height="456" viewBox="0 0 456 456" fill="none" xmlns="http://www.w3.org/2000/svg">
<path d="M95.2222 310.261C95.2222 310.261 85.7222 130.262 95.2222 111.261C104.722 92.261 353.722 69.1667 359.222 100.167C364.722 131.167 370.222 329.166 359.222 348.167C348.222 367.167 95.2222 370.761 95.2222 370.761" stroke="black" stroke-width="40" stroke-linecap="round" stroke-linejoin="round"/>
<path d="M196.338 167.792C182.951 158.833 154.127 157.143 153.026 168.376C151.926 179.608 185.355 282.485 204.016 277.848C222.676 273.211 462.266 64.5429 455.874 49.757C449.482 34.9712 415.093 28.2104 404.723 34.1439C394.354 40.0774 219.343 205.897 214.739 206.147C210.136 206.397 204.168 173.033 196.338 167.792Z" fill="#E64545"/>
</svg>
