<svg width="3596" height="3596" viewBox="0 0 3596 3596" fill="none" xmlns="http://www.w3.org/2000/svg">
<circle cx="1798" cy="1798" r="1798" fill="#E64545"/>
<mask id="path-4-outside-1" maskUnits="userSpaceOnUse" x="1016" y="776.904" width="1537" height="2080" fill="black">
<rect fill="white" x="1016" y="776.904" width="1537" height="2080"/>
<path fill-rule="evenodd" clip-rule="evenodd" d="M2223.73 816.904H1056V2816H2512.1V1083.25L2223.73 816.904Z"/>
</mask>
<path fill-rule="evenodd" clip-rule="evenodd" d="M2223.73 816.904H1056V2816H2512.1V1083.25L2223.73 816.904Z" fill="white"/>
<path d="M1056 816.904V776.904C1033.91 776.904 1016 794.813 1016 816.904H1056ZM2223.73 816.904L2250.87 787.52C2243.48 780.695 2233.79 776.904 2223.73 776.904V816.904ZM1056 2816H1016C1016 2838.09 1033.91 2856 1056 2856V2816ZM2512.1 2816V2856C2534.19 2856 2552.1 2838.09 2552.1 2816H2512.1ZM2512.1 1083.25H2552.1C2552.1 1072.09 2547.44 1061.43 2539.24 1053.86L2512.1 1083.25ZM1056 856.904H2223.73V776.904H1056V856.904ZM1096 2816V816.904H1016V2816H1096ZM2512.1 2776H1056V2856H2512.1V2776ZM2472.1 1083.25V2816H2552.1V1083.25H2472.1ZM2539.24 1053.86L2250.87 787.52L2196.59 846.289L2484.96 1112.63L2539.24 1053.86Z" fill="black" mask="url(#path-4-outside-1)"/>
<line x1="2216.43" y1="802" x2="2216.43" y2="1080.25" stroke="black" stroke-width="40" stroke-linecap="round" stroke-linejoin="round"/>
<line x1="2216.43" y1="1080.25" x2="2521" y2="1080.25" stroke="black" stroke-width="40" stroke-linecap="round" stroke-linejoin="round"/>
<path d="M1231.22 1468.26C1231.22 1468.26 1221.72 1288.26 1231.22 1269.26C1240.72 1250.26 1489.72 1227.17 1495.22 1258.17C1500.72 1289.17 1506.22 1487.17 1495.22 1506.17C1484.22 1525.17 1231.22 1528.76 1231.22 1528.76" stroke="black" stroke-width="40" stroke-linecap="round" stroke-linejoin="round"/>
<path d="M1661.54 1247.18C1661.54 1247.18 1633.05 1382.16 1674.54 1395.29C1716.03 1408.42 2165.95 1402.27 2255.93 1395.29C2345.92 1388.32 2358.42 1263.59 2345.92 1231.17C2333.42 1198.76 1726.03 1247.18 1726.03 1247.18" stroke="black" stroke-width="40" stroke-linecap="round" stroke-linejoin="round"/>
<path d="M1231.22 1990.26C1231.22 1990.26 1221.72 1810.26 1231.22 1791.26C1240.72 1772.26 1489.72 1749.17 1495.22 1780.17C1500.72 1811.17 1506.22 2009.17 1495.22 2028.17C1484.22 2047.17 1231.22 2050.76 1231.22 2050.76" stroke="black" stroke-width="40" stroke-linecap="round" stroke-linejoin="round"/>
<path d="M1661.54 1769.18C1661.54 1769.18 1633.05 1904.16 1674.54 1917.29C1716.03 1930.42 2165.95 1924.27 2255.93 1917.29C2345.92 1910.32 2358.42 1785.59 2345.92 1753.17C2333.42 1720.76 1726.03 1769.18 1726.03 1769.18" stroke="black" stroke-width="40" stroke-linecap="round" stroke-linejoin="round"/>
<path d="M1231.22 2512.26C1231.22 2512.26 1221.72 2332.26 1231.22 2313.26C1240.72 2294.26 1489.72 2271.17 1495.22 2302.17C1500.72 2333.17 1506.22 2531.17 1495.22 2550.17C1484.22 2569.17 1231.22 2572.76 1231.22 2572.76" stroke="black" stroke-width="40" stroke-linecap="round" stroke-linejoin="round"/>
<path d="M1661.54 2291.18C1661.54 2291.18 1633.05 2426.16 1674.54 2439.29C1716.03 2452.42 2165.95 2446.27 2255.93 2439.29C2345.92 2432.32 2358.42 2307.59 2345.92 2275.17C2333.42 2242.76 1726.03 2291.18 1726.03 2291.18" stroke="black" stroke-width="40" stroke-linecap="round" stroke-linejoin="round"/>
</svg>
