<svg width="486" height="486" viewBox="0 0 486 486" fill="none" xmlns="http://www.w3.org/2000/svg">
<path d="M27.2222 345.357C27.2222 345.357 17.7222 165.357 27.2222 146.357C36.7222 127.356 285.722 146.357 291.222 177.357C296.722 208.357 302.222 400.856 291.222 419.857C280.222 438.857 27.2222 405.857 27.2222 405.857" stroke="black" stroke-width="40" stroke-linecap="round" stroke-linejoin="round"/>
<path d="M123.781 218.081C106.263 207.716 68.5458 205.762 67.1062 218.755C65.6666 231.749 109.41 350.753 133.828 345.389C158.246 340.026 471.76 98.6446 463.396 81.5408C455.031 64.437 410.031 56.6163 396.462 63.48C382.894 70.3437 153.884 262.158 147.86 262.448C141.836 262.737 134.027 224.143 123.781 218.081Z" fill="#E64545"/>
</svg>
