<svg width="3596" height="3596" viewBox="0 0 3596 3596" fill="none" xmlns="http://www.w3.org/2000/svg">
<circle cx="1798" cy="1798" r="1798" fill="#E64545"/>
<mask id="path-4-outside-1" maskUnits="userSpaceOnUse" x="1308" y="528.904" width="1537" height="2080" fill="black">
<rect fill="white" x="1308" y="528.904" width="1537" height="2080"/>
<path fill-rule="evenodd" clip-rule="evenodd" d="M2515.73 568.904H1348V2568H2804.1V835.245L2515.73 568.904Z"/>
</mask>
<path fill-rule="evenodd" clip-rule="evenodd" d="M2515.73 568.904H1348V2568H2804.1V835.245L2515.73 568.904Z" fill="white"/>
<path d="M1348 568.904V528.904C1325.91 528.904 1308 546.813 1308 568.904H1348ZM2515.73 568.904L2542.87 539.52C2535.48 532.695 2525.79 528.904 2515.73 528.904V568.904ZM1348 2568H1308C1308 2590.09 1325.91 2608 1348 2608V2568ZM2804.1 2568V2608C2826.19 2608 2844.1 2590.09 2844.1 2568H2804.1ZM2804.1 835.245H2844.1C2844.1 824.085 2839.44 813.433 2831.24 805.861L2804.1 835.245ZM1348 608.904H2515.73V528.904H1348V608.904ZM1388 2568V568.904H1308V2568H1388ZM2804.1 2528H1348V2608H2804.1V2528ZM2764.1 835.245V2568H2844.1V835.245H2764.1ZM2831.24 805.861L2542.87 539.52L2488.59 598.289L2776.96 864.63L2831.24 805.861Z" fill="black" mask="url(#path-4-outside-1)"/>
<line x1="2508.43" y1="554" x2="2508.43" y2="832.246" stroke="black" stroke-width="40" stroke-linecap="round" stroke-linejoin="round"/>
<line x1="2508.43" y1="832.246" x2="2813" y2="832.246" stroke="black" stroke-width="40" stroke-linecap="round" stroke-linejoin="round"/>
<mask id="path-9-outside-2" maskUnits="userSpaceOnUse" x="1162" y="652.904" width="1537" height="2080" fill="black">
<rect fill="white" x="1162" y="652.904" width="1537" height="2080"/>
<path fill-rule="evenodd" clip-rule="evenodd" d="M2369.73 692.904H1202V2692H2658.1V959.245L2369.73 692.904Z"/>
</mask>
<path fill-rule="evenodd" clip-rule="evenodd" d="M2369.73 692.904H1202V2692H2658.1V959.245L2369.73 692.904Z" fill="white"/>
<path d="M1202 692.904V652.904C1179.91 652.904 1162 670.813 1162 692.904H1202ZM2369.73 692.904L2396.87 663.52C2389.48 656.695 2379.79 652.904 2369.73 652.904V692.904ZM1202 2692H1162C1162 2714.09 1179.91 2732 1202 2732V2692ZM2658.1 2692V2732C2680.19 2732 2698.1 2714.09 2698.1 2692H2658.1ZM2658.1 959.245H2698.1C2698.1 948.085 2693.44 937.433 2685.24 929.861L2658.1 959.245ZM1202 732.904H2369.73V652.904H1202V732.904ZM1242 2692V692.904H1162V2692H1242ZM2658.1 2652H1202V2732H2658.1V2652ZM2618.1 959.245V2692H2698.1V959.245H2618.1ZM2685.24 929.861L2396.87 663.52L2342.59 722.289L2630.96 988.63L2685.24 929.861Z" fill="black" mask="url(#path-9-outside-2)"/>
<line x1="2362.43" y1="678" x2="2362.43" y2="956.246" stroke="black" stroke-width="40" stroke-linecap="round" stroke-linejoin="round"/>
<line x1="2362.43" y1="956.246" x2="2667" y2="956.246" stroke="black" stroke-width="40" stroke-linecap="round" stroke-linejoin="round"/>
<mask id="path-14-outside-3" maskUnits="userSpaceOnUse" x="1016" y="776.904" width="1537" height="2080" fill="black">
<rect fill="white" x="1016" y="776.904" width="1537" height="2080"/>
<path fill-rule="evenodd" clip-rule="evenodd" d="M2223.73 816.904H1056V2816H2512.1V1083.25L2223.73 816.904Z"/>
</mask>
<path fill-rule="evenodd" clip-rule="evenodd" d="M2223.73 816.904H1056V2816H2512.1V1083.25L2223.73 816.904Z" fill="white"/>
<path d="M1056 816.904V776.904C1033.91 776.904 1016 794.813 1016 816.904H1056ZM2223.73 816.904L2250.87 787.52C2243.48 780.695 2233.79 776.904 2223.73 776.904V816.904ZM1056 2816H1016C1016 2838.09 1033.91 2856 1056 2856V2816ZM2512.1 2816V2856C2534.19 2856 2552.1 2838.09 2552.1 2816H2512.1ZM2512.1 1083.25H2552.1C2552.1 1072.09 2547.44 1061.43 2539.24 1053.86L2512.1 1083.25ZM1056 856.904H2223.73V776.904H1056V856.904ZM1096 2816V816.904H1016V2816H1096ZM2512.1 2776H1056V2856H2512.1V2776ZM2472.1 1083.25V2816H2552.1V1083.25H2472.1ZM2539.24 1053.86L2250.87 787.52L2196.59 846.289L2484.96 1112.63L2539.24 1053.86Z" fill="black" mask="url(#path-14-outside-3)"/>
<line x1="2216.43" y1="802" x2="2216.43" y2="1080.25" stroke="black" stroke-width="40" stroke-linecap="round" stroke-linejoin="round"/>
<line x1="2216.43" y1="1080.25" x2="2521" y2="1080.25" stroke="black" stroke-width="40" stroke-linecap="round" stroke-linejoin="round"/>
<path d="M1231.22 1468.26C1231.22 1468.26 1221.72 1288.26 1231.22 1269.26C1240.72 1250.26 1489.72 1227.17 1495.22 1258.17C1500.72 1289.17 1506.22 1487.17 1495.22 1506.17C1484.22 1525.17 1231.22 1528.76 1231.22 1528.76" stroke="black" stroke-width="40" stroke-linecap="round" stroke-linejoin="round"/>
<path d="M1332.34 1325.79C1318.95 1316.83 1290.13 1315.14 1289.03 1326.38C1287.93 1337.61 1321.36 1440.48 1340.02 1435.85C1358.68 1431.21 1598.27 1222.54 1591.87 1207.76C1585.48 1192.97 1551.09 1186.21 1540.72 1192.14C1530.35 1198.08 1355.34 1363.9 1350.74 1364.15C1346.14 1364.4 1340.17 1331.03 1332.34 1325.79Z" fill="#E64545"/>
<path d="M1661.54 1247.18C1661.54 1247.18 1633.05 1382.16 1674.54 1395.29C1716.03 1408.42 2165.95 1402.27 2255.93 1395.29C2345.92 1388.32 2358.42 1263.59 2345.92 1231.17C2333.42 1198.76 1726.03 1247.18 1726.03 1247.18" stroke="black" stroke-width="40" stroke-linecap="round" stroke-linejoin="round"/>
<path d="M1231.22 1990.26C1231.22 1990.26 1221.72 1810.26 1231.22 1791.26C1240.72 1772.26 1489.72 1749.17 1495.22 1780.17C1500.72 1811.17 1506.22 2009.17 1495.22 2028.17C1484.22 2047.17 1231.22 2050.76 1231.22 2050.76" stroke="black" stroke-width="40" stroke-linecap="round" stroke-linejoin="round"/>
<path d="M1332.34 1847.79C1318.95 1838.83 1290.13 1837.14 1289.03 1848.38C1287.93 1859.61 1321.36 1962.48 1340.02 1957.85C1358.68 1953.21 1598.27 1744.54 1591.87 1729.76C1585.48 1714.97 1551.09 1708.21 1540.72 1714.14C1530.35 1720.08 1355.34 1885.9 1350.74 1886.15C1346.14 1886.4 1340.17 1853.03 1332.34 1847.79Z" fill="#E64545"/>
<path d="M1661.54 1769.18C1661.54 1769.18 1633.05 1904.16 1674.54 1917.29C1716.03 1930.42 2165.95 1924.27 2255.93 1917.29C2345.92 1910.32 2358.42 1785.59 2345.92 1753.17C2333.42 1720.76 1726.03 1769.18 1726.03 1769.18" stroke="black" stroke-width="40" stroke-linecap="round" stroke-linejoin="round"/>
<path d="M1231.22 2512.26C1231.22 2512.26 1221.72 2332.26 1231.22 2313.26C1240.72 2294.26 1489.72 2271.17 1495.22 2302.17C1500.72 2333.17 1506.22 2531.17 1495.22 2550.17C1484.22 2569.17 1231.22 2572.76 1231.22 2572.76" stroke="black" stroke-width="40" stroke-linecap="round" stroke-linejoin="round"/>
<path d="M1661.54 2291.18C1661.54 2291.18 1633.05 2426.16 1674.54 2439.29C1716.03 2452.42 2165.95 2446.27 2255.93 2439.29C2345.92 2432.32 2358.42 2307.59 2345.92 2275.17C2333.42 2242.76 1726.03 2291.18 1726.03 2291.18" stroke="black" stroke-width="40" stroke-linecap="round" stroke-linejoin="round"/>
</svg>
