<svg width="2905" height="491" viewBox="0 0 2905 491" fill="none" xmlns="http://www.w3.org/2000/svg">
<path d="M585.439 490.545C565.908 490.545 547.354 487.859 529.775 482.488C512.36 477.117 496.41 469.305 481.924 459.051C457.021 440.984 438.06 418.035 425.039 390.203C412.018 362.371 405.508 330.633 405.508 294.988C405.508 273.829 408.519 253.484 414.541 233.953C420.563 214.422 429.189 196.925 440.42 181.463C456.696 159.49 476.634 142.4 500.234 130.193C523.997 117.986 549.225 111.883 575.918 111.883C592.52 111.883 609.772 114.243 627.676 118.963C645.579 123.683 655.182 126.043 656.484 126.043C659.902 126.043 664.215 125.392 669.424 124.09C674.795 122.625 678.294 121.893 679.922 121.893C687.083 121.893 693.024 127.996 697.744 140.203C702.627 152.41 705.068 167.872 705.068 186.59C705.068 193.426 703.848 198.715 701.406 202.459C699.128 206.202 695.791 208.074 691.396 208.074C685.049 208.074 679.434 202.133 674.551 190.252C671.296 182.277 668.285 176.336 665.518 172.43C657.542 161.362 645.986 152.898 630.85 147.039C615.876 141.017 598.46 138.006 578.604 138.006C540.029 138.006 509.674 150.62 487.539 175.848C465.566 201.076 454.58 235.825 454.58 280.096C454.58 302.557 457.184 324.122 462.393 344.793C467.764 365.301 475.332 383.367 485.098 398.992C498.118 419.826 513.418 435.288 530.996 445.379C548.574 455.47 568.919 460.516 592.031 460.516C609.284 460.516 624.99 457.667 639.15 451.971C653.311 446.274 664.785 438.299 673.574 428.045C676.667 424.301 680.329 419.174 684.561 412.664C690.42 403.549 695.384 398.992 699.453 398.992C703.197 398.992 706.126 400.783 708.242 404.363C710.358 407.781 711.416 412.501 711.416 418.523C711.416 430.405 708.73 441.31 703.359 451.238C698.151 461.004 692.699 465.887 687.002 465.887C686.514 465.887 685.7 465.724 684.561 465.398C683.421 465.073 682.607 464.91 682.119 464.91C679.84 464.91 676.504 466.131 672.109 468.572C669.993 469.549 668.285 470.363 666.982 471.014C653.962 477.687 640.941 482.57 627.92 485.662C614.899 488.917 600.739 490.545 585.439 490.545ZM800.039 264.471C800.039 267.4 800.283 269.354 800.771 270.33C801.26 271.144 801.992 271.551 802.969 271.551C805.247 271.551 808.584 268.54 812.979 262.518C816.559 257.472 819.57 253.647 822.012 251.043C829.661 242.254 838.532 235.743 848.623 231.512C858.714 227.117 870.189 224.92 883.047 224.92C906.322 224.92 924.876 230.942 938.711 242.986C952.708 254.868 962.474 273.178 968.008 297.918C968.984 302.312 969.717 307.846 970.205 314.52C970.693 321.03 970.938 329.819 970.938 340.887C970.938 344.467 970.856 350.245 970.693 358.221C970.531 366.196 970.449 372.462 970.449 377.02C970.449 387.436 970.775 404.77 971.426 429.021C971.426 430.975 971.426 432.439 971.426 433.416C972.077 441.229 973.053 446.6 974.355 449.529C975.658 452.296 977.936 454.656 981.191 456.609C982.493 457.423 985.016 458.318 988.76 459.295C996.572 461.411 1000.48 464.666 1000.48 469.061C1000.48 474.269 996.654 478.094 989.004 480.535C981.354 482.814 968.822 483.953 951.406 483.953C934.154 483.953 921.702 482.814 914.053 480.535C906.403 478.094 902.578 474.269 902.578 469.061C902.578 464.829 906.322 461.574 913.809 459.295C921.296 456.854 926.016 454.087 927.969 450.994C929.596 448.39 930.736 441.147 931.387 429.266C932.038 417.384 932.363 389.145 932.363 344.549C932.363 313.624 927.969 291.57 919.18 278.387C910.553 265.203 896.312 258.611 876.455 258.611C863.597 258.611 851.634 261.46 840.566 267.156C829.499 272.853 819.652 281.316 811.025 292.547C807.119 297.267 804.352 302.557 802.725 308.416C801.26 314.275 800.527 322.983 800.527 334.539V352.605C800.527 389.227 800.853 414.129 801.504 427.312C802.155 440.333 803.294 448.227 804.922 450.994C806.875 454.087 811.595 456.854 819.082 459.295C826.732 461.574 830.557 464.829 830.557 469.061C830.557 474.269 826.65 478.094 818.838 480.535C811.188 482.814 798.737 483.953 781.484 483.953C764.069 483.953 751.455 482.814 743.643 480.535C735.83 478.094 731.924 474.269 731.924 469.061C731.924 464.829 735.667 461.574 743.154 459.295C750.804 456.854 755.605 454.087 757.559 450.994C759.349 448.064 760.57 438.543 761.221 422.43C762.035 406.316 762.441 374.66 762.441 327.459C762.441 263.657 761.872 219.793 760.732 195.867C759.756 171.779 757.965 157.781 755.361 153.875C754.059 151.759 749.014 150.132 740.225 148.992C731.436 147.69 727.041 144.191 727.041 138.494C727.041 135.402 728.506 132.553 731.436 129.949C734.365 127.345 739.004 124.66 745.352 121.893C753.978 118.637 762.441 116.033 770.742 114.08C779.206 111.964 785.309 110.906 789.053 110.906C793.936 110.906 797.272 112.208 799.062 114.812C801.016 117.254 801.992 121.974 801.992 128.973C801.992 131.089 801.829 136.704 801.504 145.818C800.527 180.161 800.039 212.713 800.039 243.475V264.471ZM1081.53 325.506H1205.07C1208.81 325.506 1211.33 324.855 1212.64 323.553C1213.94 322.088 1214.59 319.402 1214.59 315.496C1214.59 296.453 1208.16 280.665 1195.3 268.133C1182.44 255.438 1166.17 249.09 1146.47 249.09C1136.06 249.09 1126.13 251.368 1116.69 255.926C1107.41 260.483 1099.19 266.993 1092.03 275.457C1086.33 282.293 1081.7 289.699 1078.12 297.674C1074.7 305.649 1072.99 312.566 1072.99 318.426C1072.99 321.03 1073.56 322.902 1074.7 324.041C1076 325.018 1078.28 325.506 1081.53 325.506ZM1234.61 346.502H1080.56C1077.3 346.502 1075.02 347.153 1073.72 348.455C1072.58 349.757 1072.01 352.28 1072.01 356.023C1072.01 386.46 1080.07 411.443 1096.18 430.975C1112.29 450.343 1132.88 460.027 1157.95 460.027C1167.71 460.027 1177.15 458.4 1186.27 455.145C1195.55 451.889 1203.93 447.169 1211.42 440.984C1215.32 437.892 1220.69 432.439 1227.53 424.627C1234.53 416.814 1240.39 412.908 1245.11 412.908C1247.87 412.908 1250.15 413.803 1251.94 415.594C1253.73 417.221 1254.63 419.337 1254.63 421.941C1254.63 425.522 1253.49 429.51 1251.21 433.904C1249.1 438.136 1246 442.531 1241.93 447.088C1229.73 460.597 1215.57 470.932 1199.45 478.094C1183.5 485.092 1166.33 488.592 1147.94 488.592C1113.11 488.592 1084.22 476.548 1061.27 452.459C1038.48 428.208 1027.09 397.69 1027.09 360.906C1027.09 321.844 1039.05 289.536 1062.98 263.982C1086.9 238.266 1116.93 225.408 1153.07 225.408C1184.32 225.408 1209.14 234.197 1227.53 251.775C1245.92 269.354 1255.12 293.117 1255.12 323.064C1255.12 332.83 1254.06 339.178 1251.94 342.107C1249.83 345.037 1244.05 346.502 1234.61 346.502ZM1495.11 311.102C1489.57 311.102 1484.77 309.311 1480.7 305.73C1476.63 302.15 1472.16 295.232 1467.28 284.979C1461.25 272.446 1454.5 263.331 1447.01 257.635C1439.52 251.938 1430.41 249.09 1419.67 249.09C1393.95 249.09 1373.77 258.123 1359.12 276.189C1344.47 294.093 1337.15 318.995 1337.15 350.896C1337.15 382.309 1345.53 408.107 1362.29 428.289C1379.06 448.471 1400.38 458.562 1426.26 458.562C1434.56 458.562 1442.78 457.179 1450.92 454.412C1459.22 451.645 1467.28 447.495 1475.09 441.961C1479.16 439.194 1484.77 434.23 1491.93 427.068C1499.1 419.744 1504.87 416.082 1509.27 416.082C1512.03 416.082 1514.31 416.977 1516.1 418.768C1517.89 420.558 1518.79 422.999 1518.79 426.092C1518.79 429.673 1517.49 433.742 1514.88 438.299C1512.44 442.856 1508.86 447.576 1504.14 452.459C1492.91 464.34 1479.73 473.374 1464.59 479.559C1449.62 485.581 1433.34 488.592 1415.76 488.592C1379.3 488.592 1349.68 476.71 1326.89 452.947C1304.11 429.184 1292.71 398.341 1292.71 360.418C1292.71 321.844 1304.76 289.78 1328.85 264.227C1353.1 238.673 1383.37 225.896 1419.67 225.896C1446.04 225.896 1468.82 232.326 1488.03 245.184C1507.4 258.042 1517.08 272.12 1517.08 287.42C1517.08 294.256 1514.96 299.952 1510.73 304.51C1506.66 308.904 1501.46 311.102 1495.11 311.102ZM1605.7 381.902C1605.7 404.363 1606.03 420.883 1606.68 431.463C1607.33 442.042 1608.47 448.553 1610.1 450.994C1612.05 454.087 1616.77 456.854 1624.26 459.295C1631.91 461.574 1635.73 464.829 1635.73 469.061C1635.73 474.269 1631.83 478.094 1624.01 480.535C1616.36 482.814 1603.91 483.953 1586.66 483.953C1569.24 483.953 1556.63 482.814 1548.82 480.535C1541.01 478.094 1537.1 474.269 1537.1 469.061C1537.1 464.829 1540.84 461.574 1548.33 459.295C1555.98 456.854 1560.78 454.087 1562.73 450.994C1564.52 448.064 1565.75 438.543 1566.4 422.43C1567.21 406.316 1567.62 374.66 1567.62 327.459C1567.62 263.657 1567.05 219.793 1565.91 195.867C1564.93 171.779 1563.14 157.781 1560.54 153.875C1559.24 151.759 1554.19 150.132 1545.4 148.992C1536.61 147.69 1532.22 144.191 1532.22 138.494C1532.22 135.402 1533.68 132.553 1536.61 129.949C1539.54 127.345 1544.18 124.66 1550.53 121.893C1559.15 118.637 1567.62 116.033 1575.92 114.08C1584.38 111.964 1590.49 110.906 1594.23 110.906C1599.11 110.906 1602.45 112.208 1604.24 114.812C1606.19 117.254 1607.17 121.974 1607.17 128.973C1607.17 130.438 1606.68 148.829 1605.7 184.148C1604.73 219.305 1604.24 253.729 1604.24 287.42C1604.24 307.602 1604.48 319.972 1604.97 324.529C1605.62 329.087 1606.68 331.447 1608.14 331.609C1610.75 331.609 1614.9 329.412 1620.6 325.018C1626.46 320.46 1633.62 313.95 1642.08 305.486C1656.24 291.652 1665.84 281.561 1670.89 275.213C1676.1 268.865 1678.7 264.145 1678.7 261.053C1678.7 257.309 1675.12 254.217 1667.96 251.775C1660.8 249.334 1657.22 246.242 1657.22 242.498C1657.22 237.615 1661.53 234.116 1670.16 232C1678.78 229.721 1693.11 228.582 1713.12 228.582C1730.21 228.582 1742.58 229.64 1750.23 231.756C1757.88 233.709 1761.71 236.964 1761.71 241.521C1761.71 245.59 1755.28 249.66 1742.42 253.729C1729.56 257.798 1718.66 263.25 1709.71 270.086C1694.41 281.642 1680.57 294.093 1668.2 307.439C1655.83 320.623 1649.65 328.517 1649.65 331.121C1649.65 332.098 1650.38 333.888 1651.85 336.492C1653.31 339.096 1655.91 342.921 1659.66 347.967C1678.54 373.357 1695.95 395.33 1711.9 413.885C1727.85 432.277 1740.47 445.135 1749.75 452.459C1754.63 456.528 1761.95 459.376 1771.72 461.004C1781.65 462.632 1786.61 465.805 1786.61 470.525C1786.61 475.083 1782.54 478.663 1774.4 481.268C1766.27 483.709 1754.71 484.93 1739.74 484.93C1731.11 484.93 1724.52 483.79 1719.96 481.512C1715.4 479.233 1709.14 473.536 1701.16 464.422C1696.93 459.702 1686.92 446.762 1671.13 425.604C1655.51 404.445 1641.18 386.215 1628.16 370.916C1622.3 364.08 1618.15 359.604 1615.71 357.488C1613.43 355.21 1611.73 354.07 1610.59 354.07C1608.8 354.07 1607.49 355.047 1606.68 357C1606.03 358.79 1605.7 362.941 1605.7 369.451V381.902ZM1851.8 264.471C1851.8 267.4 1852.04 269.354 1852.53 270.33C1853.02 271.144 1853.75 271.551 1854.73 271.551C1857.01 271.551 1860.18 268.784 1864.25 263.25C1866.04 260.809 1867.34 259.018 1868.15 257.879C1877.11 246.811 1886.63 238.592 1896.72 233.221C1906.81 227.687 1917.8 224.92 1929.68 224.92C1941.72 224.92 1952.71 227.361 1962.64 232.244C1972.57 236.964 1981.11 243.882 1988.27 252.996C1991.2 256.74 1994.05 261.46 1996.82 267.156C1999.58 272.69 2001.7 275.457 2003.16 275.457C2005.93 275.457 2009.35 272.283 2013.42 265.936C2016.02 261.867 2018.3 258.53 2020.25 255.926C2028.72 245.184 2037.91 237.371 2047.84 232.488C2057.93 227.443 2069.57 224.92 2082.75 224.92C2100.33 224.92 2115.63 229.07 2128.65 237.371C2141.84 245.509 2151.19 256.902 2156.73 271.551C2160.15 280.34 2162.59 290.512 2164.05 302.068C2165.52 313.624 2166.25 330.063 2166.25 351.385V394.598C2166.25 416.733 2166.74 431.626 2167.71 439.275C2168.69 446.925 2170.32 451.808 2172.6 453.924C2174.39 455.551 2178.7 457.423 2185.54 459.539C2192.37 461.655 2195.79 464.829 2195.79 469.061C2195.79 474.269 2191.88 478.094 2184.07 480.535C2176.42 482.814 2163.97 483.953 2146.72 483.953C2129.47 483.953 2116.93 482.814 2109.12 480.535C2101.47 478.094 2097.65 474.269 2097.65 469.061C2097.65 464.829 2101.39 461.574 2108.88 459.295C2116.53 456.854 2121.33 454.087 2123.28 450.994C2124.91 448.064 2126.05 439.52 2126.7 425.359C2127.35 411.199 2127.68 384.262 2127.68 344.549C2127.68 313.787 2123.85 291.814 2116.2 278.631C2108.55 265.285 2096.1 258.611 2078.85 258.611C2066.8 258.611 2054.68 262.599 2042.47 270.574C2030.26 278.549 2020.82 288.722 2014.15 301.092C2012.2 304.835 2010.81 311.508 2010 321.111C2009.19 330.714 2008.78 348.211 2008.78 373.602V394.598C2008.78 416.733 2009.27 431.626 2010.24 439.275C2011.22 446.925 2012.85 451.808 2015.13 453.924C2016.92 455.551 2021.31 457.423 2028.31 459.539C2035.31 461.655 2038.81 464.829 2038.81 469.061C2038.81 474.269 2034.98 478.094 2027.33 480.535C2019.68 482.814 2007.31 483.953 1990.22 483.953C1973.3 483.953 1961.01 482.814 1953.36 480.535C1945.87 478.094 1942.13 474.269 1942.13 469.061C1942.13 464.829 1945.87 461.574 1953.36 459.295C1961.01 456.854 1965.81 454.087 1967.76 450.994C1969.39 448.39 1970.53 441.147 1971.18 429.266C1971.83 417.384 1972.16 389.145 1972.16 344.549C1972.16 313.787 1968.25 291.814 1960.44 278.631C1952.79 265.285 1940.26 258.611 1922.84 258.611C1910.96 258.611 1898.75 262.68 1886.22 270.818C1873.85 278.956 1864.17 289.21 1857.17 301.58C1855.38 304.835 1854.08 309.148 1853.26 314.52C1852.61 319.891 1852.29 328.924 1852.29 341.619V352.605C1852.29 389.227 1852.61 414.129 1853.26 427.312C1853.91 440.333 1855.05 448.227 1856.68 450.994C1858.63 454.087 1863.35 456.854 1870.84 459.295C1878.49 461.574 1882.31 464.829 1882.31 469.061C1882.31 474.269 1878.41 478.094 1870.6 480.535C1862.95 482.814 1850.49 483.953 1833.24 483.953C1815.83 483.953 1803.21 482.814 1795.4 480.535C1787.59 478.094 1783.68 474.269 1783.68 469.061C1783.68 464.829 1787.43 461.574 1794.91 459.295C1802.56 456.854 1807.36 454.087 1809.32 450.994C1811.11 447.739 1812.33 438.868 1812.98 424.383C1813.79 409.734 1814.2 385.809 1814.2 352.605C1814.2 327.378 1813.63 307.846 1812.49 294.012C1811.51 280.177 1809.97 271.714 1807.85 268.621C1806.39 266.342 1801.34 264.633 1792.71 263.494C1784.09 262.192 1779.78 258.693 1779.78 252.996C1779.78 247.137 1786.61 241.033 1800.28 234.686C1814.12 228.175 1827.3 224.92 1839.83 224.92C1844.23 224.92 1847.32 226.222 1849.11 228.826C1850.9 231.43 1851.8 236.313 1851.8 243.475V264.471ZM2384.76 333.562C2384.92 331.609 2385 329.575 2385 327.459C2385.16 325.343 2385.24 322.169 2385.24 317.938C2385.24 293.035 2381.34 275.213 2373.53 264.471C2365.71 253.566 2353.02 248.113 2335.44 248.113C2326.49 248.113 2318.43 249.822 2311.27 253.24C2304.11 256.658 2297.43 261.948 2291.25 269.109C2289.95 270.737 2287.99 273.26 2285.39 276.678C2277.25 288.234 2269.03 294.012 2260.73 294.012C2255.69 294.012 2251.62 292.465 2248.53 289.373C2245.43 286.281 2243.89 282.13 2243.89 276.922C2243.89 264.878 2253.16 253.566 2271.72 242.986C2290.44 232.407 2311.84 227.117 2335.93 227.117C2366.04 227.117 2388.26 234.604 2402.58 249.578C2417.06 264.552 2424.31 287.827 2424.31 319.402C2424.31 328.517 2424.14 340.643 2423.82 355.779C2423.49 370.916 2423.33 381.495 2423.33 387.518C2423.33 417.14 2424.06 436.02 2425.53 444.158C2427.15 452.133 2429.92 456.121 2433.83 456.121C2435.46 456.121 2437.49 455.877 2439.93 455.389C2442.54 454.738 2444.16 454.412 2444.81 454.412C2447.09 454.412 2448.8 455.145 2449.94 456.609C2451.24 457.911 2451.89 459.702 2451.89 461.98C2451.89 467.677 2448.15 473.455 2440.66 479.314C2433.18 485.174 2425.36 488.104 2417.23 488.104C2407.62 488.104 2397.13 477.687 2385.73 456.854C2384.76 455.063 2383.94 453.598 2383.29 452.459H2379.87C2368.64 463.689 2356.76 471.99 2344.23 477.361C2331.7 482.732 2317.86 485.418 2302.72 485.418C2278.64 485.418 2259.35 478.908 2244.86 465.887C2230.54 452.866 2223.38 435.369 2223.38 413.396C2223.38 387.355 2232.9 367.01 2251.94 352.361C2271.15 337.713 2297.92 330.389 2332.27 330.389C2340.89 330.389 2349.52 330.714 2358.14 331.365C2366.93 331.854 2375.8 332.586 2384.76 333.562ZM2384.76 355.047C2376.13 353.582 2368.15 352.524 2360.83 351.873C2353.67 351.222 2347 350.896 2340.81 350.896C2316.07 350.896 2297.27 355.942 2284.41 366.033C2271.72 376.124 2265.37 390.773 2265.37 409.979C2265.37 425.929 2269.85 438.462 2278.8 447.576C2287.91 456.528 2300.45 461.004 2316.4 461.004C2336.74 461.004 2353.18 454.738 2365.71 442.205C2378.41 429.51 2384.76 412.745 2384.76 391.912V355.047ZM2507.07 262.029H2486.07C2483.63 262.029 2481.76 261.622 2480.46 260.809C2479.16 259.832 2478.51 258.53 2478.51 256.902V250.066C2478.51 245.184 2484.61 235.988 2496.82 222.479C2500.4 218.735 2503.08 215.805 2504.87 213.689C2506.83 211.574 2509.43 208.644 2512.69 204.9C2524.89 190.903 2533.19 183.904 2537.59 183.904C2540.19 183.904 2542.15 184.555 2543.45 185.857C2544.91 187.16 2545.64 189.031 2545.64 191.473V235.906H2595.94C2599.19 235.906 2601.47 236.72 2602.77 238.348C2604.24 239.812 2604.97 242.335 2604.97 245.916V252.508C2604.97 255.763 2604.24 258.204 2602.77 259.832C2601.31 261.297 2599.03 262.029 2595.94 262.029H2551.02C2549.39 262.029 2548.09 262.762 2547.11 264.227C2546.13 265.529 2545.64 267.482 2545.64 270.086V405.584C2545.64 426.092 2547.6 440.008 2551.5 447.332C2555.57 454.493 2562.57 458.074 2572.5 458.074C2577.22 458.074 2582.75 456.772 2589.1 454.168C2595.45 451.401 2599.44 450.018 2601.06 450.018C2603.67 450.018 2605.7 450.75 2607.17 452.215C2608.8 453.68 2609.61 455.633 2609.61 458.074C2609.61 465.236 2604.16 472.234 2593.25 479.07C2582.35 485.743 2570.14 489.08 2556.63 489.08C2538.89 489.08 2526.19 483.628 2518.54 472.723C2510.9 461.818 2507.07 443.426 2507.07 417.547V262.029ZM2688.96 325.506H2812.49C2816.23 325.506 2818.76 324.855 2820.06 323.553C2821.36 322.088 2822.01 319.402 2822.01 315.496C2822.01 296.453 2815.58 280.665 2802.72 268.133C2789.87 255.438 2773.59 249.09 2753.9 249.09C2743.48 249.09 2733.55 251.368 2724.11 255.926C2714.83 260.483 2706.61 266.993 2699.45 275.457C2693.76 282.293 2689.12 289.699 2685.54 297.674C2682.12 305.649 2680.41 312.566 2680.41 318.426C2680.41 321.03 2680.98 322.902 2682.12 324.041C2683.42 325.018 2685.7 325.506 2688.96 325.506ZM2842.03 346.502H2687.98C2684.72 346.502 2682.44 347.153 2681.14 348.455C2680 349.757 2679.43 352.28 2679.43 356.023C2679.43 386.46 2687.49 411.443 2703.6 430.975C2719.72 450.343 2740.31 460.027 2765.37 460.027C2775.14 460.027 2784.58 458.4 2793.69 455.145C2802.97 451.889 2811.35 447.169 2818.84 440.984C2822.74 437.892 2828.12 432.439 2834.95 424.627C2841.95 416.814 2847.81 412.908 2852.53 412.908C2855.3 412.908 2857.57 413.803 2859.37 415.594C2861.16 417.221 2862.05 419.337 2862.05 421.941C2862.05 425.522 2860.91 429.51 2858.63 433.904C2856.52 438.136 2853.42 442.531 2849.36 447.088C2837.15 460.597 2822.99 470.932 2806.88 478.094C2790.92 485.092 2773.75 488.592 2755.36 488.592C2720.53 488.592 2691.64 476.548 2668.69 452.459C2645.9 428.208 2634.51 397.69 2634.51 360.906C2634.51 321.844 2646.47 289.536 2670.4 263.982C2694.33 238.266 2724.36 225.408 2760.49 225.408C2791.74 225.408 2816.56 234.197 2834.95 251.775C2853.34 269.354 2862.54 293.117 2862.54 323.064C2862.54 332.83 2861.48 339.178 2859.37 342.107C2857.25 345.037 2851.47 346.502 2842.03 346.502Z" fill="black"/>
<path d="M24.2222 389.261C24.2222 389.261 14.7222 209.262 24.2222 190.261C33.7222 171.261 282.722 148.167 288.222 179.167C293.722 210.167 299.222 408.166 288.222 427.167C277.222 446.167 24.2222 449.761 24.2222 449.761" stroke="black" stroke-width="40" stroke-linecap="round" stroke-linejoin="round"/>
<path d="M125.338 246.792C111.951 237.833 83.1267 236.143 82.0265 247.376C80.9263 258.608 114.355 361.485 133.016 356.848C151.676 352.211 391.266 143.543 384.874 128.757C378.482 113.971 344.093 107.21 333.723 113.144C323.354 119.077 148.343 284.897 143.739 285.147C139.136 285.397 133.168 252.033 125.338 246.792Z" fill="#E64545"/>
</svg>
