<svg width="2910" height="486" viewBox="0 0 2910 486" fill="none" xmlns="http://www.w3.org/2000/svg">
<path d="M512.611 322.85C512.611 322.361 512.449 321.629 512.123 320.652C511.96 319.676 511.716 318.699 511.391 317.723C511.228 316.583 510.984 315.607 510.658 314.793C510.495 313.816 510.414 313.084 510.414 312.596C510.089 311.456 509.926 310.561 509.926 309.91C509.926 309.259 509.926 308.608 509.926 307.957C509.926 306.655 510.089 305.597 510.414 304.783C510.74 303.969 511.309 302.749 512.123 301.121L509.193 252.293L510.414 238.621C510.74 238.133 511.065 237.563 511.391 236.912C511.716 236.424 511.96 236.017 512.123 235.691C512.286 235.203 512.449 234.796 512.611 234.471C514.076 231.053 515.215 227.798 516.029 224.705C516.843 221.613 517.82 218.357 518.959 214.939C519.773 211.684 520.18 208.592 520.18 205.662C520.18 202.081 520.831 199.152 522.133 196.873C524.249 191.99 526.609 187.352 529.213 182.957C531.98 178.4 535.316 173.11 539.223 167.088C539.548 166.6 539.874 166.111 540.199 165.623C540.525 164.972 540.85 164.402 541.176 163.914C542.641 161.798 544.187 159.438 545.814 156.834C547.605 154.23 548.581 152.765 548.744 152.439C550.697 149.51 552.569 147.312 554.359 145.848C556.312 144.383 558.591 142.43 561.195 139.988C566.729 135.757 571.612 131.85 575.844 128.27C580.076 124.689 585.121 121.108 590.98 117.527L597.084 114.842C598.549 114.354 600.176 113.702 601.967 112.889C603.757 111.912 605.629 110.936 607.582 109.959C609.535 108.982 611.407 108.087 613.197 107.273C614.988 106.46 616.615 105.809 618.08 105.32L642.982 101.902C643.633 101.902 644.691 101.658 646.156 101.17C647.621 100.682 648.679 100.031 649.33 99.2168C656.329 99.054 661.944 98.8913 666.176 98.7285C670.408 98.5658 674.395 98.4844 678.139 98.4844C683.184 98.4844 688.148 98.5658 693.031 98.7285C697.914 98.8913 702.797 99.054 707.68 99.2168C710.772 100.031 713.295 100.682 715.248 101.17C717.201 101.495 718.747 101.821 719.887 102.146C721.026 102.309 721.84 102.391 722.328 102.391C722.816 102.391 723.305 102.391 723.793 102.391C725.746 102.228 727.292 102.146 728.432 102.146C729.734 101.984 730.873 101.902 731.85 101.902C732.989 101.902 734.21 101.902 735.512 101.902C736.814 101.902 738.523 101.902 740.639 101.902C742.429 102.879 744.382 104.262 746.498 106.053C748.614 107.843 750.567 108.738 752.357 108.738C753.008 108.738 753.66 108.494 754.311 108.006C754.962 107.518 755.45 107.273 755.775 107.273H770.18C772.296 106.948 774.249 106.297 776.039 105.32C777.992 104.181 779.864 103.042 781.654 101.902C783.607 100.6 785.479 99.5423 787.27 98.7285C789.06 97.752 791.094 97.2637 793.373 97.2637C796.14 97.2637 798.5 98.1589 800.453 99.9492C802.569 101.577 803.627 104.018 803.627 107.273V147.801C803.79 148.615 804.034 149.917 804.359 151.707C804.685 153.497 804.848 154.799 804.848 155.613C806.312 163.426 808.021 171.482 809.975 179.783C811.928 187.921 812.904 195.896 812.904 203.709C812.742 204.686 812.335 205.743 811.684 206.883C811.033 208.022 810.219 209.08 809.242 210.057C808.428 211.033 807.615 211.928 806.801 212.742C805.987 213.393 805.336 213.719 804.848 213.719C804.848 214.044 804.278 214.207 803.139 214.207C799.883 214.207 797.035 213.475 794.594 212.01C792.315 210.545 790.362 208.673 788.734 206.395C787.107 204.116 785.886 201.674 785.072 199.07C784.258 196.466 783.689 194.025 783.363 191.746V183.689C783.038 181.411 782.549 179.62 781.898 178.318C781.41 176.854 780.759 175.633 779.945 174.656C779.132 173.517 778.155 172.378 777.016 171.238C776.039 170.099 774.9 168.634 773.598 166.844C771.807 165.053 770.749 163.1 770.424 160.984C770.098 158.706 769.203 156.427 767.738 154.148C767.413 153.497 766.68 152.846 765.541 152.195C764.402 151.544 763.669 151.219 763.344 151.219L747.719 139.988C747.719 139.826 747.312 139.419 746.498 138.768C745.847 137.954 745.115 137.14 744.301 136.326C743.487 135.35 742.673 134.454 741.859 133.641C741.208 132.827 740.801 132.257 740.639 131.932C738.848 130.955 737.872 130.467 737.709 130.467C737.383 130.792 736.244 130.955 734.291 130.955C733.152 130.955 732.582 130.792 732.582 130.467C729.164 129.816 725.827 128.758 722.572 127.293C719.48 125.828 716.632 124.363 714.027 122.898L684.486 121.678C683.347 120.376 682.208 119.562 681.068 119.236C679.929 118.911 678.546 118.748 676.918 118.748C671.384 118.748 666.664 119.236 662.758 120.213C658.852 121.189 655.271 122.573 652.016 124.363C651.853 124.689 651.69 124.933 651.527 125.096C651.202 125.421 650.876 125.584 650.551 125.584C648.272 127.374 645.749 128.758 642.982 129.734C640.378 130.711 637.693 131.688 634.926 132.664C632.159 133.478 629.392 134.454 626.625 135.594C624.021 136.57 621.579 138.035 619.301 139.988L610.023 147.801C609.861 148.126 609.047 148.859 607.582 149.998C606.117 150.975 605.303 151.788 605.141 152.439C604.327 154.23 602.943 155.939 600.99 157.566C599.037 159.031 597.735 159.926 597.084 160.252C595.782 162.042 594.805 163.995 594.154 166.111C593.666 168.064 593.096 169.204 592.445 169.529L586.83 177.586L579.994 193.211L576.82 207.371C576.658 207.697 576.251 208.266 575.6 209.08C575.111 209.894 574.46 210.789 573.646 211.766C572.995 212.579 572.263 213.312 571.449 213.963C570.798 214.614 570.31 214.939 569.984 214.939C569.984 215.102 569.903 215.753 569.74 216.893C569.577 218.032 569.415 219.415 569.252 221.043C569.252 222.508 569.171 224.054 569.008 225.682C568.845 227.146 568.764 228.286 568.764 229.1V235.691L569.984 260.594L572.914 272.557L569.984 285.984C569.984 293.797 571.042 301.609 573.158 309.422C575.274 317.234 577.553 324.803 579.994 332.127C580.32 332.29 581.785 334.243 584.389 337.986L586.83 344.822C587.318 346.124 588.051 347.426 589.027 348.729C590.004 349.868 591.062 351.007 592.201 352.146C593.503 353.286 594.724 354.344 595.863 355.32C597.003 356.297 597.979 357.273 598.793 358.25C599.607 361.18 600.176 363.214 600.502 364.354C600.827 365.493 601.153 366.307 601.479 366.795C601.804 367.12 602.211 367.446 602.699 367.771C603.188 367.934 604.001 368.585 605.141 369.725C606.28 370.213 607.175 371.027 607.826 372.166C608.64 373.143 609.372 374.282 610.023 375.584C610.674 376.886 611.326 378.188 611.977 379.49C612.628 380.792 613.523 381.85 614.662 382.664C617.755 383.152 620.359 383.478 622.475 383.641C624.753 383.641 626.788 384.617 628.578 386.57C632.484 389.826 636.146 392.674 639.564 395.115C642.982 397.394 646.4 399.428 649.818 401.219C653.399 402.846 657.143 404.311 661.049 405.613C664.955 406.753 669.35 407.729 674.232 408.543L686.928 412.205C691.16 412.205 694.577 411.635 697.182 410.496C699.949 409.194 702.634 408.543 705.238 408.543C707.68 408.543 709.958 409.438 712.074 411.229C714.19 412.856 716.55 413.67 719.154 413.67C721.27 413.67 722.979 413.019 724.281 411.717C725.746 410.252 727.536 409.194 729.652 408.543C729.978 408.543 730.954 408.38 732.582 408.055C734.372 407.729 735.512 407.485 736 407.322C736.651 407.322 737.709 406.915 739.174 406.102C740.639 405.288 741.697 404.555 742.348 403.904C747.882 403.09 751.381 402.439 752.846 401.951C754.473 401.3 755.45 400.975 755.775 400.975C755.938 400.812 756.345 400.486 756.996 399.998C757.647 399.347 758.298 398.696 758.949 398.045C759.763 397.231 760.495 396.499 761.146 395.848C761.798 395.034 762.286 394.464 762.611 394.139C763.262 394.139 764.32 393.732 765.785 392.918C767.25 392.104 768.796 391.128 770.424 389.988C772.214 388.849 773.923 387.71 775.551 386.57C777.341 385.431 778.806 384.536 779.945 383.885C780.759 383.396 781.329 382.827 781.654 382.176C781.98 381.362 782.549 380.548 783.363 379.734C785.805 376.316 788.246 373.794 790.688 372.166C793.129 370.538 795.733 368.016 798.5 364.598C799.151 363.947 800.046 362.97 801.186 361.668C802.488 360.203 803.301 359.064 803.627 358.25C803.79 357.924 804.115 356.948 804.604 355.32C805.255 353.53 805.906 352.553 806.557 352.391C808.673 350.6 810.707 349.38 812.66 348.729C814.613 348.077 816.648 347.752 818.764 347.752C819.903 347.752 820.88 348.24 821.693 349.217C822.67 350.193 823.402 351.333 823.891 352.635C824.542 353.937 825.03 355.402 825.355 357.029C825.681 358.494 825.844 359.715 825.844 360.691C825.844 363.947 825.111 366.876 823.646 369.48C822.182 371.922 820.554 374.282 818.764 376.561C816.973 378.839 815.183 381.199 813.393 383.641C811.765 385.919 810.626 388.605 809.975 391.697C809.324 392.186 808.266 393.081 806.801 394.383C805.336 395.522 803.871 396.824 802.406 398.289C800.941 399.754 799.558 401.219 798.256 402.684C796.954 403.986 796.14 404.962 795.814 405.613C792.234 410.333 788.979 413.67 786.049 415.623C783.119 417.413 780.352 419.285 777.748 421.238C776.609 422.703 775.714 424.249 775.062 425.877C774.574 427.342 773.354 428.481 771.4 429.295C769.122 430.597 766.518 431.818 763.588 432.957C760.821 433.934 757.81 434.829 754.555 435.643C749.346 438.898 744.708 441.095 740.639 442.234C736.57 443.374 732.338 444.676 727.943 446.141L718.178 451.512C709.551 452 703.611 452.651 700.355 453.465C697.1 454.441 695.147 454.93 694.496 454.93C689.288 454.767 685.707 454.279 683.754 453.465C681.964 452.814 680.743 452.488 680.092 452.488L664.955 457.371C663.165 457.208 661.212 457.046 659.096 456.883C657.143 456.72 655.189 456.476 653.236 456.15C651.283 455.988 649.493 455.662 647.865 455.174C646.238 454.848 645.017 454.36 644.203 453.709C639.809 452.57 635.251 451.756 630.531 451.268C625.811 450.779 621.254 449.477 616.859 447.361L598.793 440.281C598.467 439.956 597.491 439.63 595.863 439.305C594.236 438.816 593.096 438.572 592.445 438.572C587.725 432.387 585.04 429.295 584.389 429.295H578.529C577.227 428.481 575.681 426.935 573.891 424.656C572.263 422.215 570.554 419.529 568.764 416.6C568.764 414.646 567.624 413.426 565.346 412.938C563.23 412.449 561.358 412.205 559.73 412.205C558.754 411.717 558.103 411.066 557.777 410.252C557.452 409.275 557.126 408.299 556.801 407.322C556.638 406.183 556.394 405.044 556.068 403.904C555.743 402.765 555.173 401.788 554.359 400.975C554.034 400.161 553.22 399.021 551.918 397.557C550.616 395.929 549.558 394.79 548.744 394.139C547.605 393.488 546.71 392.999 546.059 392.674C545.408 392.348 544.838 392.104 544.35 391.941C543.861 391.616 543.373 391.209 542.885 390.721C542.396 390.07 541.745 389.093 540.932 387.791L534.828 378.514L529.457 372.654C529.457 366.958 529.05 362.97 528.236 360.691C527.423 358.413 526.853 357.192 526.527 357.029C526.527 356.378 526.283 354.995 525.795 352.879C525.469 350.6 525.144 349.298 524.818 348.973C521.563 347.508 519.529 346.45 518.715 345.799C518.064 345.311 517.576 344.985 517.25 344.822L512.611 322.85ZM848.549 438.572C848.549 438.247 848.956 437.514 849.77 436.375C850.258 435.887 850.746 435.317 851.234 434.666L858.314 431.736C860.919 430.923 863.279 430.353 865.395 430.027C867.673 429.539 869.789 429.132 871.742 428.807C873.695 428.481 875.567 427.993 877.357 427.342C879.148 426.528 880.938 425.307 882.729 423.68C883.054 423.517 883.542 422.947 884.193 421.971C884.844 420.994 885.495 419.936 886.146 418.797C886.798 417.658 887.367 416.6 887.855 415.623C888.344 414.484 888.669 413.67 888.832 413.182V409.275L887.123 398.777L890.541 383.152C890.541 381.036 890.215 379.165 889.564 377.537C889.076 375.747 888.832 373.712 888.832 371.434C888.832 371.108 888.995 370.457 889.32 369.48C889.646 368.504 889.971 367.527 890.297 366.551C890.622 365.411 890.948 364.435 891.273 363.621C891.599 362.645 891.762 362.156 891.762 362.156L890.541 337.986C890.541 333.104 890.785 328.628 891.273 324.559C891.924 320.327 892.494 316.095 892.982 311.863V302.83C892.982 302.667 893.145 302.179 893.471 301.365C893.959 300.389 894.203 299.249 894.203 297.947C894.203 296.157 893.633 294.692 892.494 293.553C891.355 292.413 890.704 290.867 890.541 288.914C890.053 285.659 889.564 282.892 889.076 280.613C888.588 278.335 888.344 275.893 888.344 273.289L891.762 199.07L891.273 192.723C891.111 190.281 890.622 187.84 889.809 185.398C889.158 182.957 888.425 180.516 887.611 178.074C886.96 175.47 886.309 172.947 885.658 170.506C885.17 167.902 884.926 165.298 884.926 162.693L887.123 151.219C886.635 150.73 885.984 149.754 885.17 148.289C884.519 146.824 883.868 145.278 883.217 143.65C882.729 142.023 882.159 140.477 881.508 139.012C881.02 137.547 880.613 136.57 880.287 136.082L867.104 125.828C865.639 125.503 864.662 125.096 864.174 124.607C862.383 123.631 861 122.817 860.023 122.166C859.21 121.515 858.477 120.864 857.826 120.213C857.338 119.562 856.768 118.748 856.117 117.771C855.466 116.795 854.49 115.33 853.188 113.377C853.025 112.563 852.943 112.075 852.943 111.912C852.943 111.587 852.943 111.017 852.943 110.203C852.943 109.552 853.025 108.901 853.188 108.25C853.35 107.436 853.676 106.867 854.164 106.541C854.652 105.727 855.629 104.913 857.094 104.1C858.559 103.123 860.023 102.228 861.488 101.414C863.116 100.6 864.581 99.9492 865.883 99.4609C867.185 98.9727 867.917 98.6471 868.08 98.4844C868.243 98.4844 868.731 98.403 869.545 98.2402C870.359 98.0775 871.173 97.9147 871.986 97.752C872.963 97.4264 873.858 97.1823 874.672 97.0195C875.486 96.694 875.974 96.4499 876.137 96.2871C876.299 96.2871 877.032 96.2057 878.334 96.043C879.799 95.7174 880.775 95.3919 881.264 95.0664C886.96 92.9505 892.494 90.9974 897.865 89.207C903.399 87.4167 909.503 85.8704 916.176 84.5684C919.919 85.7077 922.93 87.1725 925.209 88.9629C927.488 90.5905 929.685 93.0319 931.801 96.2871V137.303C931.801 137.628 931.882 138.279 932.045 139.256C932.208 140.232 932.37 141.29 932.533 142.43C932.859 143.569 933.103 144.708 933.266 145.848C933.428 146.824 933.51 147.475 933.51 147.801L928.871 168.553C928.871 170.018 929.115 171.32 929.604 172.459C930.092 173.436 930.58 174.412 931.068 175.389C931.719 176.365 932.289 177.423 932.777 178.562C933.266 179.539 933.51 180.76 933.51 182.225C933.51 185.154 932.696 187.677 931.068 189.793C929.604 191.909 928.871 194.269 928.871 196.873V197.85C929.359 200.128 929.604 202.407 929.604 204.686C929.766 206.801 929.848 209.08 929.848 211.521C929.848 213.8 929.929 216.16 930.092 218.602C930.417 220.88 930.987 223.24 931.801 225.682C933.266 229.751 934.73 233.087 936.195 235.691C937.66 238.296 939.857 240.574 942.787 242.527C944.74 242.527 946.368 242.202 947.67 241.551C949.135 240.737 950.355 239.76 951.332 238.621C952.471 237.482 953.529 236.342 954.506 235.203C955.645 234.064 956.947 233.087 958.412 232.273L963.051 229.832H980.385C985.919 229.181 991.534 227.96 997.23 226.17C1002.93 224.38 1008.71 223.484 1014.56 223.484C1017.33 223.484 1019.77 224.298 1021.89 225.926C1024 227.391 1026.36 228.693 1028.97 229.832C1029.78 230.158 1031 230.483 1032.63 230.809C1034.42 231.134 1035.48 231.622 1035.8 232.273C1037.92 233.087 1040.28 234.308 1042.88 235.936C1045.65 237.4 1048.26 239.191 1050.7 241.307C1053.14 243.26 1055.42 245.538 1057.53 248.143C1059.65 250.584 1061.28 253.107 1062.42 255.711C1062.58 255.874 1062.9 257.094 1063.39 259.373C1063.88 261.652 1064.12 263.361 1064.12 264.5V281.346L1067.05 290.135C1067.05 292.902 1066.97 295.099 1066.81 296.727C1066.65 298.191 1066.16 299.819 1065.35 301.609V333.836L1068.76 340.428C1068.76 340.916 1068.68 341.567 1068.52 342.381C1068.36 343.195 1068.19 344.008 1068.03 344.822C1067.87 345.636 1067.62 346.368 1067.3 347.02C1067.14 347.671 1067.05 347.996 1067.05 347.996C1067.05 348.322 1066.97 349.135 1066.81 350.438C1066.65 351.577 1066.49 352.879 1066.32 354.344C1066.16 355.809 1066 357.192 1065.83 358.494C1065.67 359.633 1065.51 360.366 1065.35 360.691L1065.83 369.969C1066 371.108 1066.57 372.898 1067.54 375.34C1068.68 377.618 1069.5 379.083 1069.98 379.734V405.613L1071.21 416.6C1071.37 418.227 1071.61 419.529 1071.94 420.506C1072.26 421.32 1072.75 422.052 1073.4 422.703C1074.05 423.354 1074.87 424.005 1075.84 424.656C1076.98 425.307 1078.37 426.121 1079.99 427.098L1084.63 427.83C1086.42 428.318 1087.89 428.644 1089.03 428.807C1090.17 428.969 1091.22 429.214 1092.2 429.539C1093.18 429.702 1094.15 430.027 1095.13 430.516C1096.27 430.841 1097.74 431.411 1099.53 432.225C1099.85 434.015 1100.5 435.236 1101.48 435.887C1102.46 436.375 1102.94 436.782 1102.94 437.107C1102.94 437.596 1103.19 438.572 1103.68 440.037C1104.33 441.502 1104.65 442.641 1104.65 443.455C1104.65 444.757 1104.25 445.896 1103.43 446.873C1102.78 447.85 1101.89 448.826 1100.75 449.803H1100.26C1099.28 450.617 1097.98 451.349 1096.35 452C1094.89 452.814 1093.26 453.221 1091.47 453.221H1084.63C1081.38 453.221 1078.37 452.814 1075.6 452C1073 451.186 1070.39 450.779 1067.79 450.779L1053.14 453.221H1023.11L1004.55 449.803C1002.28 449.803 1000.08 449.721 997.963 449.559C995.847 449.233 993.894 448.663 992.104 447.85C990.801 447.199 989.988 446.222 989.662 444.92C989.337 443.455 989.174 441.909 989.174 440.281V438.084C989.174 436.131 989.825 434.178 991.127 432.225C992.592 430.271 994.626 429.295 997.23 429.295L1003.58 427.586C1005.04 427.098 1006.59 426.772 1008.22 426.609C1010.01 426.284 1011.72 425.796 1013.34 425.145C1015.13 424.331 1016.84 423.191 1018.47 421.727C1020.1 420.099 1021.64 417.658 1023.11 414.402C1023.27 414.24 1023.43 413.751 1023.6 412.938C1023.92 412.124 1024.17 411.31 1024.33 410.496C1024.49 409.682 1024.57 408.95 1024.57 408.299C1024.74 407.485 1024.82 406.997 1024.82 406.834C1024.98 404.718 1025.06 402.928 1025.06 401.463C1025.06 399.835 1025.23 398.777 1025.55 398.289C1025.39 398.452 1025.39 398.37 1025.55 398.045C1025.71 397.557 1025.88 397.068 1026.04 396.58C1026.36 395.929 1026.61 395.278 1026.77 394.627C1027.1 393.976 1027.26 393.406 1027.26 392.918L1024.82 387.791V376.072C1024.49 372.98 1023.76 370.213 1022.62 367.771C1021.48 365.167 1020.91 362.563 1020.91 359.959V354.1C1021.56 347.752 1022.38 341.079 1023.35 334.08C1024.33 326.919 1024.82 320.083 1024.82 313.572C1024.82 310.317 1024.49 306.899 1023.84 303.318C1023.35 299.575 1022.38 295.913 1020.91 292.332C1020.59 291.844 1020.34 291.355 1020.18 290.867C1019.85 289.891 1019.69 289.24 1019.69 288.914V282.566C1019.53 281.915 1019.2 281.02 1018.71 279.881C1018.39 278.579 1017.9 277.277 1017.25 275.975C1016.76 274.673 1016.19 273.533 1015.54 272.557C1015.05 271.417 1014.73 270.685 1014.56 270.359C1014.4 270.359 1013.75 270.115 1012.61 269.627C1011.47 269.139 1010.25 268.569 1008.95 267.918C1007.65 267.267 1006.26 266.616 1004.8 265.965C1003.5 265.314 1002.52 264.826 1001.87 264.5L997.23 263.279C996.742 262.628 995.847 261.896 994.545 261.082C993.406 260.105 992.104 259.129 990.639 258.152C989.337 257.176 988.035 256.281 986.732 255.467C985.593 254.49 984.779 253.676 984.291 253.025H946.205C945.391 253.025 944.496 253.432 943.52 254.246C942.706 254.897 941.892 255.711 941.078 256.688C940.427 257.501 939.776 258.315 939.125 259.129C938.474 259.943 937.986 260.431 937.66 260.594C935.219 264.012 933.184 267.186 931.557 270.115C930.092 272.882 928.952 276.463 928.139 280.857L933.021 331.15C933.021 331.964 932.94 332.859 932.777 333.836C932.615 334.65 932.289 335.708 931.801 337.01C931.475 338.637 931.231 340.102 931.068 341.404C931.068 342.706 931.068 344.253 931.068 346.043L931.312 359.471L934.242 370.945C935.219 377.293 935.707 383.641 935.707 389.988C935.707 397.312 935.219 404.718 934.242 412.205C935.056 413.344 935.707 414.24 936.195 414.891C936.684 415.542 937.172 416.355 937.66 417.332C938.311 418.146 939.044 419.285 939.857 420.75C940.671 422.215 941.973 424.331 943.764 427.098C944.74 428.4 945.717 429.376 946.693 430.027C947.833 430.516 948.972 430.841 950.111 431.004C951.251 431.167 952.471 431.329 953.773 431.492C955.076 431.492 956.459 431.736 957.924 432.225C959.714 432.55 960.609 434.34 960.609 437.596C960.609 438.572 960.447 439.793 960.121 441.258C959.958 442.56 959.633 443.862 959.145 445.164C958.656 446.303 958.087 447.361 957.436 448.338C956.785 449.152 956.133 449.64 955.482 449.803C953.204 450.291 951.251 451.023 949.623 452C948.158 453.139 946.205 453.709 943.764 453.709C940.346 453.709 937.253 453.628 934.486 453.465C931.719 453.302 929.441 453.221 927.65 453.221H917.885L896.4 452C895.261 451.349 894.366 451.023 893.715 451.023C893.227 450.861 892.576 450.779 891.762 450.779C889.483 450.779 887.367 451.105 885.414 451.756C883.461 452.244 881.426 452.814 879.311 453.465C877.357 454.116 875.242 454.686 872.963 455.174C870.847 455.825 868.487 456.15 865.883 456.15L854.652 457.127C852.862 455.174 851.397 452.488 850.258 449.07C849.118 445.652 848.549 442.153 848.549 438.572ZM1123.7 345.066C1123.7 344.253 1123.86 342.706 1124.18 340.428C1124.51 337.986 1124.83 335.464 1125.16 332.859C1125.65 330.092 1125.97 327.488 1126.14 325.047C1126.46 322.605 1126.62 320.978 1126.62 320.164C1127.28 312.352 1128.99 304.376 1131.75 296.238C1134.68 288.1 1138.34 280.288 1142.74 272.801C1147.13 265.151 1152.18 258.152 1157.88 251.805C1163.73 245.457 1170.08 240.086 1176.92 235.691C1177.08 235.366 1177.89 234.796 1179.36 233.982C1180.99 233.169 1182.7 232.355 1184.49 231.541C1186.28 230.727 1187.99 229.913 1189.61 229.1C1191.24 228.286 1192.22 227.716 1192.54 227.391C1193.68 226.902 1195.15 226.089 1196.94 224.949C1198.89 223.647 1200.84 222.426 1202.8 221.287C1204.75 219.985 1206.7 218.846 1208.66 217.869C1210.61 216.893 1212.4 216.404 1214.03 216.404C1215.49 216.404 1216.63 216.567 1217.45 216.893C1218.42 217.218 1219.56 217.706 1220.86 218.357C1223.63 218.032 1226.23 217.788 1228.68 217.625C1231.28 217.299 1233.88 217.137 1236.49 217.137C1239.26 217.137 1241.86 217.299 1244.3 217.625C1246.74 217.788 1249.35 218.032 1252.11 218.357C1252.11 218.357 1252.44 218.52 1253.09 218.846C1253.74 219.008 1254.47 219.253 1255.29 219.578C1256.1 219.904 1256.91 220.229 1257.73 220.555C1258.54 220.88 1259.19 221.124 1259.68 221.287C1260.17 221.45 1261.15 221.938 1262.61 222.752C1264.08 223.403 1265.7 224.217 1267.49 225.193C1269.28 226.17 1270.99 227.065 1272.62 227.879C1274.25 228.53 1275.39 228.937 1276.04 229.1C1276.04 229.262 1276.61 229.507 1277.75 229.832C1278.89 230.158 1279.62 230.32 1279.95 230.32L1289.71 235.691L1311.68 255.711C1312.33 256.525 1313.31 258.722 1314.61 262.303C1316.08 265.721 1317.46 269.546 1318.76 273.777C1320.23 277.846 1321.45 281.753 1322.43 285.496C1323.57 289.24 1324.13 291.681 1324.13 292.82C1324.13 295.099 1323.48 296.971 1322.18 298.436C1320.88 299.738 1319.33 300.877 1317.54 301.854C1315.75 302.667 1313.8 303.318 1311.68 303.807C1309.73 304.132 1308.02 304.376 1306.56 304.539H1305.58C1303.95 304.702 1301.27 304.865 1297.52 305.027C1293.94 305.19 1290.12 305.353 1286.05 305.516C1282.14 305.516 1278.4 305.597 1274.82 305.76C1271.4 305.76 1269.04 305.76 1267.74 305.76C1265.95 306.574 1264.32 307.062 1262.86 307.225C1261.55 307.387 1260.17 307.469 1258.71 307.469L1241.37 305.76C1238.12 305.76 1234.7 306.329 1231.12 307.469C1227.7 308.608 1224.36 309.178 1221.11 309.178C1218.99 309.178 1216.88 308.445 1214.76 306.98C1212.81 305.353 1210.61 304.539 1208.17 304.539C1207.84 304.539 1206.95 304.946 1205.48 305.76C1204.18 306.411 1203.2 306.736 1202.55 306.736L1184 305.516C1181.39 305.516 1178.95 306.004 1176.67 306.98C1174.4 307.957 1171.79 309.666 1168.86 312.107C1168.37 316.339 1168.05 320.083 1167.88 323.338C1167.72 326.43 1167.64 329.93 1167.64 333.836C1167.64 337.254 1167.8 340.021 1168.13 342.137C1168.62 344.253 1169.27 346.287 1170.08 348.24C1170.9 350.031 1171.87 351.902 1173.01 353.855C1174.15 355.646 1175.45 357.924 1176.92 360.691L1179.36 365.33C1183.59 374.607 1189.04 382.094 1195.72 387.791C1202.39 393.488 1211.02 397.964 1221.6 401.219C1221.6 402.033 1222.74 402.846 1225.01 403.66C1227.46 404.311 1230.14 404.799 1233.07 405.125C1236.49 405.776 1240.39 406.183 1244.79 406.346C1250.16 406.346 1255.69 406.02 1261.39 405.369C1267.09 404.718 1272.62 403.66 1277.99 402.195C1283.36 400.73 1288.41 398.777 1293.13 396.336C1298.01 393.895 1302.16 390.883 1305.58 387.303H1309.49C1311.44 387.303 1312.74 387.628 1313.39 388.279C1314.21 388.768 1315.02 390.314 1315.83 392.918C1315.35 397.638 1314.61 401.87 1313.64 405.613C1312.82 409.194 1311.6 412.449 1309.97 415.379C1308.51 418.309 1306.56 421.076 1304.12 423.68C1301.67 426.121 1298.5 428.644 1294.59 431.248C1293.29 432.225 1292.07 432.957 1290.93 433.445C1289.79 433.771 1288.73 434.096 1287.76 434.422C1286.78 434.747 1285.72 435.236 1284.58 435.887C1283.61 436.538 1282.47 437.677 1281.17 439.305L1255.04 452.488L1252.11 452L1233.8 454.93C1220.13 454.93 1207.84 452.977 1196.94 449.07C1186.03 445.164 1176.27 439.63 1167.64 432.469C1159.18 425.145 1151.77 416.437 1145.42 406.346C1139.24 396.255 1133.95 385.105 1129.55 372.898C1128.09 368.504 1127.19 364.028 1126.87 359.471C1126.54 354.751 1125.49 349.949 1123.7 345.066ZM1171.79 278.416C1171.79 279.23 1171.87 280.451 1172.04 282.078C1172.36 283.706 1172.77 285.333 1173.26 286.961C1173.74 288.589 1174.31 290.053 1174.96 291.355C1175.62 292.658 1176.27 293.39 1176.92 293.553H1184.49L1216.96 288.426L1237.71 290.135C1241.29 290.135 1244.46 289.809 1247.23 289.158C1250.16 288.507 1253.33 287.775 1256.75 286.961C1259.84 286.473 1262.45 286.066 1264.56 285.74C1266.84 285.252 1268.63 284.438 1269.94 283.299C1271.4 282.16 1272.46 280.695 1273.11 278.904C1273.76 276.951 1274.09 274.266 1274.09 270.848C1274.09 265.151 1272.54 260.187 1269.45 255.955C1266.35 251.723 1262.45 248.224 1257.73 245.457C1253.17 242.527 1248.13 240.411 1242.59 239.109C1237.22 237.645 1232.18 236.912 1227.46 236.912C1226.32 236.912 1224.69 237.238 1222.57 237.889C1220.46 238.377 1218.01 239.109 1215.25 240.086C1212.64 240.9 1209.88 241.876 1206.95 243.016C1204.18 243.992 1201.58 245.132 1199.13 246.434C1196.86 247.573 1194.82 248.712 1193.03 249.852C1191.24 250.828 1190.1 251.723 1189.61 252.537L1184.49 263.523C1183.51 264.663 1182.29 265.721 1180.82 266.697C1179.36 267.674 1177.89 268.732 1176.43 269.871C1175.13 271.01 1173.99 272.312 1173.01 273.777C1172.2 275.079 1171.79 276.626 1171.79 278.416ZM1433.51 450.779C1423.09 450.779 1413.57 448.826 1404.95 444.92C1396.32 440.851 1389.24 434.178 1383.71 424.9L1371.74 412.693C1371.58 411.88 1371.01 410.333 1370.03 408.055C1369.06 405.776 1368 403.335 1366.86 400.73C1365.72 398.126 1364.66 395.766 1363.69 393.65C1362.71 391.535 1362.22 390.151 1362.22 389.5V376.316C1361.9 374.363 1361.33 372.654 1360.51 371.189C1359.86 369.562 1359.05 368.016 1358.07 366.551C1357.26 364.923 1356.52 363.377 1355.87 361.912C1355.22 360.285 1354.9 358.494 1354.9 356.541L1357.09 326.512C1357.09 325.047 1356.77 323.501 1356.12 321.873C1355.63 320.245 1355.38 318.536 1355.38 316.746C1355.38 314.467 1355.63 312.514 1356.12 310.887C1356.77 309.259 1357.42 307.632 1358.07 306.004C1358.72 304.376 1359.29 302.667 1359.78 300.877C1360.43 298.924 1360.76 296.482 1360.76 293.553L1377.85 271.58L1376.14 267.918C1376.62 267.267 1377.19 266.535 1377.85 265.721C1378.33 265.07 1378.82 264.337 1379.31 263.523C1379.96 262.71 1380.53 261.896 1381.02 261.082C1390.62 249.201 1401.77 239.76 1414.47 232.762C1427.16 225.6 1441.08 219.985 1456.21 215.916L1460.61 214.695C1469.4 214.695 1478.19 215.509 1486.98 217.137C1495.93 218.764 1504.39 221.043 1512.37 223.973C1513.51 226.74 1515.3 228.53 1517.74 229.344C1520.34 229.995 1522.78 230.32 1525.06 230.32C1526.53 232.924 1527.91 235.203 1529.21 237.156C1530.51 239.109 1531.65 241.062 1532.63 243.016C1533.61 244.969 1534.34 247.085 1534.83 249.363C1535.48 251.479 1535.8 254.002 1535.8 256.932C1535.8 262.791 1533.77 267.755 1529.7 271.824C1525.63 275.893 1519.85 277.928 1512.37 277.928C1511.88 277.277 1511.23 276.463 1510.41 275.486C1509.6 274.347 1508.71 273.289 1507.73 272.312C1506.75 271.173 1505.86 270.197 1505.04 269.383C1504.23 268.569 1503.58 268.081 1503.09 267.918C1502.93 267.592 1502.11 267.348 1500.65 267.186C1499.18 266.86 1498.37 266.697 1498.21 266.697C1494.3 264.907 1491.29 262.14 1489.17 258.396C1487.22 254.49 1485.1 250.665 1482.83 246.922C1480.71 243.016 1478.02 239.598 1474.77 236.668C1471.68 233.738 1466.96 232.273 1460.61 232.273C1455.89 232.273 1451.58 233.087 1447.67 234.715C1443.76 236.18 1440.02 238.214 1436.44 240.818C1432.86 243.26 1429.44 246.189 1426.19 249.607C1423.09 252.863 1419.92 256.281 1416.66 259.861C1416.01 261.163 1414.96 262.547 1413.49 264.012C1412.03 265.314 1411.05 266.616 1410.56 267.918V277.928L1408.61 280.857C1406 286.066 1404.21 291.03 1403.24 295.75C1402.26 300.47 1401.77 305.841 1401.77 311.863C1401.77 312.84 1401.77 314.061 1401.77 315.525C1401.77 316.827 1401.85 318.211 1402.02 319.676C1402.18 320.978 1402.34 322.199 1402.5 323.338C1402.67 324.314 1402.99 324.803 1403.48 324.803C1403.48 326.105 1403.48 327.732 1403.48 329.686C1403.64 331.476 1403.81 333.266 1403.97 335.057C1404.13 336.847 1404.29 338.393 1404.46 339.695C1404.62 340.997 1404.7 341.648 1404.7 341.648L1406.9 345.066V351.902C1406.9 355.646 1407.06 358.901 1407.39 361.668C1407.88 364.435 1408.53 367.12 1409.34 369.725C1410.32 372.166 1411.37 374.689 1412.51 377.293C1413.82 379.734 1415.2 382.501 1416.66 385.594C1416.66 385.919 1417.32 387.059 1418.62 389.012C1419.92 390.802 1421.3 392.837 1422.77 395.115C1424.23 397.231 1425.62 399.266 1426.92 401.219C1428.22 403.009 1429.03 404.148 1429.36 404.637C1430.66 406.102 1432.37 406.997 1434.49 407.322C1436.6 407.648 1438.23 408.299 1439.37 409.275C1441.97 411.229 1444.09 412.938 1445.72 414.402C1447.51 415.704 1449.22 416.844 1450.84 417.82C1452.63 418.797 1454.51 419.529 1456.46 420.018C1458.41 420.506 1461.02 420.75 1464.27 420.75C1471.76 420.75 1479.41 419.204 1487.22 416.111C1495.03 413.019 1501.87 409.194 1507.73 404.637C1509.03 403.66 1510.41 402.439 1511.88 400.975C1513.51 399.347 1515.13 397.801 1516.76 396.336C1518.39 394.871 1520.02 393.569 1521.64 392.43C1523.43 391.29 1525.14 390.721 1526.77 390.721C1529.7 390.721 1531.65 391.29 1532.63 392.43C1533.77 393.569 1534.34 395.522 1534.34 398.289V401.219C1531.57 410.496 1527.18 418.471 1521.16 425.145C1515.3 431.818 1508.46 437.352 1500.65 441.746C1492.84 445.978 1484.45 449.152 1475.5 451.268C1466.55 453.383 1457.76 454.441 1449.13 454.441H1441.57L1437.17 450.779H1433.51ZM1552.65 450.291C1552.49 449.965 1552.41 449.477 1552.41 448.826C1552.41 448.012 1552.41 447.28 1552.41 446.629L1552.65 441.502C1552.65 440.037 1553.22 439.142 1554.36 438.816C1555.66 438.491 1556.96 437.921 1558.27 437.107C1559.73 435.317 1561.52 434.34 1563.64 434.178C1565.92 433.852 1567.79 433.283 1569.25 432.469C1573.65 430.678 1578.12 428.888 1582.68 427.098C1587.24 425.145 1590.9 421.727 1593.67 416.844C1594.15 416.193 1594.81 414.891 1595.62 412.938C1596.6 410.984 1597.49 408.868 1598.3 406.59C1599.12 404.148 1599.85 401.788 1600.5 399.51C1601.15 397.231 1601.56 395.604 1601.72 394.627C1602.05 394.139 1602.21 393.488 1602.21 392.674C1602.21 391.697 1602.21 391.046 1602.21 390.721L1596.6 364.109C1596.6 361.993 1597.33 360.04 1598.79 358.25C1600.26 356.46 1600.99 354.588 1600.99 352.635L1598.06 341.404C1598.06 339.126 1598.06 336.359 1598.06 333.104C1598.22 329.848 1598.39 326.593 1598.55 323.338C1598.87 319.92 1599.36 316.827 1600.01 314.061C1600.66 311.131 1601.56 308.934 1602.7 307.469C1603.02 302.749 1603.27 298.273 1603.43 294.041C1603.76 289.809 1603.92 285.415 1603.92 280.857C1603.92 277.277 1603.76 273.777 1603.43 270.359C1603.27 266.779 1603.02 263.117 1602.7 259.373C1603.51 258.071 1604 256.606 1604.16 254.979C1604.49 253.188 1604.65 251.561 1604.65 250.096V246.189L1602.94 228.611C1602.94 227.146 1603.27 226.089 1603.92 225.438C1604.73 224.624 1605.55 223.973 1606.36 223.484C1607.18 222.833 1607.91 222.264 1608.56 221.775C1609.37 221.124 1609.78 220.311 1609.78 219.334L1602.94 205.418L1606.85 177.586C1606.85 174.493 1606.44 171.482 1605.63 168.553C1604.98 165.46 1604.65 162.124 1604.65 158.543L1605.87 148.777C1605.87 146.173 1604.65 143.488 1602.21 140.721C1599.93 137.791 1597.98 135.268 1596.35 133.152L1579.75 116.551C1579.42 116.551 1578.94 116.388 1578.29 116.062C1577.63 115.574 1577.31 115.167 1577.31 114.842C1577.15 114.516 1577.06 114.272 1577.06 114.109C1576.9 113.947 1576.82 113.702 1576.82 113.377C1576.82 111.098 1576.98 108.982 1577.31 107.029C1577.63 105.076 1578.45 103.774 1579.75 103.123C1580.56 102.309 1581.62 101.821 1582.92 101.658C1584.39 101.495 1586.02 101.414 1587.81 101.414H1591.96C1594.24 101.414 1595.78 101.251 1596.6 100.926C1601.15 99.9492 1605.71 98.403 1610.27 96.2871C1614.82 94.1712 1619.71 93.1133 1624.92 93.1133C1626.54 93.1133 1628.5 93.4388 1630.78 94.0898C1633.22 94.7409 1635.58 95.5547 1637.86 96.5312C1640.13 97.5078 1642.09 98.7285 1643.71 100.193C1645.34 101.495 1646.16 102.879 1646.16 104.344C1646.16 106.297 1645.67 108.087 1644.69 109.715C1643.88 111.18 1643.47 112.807 1643.47 114.598L1647.38 141.453C1647.38 143.732 1647.3 145.441 1647.13 146.58C1646.97 147.719 1646.48 149.428 1645.67 151.707V174.9C1645.67 176.528 1645.67 178.644 1645.67 181.248C1645.83 183.852 1645.91 186.456 1645.91 189.061C1645.91 191.502 1645.91 193.699 1645.91 195.652C1646.07 197.443 1646.16 198.419 1646.16 198.582L1647.38 215.428L1645.67 222.752C1645.67 225.519 1645.91 228.123 1646.4 230.564C1647.05 233.006 1647.38 235.61 1647.38 238.377C1647.38 241.632 1646.73 244.399 1645.42 246.678C1644.12 248.956 1643.47 251.235 1643.47 253.514L1646.16 262.303C1646.16 263.442 1645.75 264.581 1644.94 265.721C1644.28 266.697 1643.55 267.755 1642.74 268.895C1641.92 270.034 1641.11 271.173 1640.3 272.312C1639.65 273.452 1639.32 274.673 1639.32 275.975L1640.3 285.252L1639.32 292.332C1639.32 294.122 1639.97 295.994 1641.27 297.947C1642.74 299.9 1644.77 300.877 1647.38 300.877H1648.6C1650.06 300.714 1651.53 300.145 1652.99 299.168C1654.62 298.029 1656.08 296.808 1657.39 295.506C1658.85 294.204 1660.15 292.983 1661.29 291.844C1662.43 290.704 1663.41 289.891 1664.22 289.402C1668.45 287.124 1672.04 285.415 1674.96 284.275C1678.06 282.973 1680.82 281.671 1683.27 280.369C1685.87 278.904 1688.31 277.114 1690.59 274.998C1693.03 272.719 1695.8 269.383 1698.89 264.988C1699.7 263.523 1700.36 262.384 1700.84 261.57C1701.49 260.757 1701.98 260.105 1702.31 259.617C1702.8 259.129 1703.12 258.641 1703.29 258.152C1703.45 257.664 1703.53 256.932 1703.53 255.955C1703.53 254.165 1702.96 252.618 1701.82 251.316C1700.84 250.014 1699.7 248.712 1698.4 247.41C1697.26 246.108 1696.21 244.725 1695.23 243.26C1694.25 241.795 1693.76 240.005 1693.76 237.889V234.959C1693.76 234.308 1693.85 233.657 1694.01 233.006C1694.33 232.355 1695.15 231.704 1696.45 231.053C1698.73 230.727 1701.01 230.483 1703.29 230.32C1705.56 229.995 1707.6 229.832 1709.39 229.832C1712.16 230.158 1714.84 230.483 1717.45 230.809C1720.05 230.971 1722.57 231.053 1725.01 231.053C1726.32 231.053 1727.46 231.053 1728.43 231.053C1729.57 231.053 1730.71 230.89 1731.85 230.564L1751.38 229.832C1751.54 229.832 1751.95 229.751 1752.6 229.588C1753.42 229.425 1754.23 229.262 1755.04 229.1C1755.86 228.774 1756.59 228.53 1757.24 228.367C1757.89 228.204 1758.3 228.123 1758.46 228.123H1780.43C1782.22 229.588 1783.85 231.134 1785.32 232.762C1786.78 234.389 1787.51 236.098 1787.51 237.889C1787.51 239.516 1786.7 241.144 1785.07 242.771C1783.44 244.236 1781.33 245.701 1778.72 247.166C1776.12 248.468 1773.19 249.689 1769.94 250.828C1766.84 251.967 1763.83 253.025 1760.9 254.002C1757.97 254.979 1755.29 255.874 1752.85 256.688C1750.4 257.339 1748.61 257.827 1747.47 258.152C1742.75 260.268 1738.85 262.059 1735.76 263.523C1732.66 264.826 1729 266.535 1724.77 268.65C1723.47 270.441 1722.49 272.15 1721.84 273.777C1721.35 275.405 1720.05 277.114 1717.93 278.904C1717.12 279.393 1715.65 280.044 1713.54 280.857C1711.59 281.671 1709.47 282.648 1707.19 283.787C1705.08 284.926 1703.12 286.31 1701.33 287.938C1699.7 289.402 1698.89 291.03 1698.89 292.82C1698.89 294.122 1698.89 295.831 1698.89 297.947C1699.05 300.063 1699.3 302.26 1699.62 304.539C1699.95 306.818 1700.44 309.015 1701.09 311.131C1701.74 313.247 1702.55 315.037 1703.53 316.502C1707.11 321.222 1710.85 325.372 1714.76 328.953C1718.67 332.371 1722 336.521 1724.77 341.404C1725.75 342.544 1726.32 343.439 1726.48 344.09C1726.8 344.578 1726.97 345.066 1726.97 345.555C1727.13 346.043 1727.29 346.694 1727.46 347.508C1727.62 348.159 1728.11 349.217 1728.92 350.682C1729.41 352.472 1730.3 353.937 1731.61 355.076C1733.07 356.053 1734.54 357.029 1736 358.006C1737.63 358.982 1739.17 360.04 1740.64 361.18C1742.27 362.156 1743.57 363.458 1744.54 365.086C1748.61 374.526 1754.23 383.803 1761.39 392.918C1768.55 401.87 1775.88 409.764 1783.36 416.6C1784.83 417.739 1787.27 418.96 1790.69 420.262C1794.27 421.564 1798.01 423.029 1801.92 424.656C1805.99 426.121 1809.89 427.667 1813.64 429.295C1817.38 430.923 1820.23 432.713 1822.18 434.666C1822.67 435.154 1822.91 435.724 1822.91 436.375C1823.08 437.026 1823.16 437.758 1823.16 438.572V443.455C1823.16 445.083 1822.67 446.548 1821.69 447.85C1820.88 449.152 1819.82 449.965 1818.52 450.291H1798.26L1768.23 446.141C1768.06 446.141 1767.9 446.222 1767.74 446.385C1767.58 446.385 1767.41 446.385 1767.25 446.385C1766.92 446.548 1766.68 446.629 1766.52 446.629C1755.78 449.884 1745.52 451.512 1735.76 451.512L1722.08 452C1719.48 452 1716.96 451.837 1714.52 451.512C1712.24 451.186 1710.53 450.617 1709.39 449.803C1707.6 448.012 1706.54 446.303 1706.21 444.676C1705.89 442.885 1705.73 440.851 1705.73 438.572V433.934C1705.73 432.306 1706.7 431.085 1708.66 430.271C1710.61 429.295 1712.81 428.318 1715.25 427.342C1717.69 426.365 1719.89 425.145 1721.84 423.68C1723.79 422.215 1724.77 420.099 1724.77 417.332C1724.77 415.379 1724.2 413.833 1723.06 412.693C1721.92 411.391 1720.62 410.252 1719.15 409.275C1717.69 408.136 1716.14 407.078 1714.52 406.102C1712.89 404.962 1711.59 403.66 1710.61 402.195C1709.47 399.754 1708.66 397.231 1708.17 394.627C1707.84 391.86 1707.35 389.256 1706.7 386.814C1706.05 384.21 1704.91 381.85 1703.29 379.734C1701.66 377.618 1699.05 375.91 1695.47 374.607C1695.15 373.956 1694.58 372.898 1693.76 371.434C1693.11 369.969 1692.38 368.423 1691.57 366.795C1690.75 365.005 1689.94 363.377 1689.12 361.912C1688.47 360.285 1688.07 359.064 1687.9 358.25C1687.09 356.948 1685.87 355.89 1684.24 355.076C1682.78 354.262 1681.31 353.449 1679.85 352.635C1677.73 350.682 1675.62 348.322 1673.5 345.555C1671.55 342.625 1669.35 339.777 1666.91 337.01C1664.63 334.243 1662.19 331.883 1659.58 329.93C1656.98 327.977 1654.05 327 1650.79 327C1649.49 327 1648.27 327.407 1647.13 328.221C1646.16 328.872 1645.67 330.174 1645.67 332.127L1647.38 337.498C1647.38 337.986 1646.97 338.963 1646.16 340.428C1645.51 341.73 1644.69 343.113 1643.71 344.578C1642.9 346.043 1642.09 347.426 1641.27 348.729C1640.62 349.868 1640.3 350.519 1640.3 350.682V362.4C1640.3 366.958 1640.87 371.027 1642.01 374.607C1643.31 378.188 1643.96 382.013 1643.96 386.082C1643.96 387.872 1643.71 389.419 1643.23 390.721C1642.74 392.023 1642.25 393.325 1641.76 394.627C1641.44 396.092 1641.11 397.475 1640.79 398.777C1640.46 400.079 1640.3 401.463 1640.3 402.928C1640.3 409.113 1641.11 414.24 1642.74 418.309C1644.53 422.215 1646.89 425.145 1649.82 427.098C1651.61 428.237 1653.64 429.132 1655.92 429.783C1658.36 430.271 1660.64 430.678 1662.76 431.004C1665.04 431.167 1667.15 431.329 1669.11 431.492C1671.06 431.655 1672.52 431.98 1673.5 432.469C1675.29 433.283 1676.27 434.096 1676.43 434.91C1676.76 435.724 1676.92 436.619 1676.92 437.596C1676.92 439.874 1676.67 442.316 1676.19 444.92C1675.86 447.361 1674.88 449.314 1673.26 450.779C1671.95 451.593 1670.33 452.081 1668.37 452.244C1666.42 452.57 1664.47 452.732 1662.51 452.732H1655.92L1636.88 449.07L1611 450.779H1594.89L1575.11 452.732L1563.64 453.221C1562.66 452.895 1561.44 452.732 1559.97 452.732C1558.51 452.732 1557.21 452.732 1556.07 452.732L1552.65 450.291ZM1834.88 441.502C1834.88 439.223 1834.96 437.677 1835.12 436.863C1835.28 435.887 1835.85 435.154 1836.83 434.666C1837.64 434.34 1838.78 434.178 1840.25 434.178C1841.88 434.178 1843.42 434.178 1844.89 434.178C1845.7 434.178 1846.68 433.934 1847.82 433.445C1848.96 432.794 1849.69 432.387 1850.01 432.225C1850.34 431.899 1850.83 431.574 1851.48 431.248C1852.29 430.76 1853.19 430.353 1854.16 430.027C1857.74 429.376 1860.27 429.051 1861.73 429.051C1863.2 428.888 1864.34 427.667 1865.15 425.389C1865.48 420.994 1865.8 416.437 1866.13 411.717C1866.62 406.834 1866.86 402.277 1866.86 398.045C1866.86 392.674 1866.7 387.547 1866.37 382.664C1866.05 377.618 1865.64 372.817 1865.15 368.26L1866.13 363.621V346.531C1866.13 342.625 1866.29 338.8 1866.62 335.057C1867.1 331.15 1868.32 327.326 1870.28 323.582L1868.57 287.205C1868.41 286.88 1868.24 286.31 1868.08 285.496C1867.92 284.52 1867.75 283.543 1867.59 282.566C1867.43 281.59 1867.27 280.695 1867.1 279.881C1866.94 279.067 1866.86 278.579 1866.86 278.416C1866.05 277.602 1865.48 277.195 1865.15 277.195C1865.15 276.87 1864.74 276.463 1863.93 275.975C1863.28 275.486 1862.46 274.998 1861.49 274.51C1860.67 273.859 1859.86 273.37 1859.05 273.045C1858.23 272.557 1857.74 272.231 1857.58 272.068C1857.42 272.068 1857.01 271.824 1856.36 271.336C1855.87 270.848 1855.3 270.359 1854.65 269.871C1854 269.22 1853.35 268.65 1852.7 268.162C1852.21 267.511 1851.89 267.104 1851.72 266.941C1849.93 266.453 1848.3 266.128 1846.84 265.965C1845.38 265.802 1843.99 265.639 1842.69 265.477C1841.55 265.151 1840.41 264.663 1839.27 264.012C1838.13 263.361 1837.07 262.221 1836.1 260.594C1836.42 260.268 1836.5 259.21 1836.34 257.42C1836.34 255.467 1836.99 253.595 1838.29 251.805C1839.76 250.665 1841.31 249.933 1842.93 249.607C1844.56 249.282 1846.19 248.875 1847.82 248.387C1849.28 248.061 1850.66 247.736 1851.97 247.41C1853.43 246.922 1854.9 246.108 1856.36 244.969C1856.52 244.969 1857.01 244.725 1857.83 244.236C1858.64 243.748 1859.45 243.178 1860.27 242.527C1861.08 241.876 1861.81 241.307 1862.46 240.818C1863.28 240.33 1863.77 240.086 1863.93 240.086L1876.14 234.959C1876.3 234.796 1876.71 234.389 1877.36 233.738C1878.17 232.924 1878.99 232.192 1879.8 231.541C1880.61 230.727 1881.35 229.995 1882 229.344C1882.65 228.693 1883.14 228.286 1883.46 228.123H1890.05C1893.31 228.123 1895.83 228.286 1897.62 228.611C1899.57 228.937 1900.96 229.507 1901.77 230.32C1902.75 231.134 1903.32 232.355 1903.48 233.982C1903.81 235.61 1903.97 237.726 1903.97 240.33V244.969C1904.13 246.434 1904.29 248.061 1904.46 249.852C1904.78 251.642 1905.27 253.351 1905.92 254.979C1906.57 256.443 1907.47 257.745 1908.61 258.885C1909.91 260.024 1911.54 260.594 1913.49 260.594C1913.65 260.268 1914.14 259.78 1914.96 259.129C1915.77 258.315 1916.66 257.501 1917.64 256.688C1918.62 255.711 1919.51 254.897 1920.33 254.246C1921.14 253.595 1921.63 253.188 1921.79 253.025L1931.07 250.096C1931.39 250.096 1931.8 250.014 1932.29 249.852C1932.94 249.526 1933.43 249.201 1933.75 248.875C1934.08 248.712 1935.14 247.898 1936.93 246.434C1938.72 244.969 1940.67 243.423 1942.79 241.795C1944.9 240.167 1946.94 238.702 1948.89 237.4C1950.84 235.936 1952.23 235.122 1953.04 234.959C1953.2 234.796 1953.77 234.471 1954.75 233.982C1955.89 233.494 1957.19 233.006 1958.66 232.518C1960.12 231.867 1961.5 231.297 1962.81 230.809C1964.11 230.32 1965.09 229.995 1965.74 229.832H1969.64C1972.08 229.181 1974.44 227.96 1976.72 226.17C1979.16 224.38 1981.85 223.484 1984.78 223.484H1987.71L1994.54 226.902C1994.71 227.065 1995.28 227.228 1996.25 227.391C1997.23 227.553 1998.29 227.716 1999.43 227.879C2000.73 227.879 2001.95 227.96 2003.09 228.123C2004.23 228.123 2005.04 228.123 2005.53 228.123C2010.25 229.588 2013.99 231.541 2016.76 233.982C2019.69 236.261 2022.3 239.516 2024.57 243.748C2025.88 245.538 2026.85 247.41 2027.5 249.363C2028.32 251.316 2029.13 253.107 2029.95 254.734C2030.76 256.362 2031.82 257.745 2033.12 258.885C2034.58 260.024 2036.62 260.594 2039.22 260.594C2039.71 260.594 2040.28 260.594 2040.93 260.594C2041.75 260.431 2042.56 260.024 2043.37 259.373L2059 243.748L2067.05 240.086L2075.6 229.832L2085.37 226.902C2090.57 225.438 2095.62 224.298 2100.5 223.484C2105.38 222.671 2110.19 222.264 2114.91 222.264H2120.28C2122.88 222.264 2125.24 222.508 2127.36 222.996C2129.64 223.322 2132.24 224.217 2135.17 225.682C2135.33 225.844 2136.15 226.577 2137.61 227.879C2139.08 229.181 2139.97 229.832 2140.3 229.832C2140.3 229.995 2140.7 230.239 2141.52 230.564C2142.49 230.89 2143.47 231.297 2144.45 231.785C2145.42 232.273 2146.32 232.68 2147.13 233.006C2148.11 233.331 2148.76 233.576 2149.09 233.738C2149.41 233.738 2149.74 233.901 2150.06 234.227C2150.55 234.389 2150.79 234.633 2150.79 234.959C2150.96 235.122 2151.2 235.691 2151.53 236.668C2152.02 237.482 2152.5 238.458 2152.99 239.598C2153.64 240.574 2154.21 241.632 2154.7 242.771C2155.19 243.748 2155.6 244.48 2155.92 244.969C2156.9 248.712 2158.44 252.618 2160.56 256.688C2162.84 260.594 2164.22 264.419 2164.71 268.162V277.195L2166.91 282.566V288.914C2166.91 295.913 2166.58 303.074 2165.93 310.398C2165.44 317.56 2164.87 324.64 2164.22 331.639L2165.93 349.461V352.635L2164.71 357.029V370.945C2164.55 371.759 2164.39 373.468 2164.22 376.072C2164.06 378.514 2163.9 381.118 2163.73 383.885C2163.73 386.489 2163.65 388.93 2163.49 391.209C2163.49 393.488 2163.49 394.871 2163.49 395.359L2163 400.975C2163 402.765 2163.08 405.206 2163.25 408.299C2163.57 411.391 2164.06 413.589 2164.71 414.891C2165.04 415.542 2165.69 416.6 2166.66 418.064C2167.64 419.529 2170.33 421.401 2174.72 423.68C2177.32 424.982 2179.36 426.202 2180.82 427.342C2182.45 428.318 2183.75 429.295 2184.73 430.271C2185.87 431.085 2186.76 431.818 2187.42 432.469C2188.23 432.957 2189.12 433.445 2190.1 433.934C2191.73 434.91 2192.54 436.701 2192.54 439.305C2192.54 442.723 2191.81 445.245 2190.35 446.873C2189.69 448.175 2189.12 448.989 2188.64 449.314C2188.31 449.477 2187.9 449.559 2187.42 449.559H2184.97C2184.65 449.559 2184.32 449.64 2184 449.803C2183.67 449.803 2183.18 449.803 2182.53 449.803L2156.17 446.629L2149.09 446.873H2124.67C2123.86 446.873 2122.47 447.361 2120.52 448.338C2118.57 449.152 2117.27 449.559 2116.62 449.559L2105.63 446.873H2100.99C2099.2 446.873 2098.22 446.466 2098.06 445.652L2097.57 437.596C2097.57 434.666 2098.55 432.632 2100.5 431.492C2102.46 430.19 2104.25 428.562 2105.87 426.609C2108.15 423.68 2110.35 421.076 2112.46 418.797C2114.74 416.518 2117.51 414.646 2120.77 413.182L2125.4 406.834L2121.99 384.861L2125.89 369.236L2124.92 355.809C2124.75 354.995 2124.67 354.344 2124.67 353.855C2124.67 353.204 2124.67 352.553 2124.67 351.902C2124.67 351.089 2124.67 350.438 2124.67 349.949C2124.83 349.461 2125.24 348.81 2125.89 347.996C2124.1 338.068 2123.21 327.814 2123.21 317.234V307.957C2124.51 306.167 2125.24 304.783 2125.4 303.807C2125.73 302.83 2125.89 301.691 2125.89 300.389V296.971L2121.5 273.289C2121.34 273.289 2121.09 273.208 2120.77 273.045C2120.44 272.719 2120.28 272.394 2120.28 272.068C2119.95 272.068 2119.38 271.906 2118.57 271.58C2117.92 271.255 2117.18 270.848 2116.37 270.359C2115.72 269.871 2115.07 269.464 2114.42 269.139C2113.77 268.65 2113.36 268.325 2113.2 268.162L2106.85 263.279C2105.55 261.489 2103.76 260.431 2101.48 260.105C2099.2 259.617 2096.76 259.373 2094.15 259.373H2088.29C2085.37 259.373 2082.92 259.454 2080.97 259.617C2079.18 259.617 2076.66 259.943 2073.4 260.594C2070.31 262.059 2068.11 263.605 2066.81 265.232C2065.51 266.046 2064.21 266.941 2062.9 267.918C2061.6 268.732 2060.3 269.546 2059 270.359C2058.84 270.685 2057.94 271.092 2056.31 271.58C2054.68 271.906 2053.63 272.068 2053.14 272.068C2049.4 273.37 2046.55 275.161 2044.59 277.439C2042.8 279.718 2041.01 282.566 2039.22 285.984C2039.06 286.31 2038.65 286.961 2038 287.938C2037.35 288.914 2036.62 290.053 2035.8 291.355C2034.99 292.495 2034.26 293.634 2033.61 294.773C2032.96 295.75 2032.55 296.482 2032.39 296.971V301.609C2032.55 302.098 2032.71 303.725 2032.88 306.492C2033.04 309.096 2033.2 312.026 2033.36 315.281C2033.53 318.374 2033.61 321.385 2033.61 324.314C2033.77 327.081 2033.85 328.79 2033.85 329.441V335.057L2038 343.113V345.555C2038 348.159 2037.68 350.763 2037.03 353.367C2036.54 355.971 2036.29 358.576 2036.29 361.18L2038 372.654C2038 376.723 2037.68 380.63 2037.03 384.373C2036.37 388.117 2035.8 392.186 2035.32 396.58C2035.32 396.906 2035.24 398.045 2035.07 399.998C2035.07 401.788 2035.07 403.335 2035.07 404.637C2035.07 405.125 2035.15 405.857 2035.32 406.834C2035.64 407.648 2035.89 408.624 2036.05 409.764C2036.21 410.74 2036.37 411.717 2036.54 412.693C2036.86 413.507 2037.03 414.077 2037.03 414.402C2037.35 415.542 2037.68 416.355 2038 416.844C2038.33 417.169 2038.57 417.413 2038.73 417.576C2039.06 417.739 2039.39 417.983 2039.71 418.309C2040.04 418.471 2040.44 419.041 2040.93 420.018C2040.93 420.018 2041.18 420.343 2041.66 420.994C2042.15 421.645 2042.64 422.378 2043.13 423.191C2043.78 423.842 2044.35 424.493 2044.84 425.145C2045.49 425.796 2045.9 426.284 2046.06 426.609C2046.71 426.935 2048.09 427.342 2050.21 427.83C2052.49 428.318 2054.85 428.888 2057.29 429.539C2059.89 430.19 2062.42 431.004 2064.86 431.98C2067.3 432.794 2069.01 433.689 2069.98 434.666C2071.29 435.317 2072.02 435.968 2072.18 436.619C2072.51 437.107 2072.67 437.758 2072.67 438.572V443.455C2072.67 444.269 2072.51 445.164 2072.18 446.141C2072.02 446.954 2071.29 447.931 2069.98 449.07C2067.87 450.21 2064.78 451.105 2060.71 451.756C2056.64 452.244 2053.3 452.488 2050.7 452.488C2048.42 452.488 2046.38 452.407 2044.59 452.244C2042.97 452.081 2041.5 452 2040.2 452H2032.39L2025.31 450.779C2024.17 450.454 2023.03 450.21 2021.89 450.047C2020.91 449.884 2019.53 449.803 2017.74 449.803C2015.95 449.803 2014.08 449.803 2012.12 449.803C2010.33 449.803 2008.54 449.965 2006.75 450.291L1998.7 450.779C1996.9 451.268 1995.44 451.674 1994.3 452C1993.16 452.163 1992.02 452.326 1990.88 452.488C1989.91 452.814 1988.85 452.977 1987.71 452.977C1986.57 453.139 1985.19 453.221 1983.56 453.221C1982.74 453.221 1981.36 453.058 1979.41 452.732C1977.46 452.407 1975.42 452 1973.3 451.512C1971.35 451.023 1969.48 450.372 1967.69 449.559C1966.06 448.745 1965 447.85 1964.52 446.873C1963.38 445.734 1962.81 444.513 1962.81 443.211C1962.81 442.723 1962.89 442.316 1963.05 441.99C1963.21 441.502 1963.29 440.77 1963.29 439.793C1963.46 437.189 1963.95 435.561 1964.76 434.91C1965.74 434.096 1966.79 433.283 1967.93 432.469C1969.07 431.492 1971.11 430.923 1974.04 430.76C1976.97 430.597 1979.9 430.19 1982.83 429.539C1985.92 428.888 1988.6 427.667 1990.88 425.877C1993.32 424.087 1994.54 420.994 1994.54 416.6L1994.79 410.252L1992.35 400.486L1994.79 371.434L1991.86 342.137C1991.86 338.556 1992.51 335.301 1993.81 332.371C1995.11 329.441 1995.77 326.349 1995.77 323.094L1990.64 314.793V311.863L1992.35 305.76V293.553C1992.35 286.066 1991.53 280.044 1989.91 275.486C1988.44 270.929 1986.08 267.43 1982.83 264.988C1979.73 262.547 1975.58 260.919 1970.38 260.105C1965.33 259.292 1959.31 258.885 1952.31 258.885C1951.01 258.885 1949.46 258.966 1947.67 259.129C1946.04 259.292 1944.9 259.373 1944.25 259.373L1925.7 266.941C1923.42 267.592 1921.47 268.162 1919.84 268.65C1918.37 269.139 1916.75 270.278 1914.96 272.068C1913.98 272.882 1912.92 274.103 1911.78 275.73C1910.64 277.358 1909.58 279.23 1908.61 281.346C1907.63 283.299 1906.74 285.333 1905.92 287.449C1905.27 289.402 1904.95 291.03 1904.95 292.332C1904.95 293.146 1905.03 293.878 1905.19 294.529C1905.51 295.018 1905.84 295.831 1906.17 296.971V313.572L1909.1 322.361V340.428C1909.1 340.753 1909.26 341.567 1909.58 342.869C1910.07 344.171 1910.48 344.904 1910.8 345.066V349.461C1910.48 349.624 1910.07 350.6 1909.58 352.391C1909.26 354.181 1909.1 355.32 1909.1 355.809V369.725L1906.17 391.697C1906.17 391.86 1906.08 392.674 1905.92 394.139C1905.92 395.604 1905.84 397.231 1905.68 399.021C1905.51 400.812 1905.35 402.521 1905.19 404.148C1905.19 405.776 1905.11 406.915 1904.95 407.566C1904.95 409.845 1905.19 411.798 1905.68 413.426C1906.33 414.891 1907.14 416.274 1908.12 417.576C1909.26 418.715 1910.56 419.773 1912.03 420.75C1913.49 421.727 1915.04 422.866 1916.66 424.168C1917.48 424.819 1918.45 425.389 1919.59 425.877C1920.73 426.365 1922.04 426.609 1923.5 426.609L1929.12 430.027C1930.74 430.027 1932.21 430.19 1933.51 430.516C1934.81 430.841 1935.87 431.492 1936.68 432.469C1937.5 433.608 1937.99 434.503 1938.15 435.154C1938.31 435.805 1938.47 436.619 1938.64 437.596V441.014C1938.64 442.316 1938.56 443.618 1938.39 444.92C1938.23 446.059 1937.66 447.036 1936.68 447.85C1934.4 449.965 1931.31 451.186 1927.41 451.512C1923.5 451.837 1920.08 452 1917.15 452L1900.79 451.268H1871.99L1846.6 452.732C1846.27 452.732 1845.78 452.651 1845.13 452.488C1844.64 452.488 1844.15 452.326 1843.67 452C1843.34 451.674 1842.36 451.512 1840.74 451.512C1839.11 451.349 1837.97 451.105 1837.32 450.779C1836.18 449.965 1835.45 448.663 1835.12 446.873C1834.96 445.083 1834.88 443.292 1834.88 441.502ZM2325.84 423.191C2325.19 423.517 2324.13 424.493 2322.67 426.121C2321.37 427.586 2320.31 428.318 2319.5 428.318L2310.22 432.957C2309.89 433.12 2309.32 433.527 2308.51 434.178C2307.86 434.666 2307.04 435.317 2306.07 436.131C2305.25 436.782 2304.52 437.433 2303.87 438.084C2303.22 438.572 2302.81 438.816 2302.65 438.816C2302.32 438.979 2301.67 439.142 2300.7 439.305C2299.88 439.467 2298.91 439.63 2297.77 439.793C2296.79 439.956 2295.81 440.118 2294.84 440.281C2294.02 440.281 2293.37 440.281 2292.88 440.281C2291.58 440.607 2290.36 441.176 2289.22 441.99C2288.25 442.804 2287.19 443.781 2286.05 444.92C2285.07 445.896 2283.93 446.954 2282.63 448.094C2281.33 449.07 2279.86 449.965 2278.24 450.779H2255.04C2254.23 450.779 2253.09 450.617 2251.62 450.291C2250.32 449.965 2248.86 449.559 2247.23 449.07C2245.77 448.582 2244.3 448.012 2242.84 447.361C2241.37 446.71 2240.23 446.141 2239.42 445.652C2239.42 445.327 2238.93 444.594 2237.95 443.455C2237.14 442.153 2236.65 441.095 2236.49 440.281C2236.16 439.956 2235.92 439.549 2235.76 439.061C2235.27 438.572 2235.02 438.084 2235.02 437.596L2228.43 431.248C2227.13 428.644 2225.99 425.389 2225.01 421.482C2224.2 417.413 2223.79 414.077 2223.79 411.473L2225.5 406.346L2223.79 401.219V398.289C2223.79 397.475 2223.96 396.417 2224.28 395.115C2224.77 393.65 2225.26 392.267 2225.75 390.965C2226.23 389.5 2226.72 388.198 2227.21 387.059C2227.7 385.757 2228.11 384.861 2228.43 384.373C2228.59 384.21 2229.16 383.641 2230.14 382.664C2231.28 381.525 2232.5 380.304 2233.8 379.002C2235.1 377.537 2236.24 376.235 2237.22 375.096C2238.36 373.956 2239.09 373.143 2239.42 372.654C2239.58 372.654 2240.15 372.085 2241.13 370.945C2242.27 369.806 2242.84 369.074 2242.84 368.748L2243.32 367.771C2243.49 367.446 2243.57 367.12 2243.57 366.795C2246.34 365.005 2249.02 363.133 2251.62 361.18C2254.23 359.064 2257.16 357.273 2260.41 355.809C2260.58 355.646 2261.72 355.158 2263.83 354.344C2266.11 353.367 2268.55 352.391 2271.16 351.414C2273.92 350.275 2276.61 349.298 2279.21 348.484C2281.82 347.671 2283.77 347.101 2285.07 346.775C2286.7 345.962 2288.41 344.904 2290.2 343.602C2291.99 342.299 2293.7 341.079 2295.33 339.939C2297.12 338.8 2298.74 337.824 2300.21 337.01C2301.67 336.033 2302.89 335.545 2303.87 335.545H2310.22C2310.38 335.545 2310.87 335.301 2311.68 334.812C2312.01 334.65 2312.42 334.406 2312.9 334.08C2313.56 333.917 2315.1 333.673 2317.54 333.348C2320.15 333.022 2321.86 332.859 2322.67 332.859L2325.84 328.709C2326.98 328.058 2328.12 327.57 2329.26 327.244C2330.4 326.756 2331.46 326.268 2332.44 325.779C2333.41 325.291 2334.23 324.64 2334.88 323.826C2335.69 322.85 2336.34 321.548 2336.83 319.92C2337.97 316.502 2338.7 312.921 2339.03 309.178C2339.52 305.271 2339.76 301.609 2339.76 298.191V292.82C2339.76 292.495 2339.27 291.6 2338.29 290.135C2337.32 288.67 2336.83 287.612 2336.83 286.961L2333.9 274.51L2328.53 267.918L2325.84 262.791C2325.19 262.465 2324.54 261.652 2323.89 260.35C2323.24 259.048 2322.83 257.99 2322.67 257.176C2322.34 256.199 2321.12 255.304 2319.01 254.49C2316.89 253.514 2314.53 252.7 2311.93 252.049C2309.32 251.235 2306.72 250.665 2304.12 250.34C2301.67 249.852 2299.96 249.607 2298.99 249.607C2298.66 249.607 2297.36 249.607 2295.08 249.607C2292.97 249.445 2291.18 249.363 2289.71 249.363C2288.25 249.363 2286.21 249.526 2283.61 249.852C2281.17 250.014 2278.81 250.503 2276.53 251.316C2274.25 251.967 2272.21 252.944 2270.42 254.246C2268.8 255.548 2267.98 257.257 2267.98 259.373V261.57C2268.15 261.896 2268.47 262.628 2268.96 263.768C2269.45 264.744 2269.94 265.883 2270.42 267.186C2270.91 268.325 2271.32 269.464 2271.64 270.604C2272.13 271.58 2272.38 272.231 2272.38 272.557C2272.38 273.208 2272.13 274.184 2271.64 275.486C2271.32 276.626 2270.99 277.846 2270.67 279.148C2269.53 284.357 2267.98 288.344 2266.03 291.111C2264.08 293.878 2260.98 296.564 2256.75 299.168L2253.82 301.365C2253.17 301.854 2252.6 302.342 2252.11 302.83H2233.56C2232.09 302.83 2230.87 302.26 2229.9 301.121C2228.92 299.982 2228.11 298.68 2227.46 297.215C2226.8 295.587 2226.32 294.041 2225.99 292.576C2225.66 290.949 2225.5 289.728 2225.5 288.914C2225.5 287.938 2225.66 286.635 2225.99 285.008C2226.32 283.38 2226.8 281.834 2227.46 280.369C2228.11 278.742 2228.76 277.277 2229.41 275.975C2230.22 274.51 2231.04 273.37 2231.85 272.557C2232.34 271.417 2232.91 270.441 2233.56 269.627C2233.88 268.813 2234.21 268.162 2234.54 267.674C2235.02 267.186 2235.35 266.86 2235.51 266.697L2239.42 262.791C2243 260.512 2246.01 258.152 2248.45 255.711C2250.89 253.27 2253.74 250.665 2257 247.898L2274.09 236.668C2275.71 235.203 2277.18 234.145 2278.48 233.494C2279.95 232.68 2281.41 232.029 2282.88 231.541C2284.34 231.053 2285.8 230.646 2287.27 230.32C2288.9 229.995 2290.77 229.425 2292.88 228.611C2293.05 228.611 2293.45 228.449 2294.11 228.123C2294.92 227.798 2295.73 227.472 2296.55 227.146C2297.36 226.658 2298.17 226.251 2298.99 225.926C2299.8 225.6 2300.37 225.356 2300.7 225.193C2301.51 225.031 2303.06 224.705 2305.34 224.217C2307.78 223.729 2310.3 223.24 2312.9 222.752C2315.67 222.264 2318.28 221.857 2320.72 221.531C2323.16 221.206 2324.87 221.043 2325.84 221.043C2326.66 221.043 2327.39 221.368 2328.04 222.02C2328.85 222.508 2329.42 222.752 2329.75 222.752C2330.24 222.752 2330.97 222.833 2331.95 222.996C2332.92 222.996 2333.9 223.077 2334.88 223.24C2336.02 223.403 2336.99 223.566 2337.81 223.729C2338.78 223.729 2339.43 223.81 2339.76 223.973C2340.74 224.298 2342.04 224.786 2343.67 225.438C2345.29 225.926 2346.92 226.495 2348.55 227.146C2350.18 227.798 2351.64 228.367 2352.94 228.855C2354.25 229.344 2355.06 229.669 2355.38 229.832C2355.55 229.995 2355.95 230.402 2356.61 231.053C2357.26 231.704 2357.99 232.518 2358.8 233.494C2359.78 234.308 2360.67 235.122 2361.49 235.936C2362.3 236.749 2362.87 237.4 2363.2 237.889C2364.99 240.493 2366.78 242.853 2368.57 244.969C2370.52 247.085 2371.9 249.526 2372.72 252.293C2373.53 253.921 2374.1 255.711 2374.43 257.664C2374.92 259.454 2375.32 261.245 2375.65 263.035C2376.14 264.826 2376.71 266.535 2377.36 268.162C2378.01 269.79 2379.07 271.255 2380.53 272.557V287.693C2380.53 298.436 2380.12 309.015 2379.31 319.432C2378.66 329.686 2378.17 340.265 2377.85 351.17C2377.19 352.798 2376.62 354.425 2376.14 356.053C2375.65 357.518 2375.4 359.227 2375.4 361.18C2375.4 362.645 2375.57 364.272 2375.89 366.062C2376.38 367.853 2376.62 369.155 2376.62 369.969L2374.43 374.607C2374.26 375.258 2374.18 375.91 2374.18 376.561V379.246C2374.18 381.688 2374.26 384.292 2374.43 387.059C2374.59 389.826 2375 392.592 2375.65 395.359C2376.3 398.126 2377.19 400.73 2378.33 403.172C2379.64 405.613 2381.43 407.648 2383.71 409.275C2384.52 409.926 2385.58 410.903 2386.88 412.205C2388.34 413.344 2389.4 413.914 2390.05 413.914H2391.03C2392.66 413.914 2394.53 413.67 2396.64 413.182C2398.76 412.531 2400.96 411.88 2403.24 411.229C2405.51 410.415 2407.79 409.682 2410.07 409.031C2412.51 408.38 2414.87 408.055 2417.15 408.055C2420.24 408.055 2421.79 409.031 2421.79 410.984C2421.79 416.193 2420.73 421.238 2418.62 426.121C2416.66 431.004 2413.9 435.398 2410.32 439.305C2406.74 443.048 2402.59 446.141 2397.87 448.582C2393.15 450.861 2388.02 452 2382.48 452C2376.95 452 2371.58 451.756 2366.37 451.268C2361.16 450.617 2355.47 449.152 2349.28 446.873L2347.57 445.652C2347.25 445.327 2346.43 444.35 2345.13 442.723C2343.99 440.932 2342.69 439.061 2341.22 437.107C2339.92 435.154 2338.7 433.364 2337.56 431.736C2336.42 429.946 2335.77 428.807 2335.61 428.318L2329.75 423.191H2328.04H2325.84ZM2270.67 386.57C2270.67 389.174 2271.07 392.186 2271.89 395.604C2272.87 399.021 2274.25 402.277 2276.04 405.369C2277.83 408.299 2280.03 410.822 2282.63 412.938C2285.24 415.053 2288.16 416.111 2291.42 416.111C2292.07 416.111 2292.64 416.03 2293.13 415.867C2293.62 415.704 2295 415.053 2297.28 413.914L2319.5 411.961C2319.98 411.635 2320.72 410.984 2321.69 410.008C2322.83 408.868 2323.89 407.729 2324.87 406.59C2326.01 405.451 2326.98 404.393 2327.8 403.416C2328.77 402.439 2329.42 401.707 2329.75 401.219C2329.91 401.219 2330.16 400.73 2330.48 399.754C2330.97 398.777 2331.54 397.557 2332.19 396.092C2332.84 394.627 2333.41 393.081 2333.9 391.453C2334.55 389.826 2335.12 388.361 2335.61 387.059C2335.93 386.245 2336.18 385.024 2336.34 383.396C2336.67 381.769 2336.83 380.874 2336.83 380.711C2336.67 378.921 2336.5 377.13 2336.34 375.34C2336.18 373.549 2336.1 371.759 2336.1 369.969C2336.1 368.341 2336.18 366.876 2336.34 365.574C2336.5 364.109 2336.67 362.645 2336.83 361.18L2338.54 355.809V351.414C2338.54 348.647 2337.64 346.124 2335.85 343.846C2334.06 341.567 2331.46 340.428 2328.04 340.428C2325.27 340.428 2322.91 341.079 2320.96 342.381C2319.17 343.52 2317.05 344.985 2314.61 346.775C2313.8 347.264 2312.17 348.159 2309.73 349.461C2307.29 350.6 2304.68 351.821 2301.92 353.123C2299.31 354.262 2296.79 355.402 2294.35 356.541C2292.07 357.68 2290.52 358.413 2289.71 358.738L2285.07 361.18C2284.75 361.18 2284.1 361.342 2283.12 361.668C2282.14 361.993 2281.65 362.238 2281.65 362.4L2278.24 368.748L2272.38 374.607C2271.56 376.398 2271.07 378.514 2270.91 380.955C2270.75 383.234 2270.67 385.105 2270.67 386.57ZM2453.04 417.332C2453.04 407.566 2455.16 400.161 2459.39 395.115C2463.62 389.907 2470.86 387.303 2481.12 387.303C2484.54 387.303 2487.55 387.872 2490.15 389.012C2492.75 390.151 2495.44 391.29 2498.21 392.43C2501.79 394.22 2504.47 395.929 2506.26 397.557C2508.22 399.184 2509.6 401.056 2510.41 403.172C2511.39 405.125 2511.96 407.404 2512.12 410.008C2512.29 412.612 2512.37 415.786 2512.37 419.529V433.934C2512.04 435.236 2511.07 436.945 2509.44 439.061C2507.97 441.014 2506.18 442.967 2504.07 444.92C2502.11 446.873 2500.08 448.582 2497.96 450.047C2495.85 451.349 2494.06 452 2492.59 452C2486.9 450.861 2481.61 449.559 2476.72 448.094C2472 446.629 2467.85 444.676 2464.27 442.234C2460.85 439.793 2458.09 436.619 2455.97 432.713C2454.02 428.644 2453.04 423.517 2453.04 417.332ZM2563.64 452C2561.68 452 2560.14 452.326 2559 452.977C2558.02 453.79 2556.96 454.197 2555.82 454.197C2555.17 454.197 2554.36 453.872 2553.38 453.221C2552.57 452.57 2551.27 451.756 2549.48 450.779C2549.15 450.617 2548.91 450.21 2548.74 449.559C2548.74 448.745 2548.58 447.85 2548.26 446.873C2547.93 445.896 2547.69 444.676 2547.52 443.211C2547.52 443.048 2547.69 442.641 2548.01 441.99C2548.5 441.176 2548.99 440.363 2549.48 439.549C2549.96 438.572 2550.45 437.677 2550.94 436.863C2551.43 436.049 2551.84 435.48 2552.16 435.154L2556.8 432.469H2562.17C2565.92 432.469 2569.25 432.225 2572.18 431.736C2575.27 431.085 2577.72 429.214 2579.51 426.121C2580.16 420.587 2580.65 415.298 2580.97 410.252C2581.3 405.206 2582.11 400.242 2583.41 395.359L2586.34 383.885V361.18L2587.56 339.207V324.803C2587.56 324.477 2587.4 323.663 2587.07 322.361C2586.75 320.896 2586.42 319.35 2586.1 317.723C2585.77 315.932 2585.45 314.305 2585.12 312.84C2584.8 311.212 2584.63 309.992 2584.63 309.178V285.984C2583.98 284.194 2582.92 281.997 2581.46 279.393C2579.99 276.788 2578.53 274.917 2577.06 273.777L2569.5 271.336C2566.73 269.383 2564.21 267.267 2561.93 264.988C2559.81 262.71 2558.1 259.861 2556.8 256.443C2556.8 254.653 2557.21 253.27 2558.02 252.293C2558.84 251.316 2559.89 250.584 2561.2 250.096C2562.5 249.607 2563.88 249.201 2565.35 248.875C2566.81 248.549 2568.19 248.224 2569.5 247.898L2587.56 238.621C2589.03 237.97 2590.25 237.482 2591.22 237.156C2592.36 236.668 2593.42 236.18 2594.4 235.691C2595.38 235.203 2596.27 234.633 2597.08 233.982C2598.06 233.331 2599.12 232.355 2600.26 231.053L2607.34 230.564C2608.15 230.564 2609.37 230.646 2611 230.809C2612.79 230.971 2613.85 231.053 2614.17 231.053C2614.66 231.053 2615.48 231.134 2616.62 231.297C2617.75 231.46 2618.98 231.704 2620.28 232.029C2621.58 232.355 2622.8 232.68 2623.94 233.006C2625.08 233.331 2625.89 233.576 2626.38 233.738C2627.85 234.389 2628.74 235.773 2629.07 237.889C2629.55 239.842 2629.8 241.632 2629.8 243.26V251.072L2628.09 256.932C2627.28 267.511 2626.87 277.928 2626.87 288.182C2626.87 298.436 2626.71 309.015 2626.38 319.92L2625.16 328.709C2625 328.872 2624.83 329.441 2624.67 330.418C2624.67 331.395 2624.67 332.534 2624.67 333.836C2624.67 335.138 2624.67 336.44 2624.67 337.742C2624.67 338.882 2624.67 339.777 2624.67 340.428C2624.67 341.567 2624.67 342.869 2624.67 344.334C2624.67 345.799 2624.67 347.182 2624.67 348.484C2624.67 349.786 2624.67 350.926 2624.67 351.902C2624.83 352.716 2625 353.123 2625.16 353.123C2625.16 353.611 2625.32 354.751 2625.65 356.541C2625.97 358.169 2626.22 359.145 2626.38 359.471V364.598C2626.38 365.086 2626.3 366.388 2626.14 368.504C2625.97 370.62 2625.81 373.061 2625.65 375.828C2625.49 378.432 2625.32 381.036 2625.16 383.641C2625.16 386.082 2625.16 387.872 2625.16 389.012C2625.16 390.477 2625.24 392.837 2625.4 396.092C2625.73 399.184 2626.06 402.521 2626.38 406.102C2626.87 409.682 2627.28 413.1 2627.6 416.355C2627.93 419.448 2628.09 421.645 2628.09 422.947C2628.09 424.738 2628.99 426.202 2630.78 427.342C2632.73 428.318 2634.27 428.969 2635.41 429.295C2635.9 429.295 2636.88 429.376 2638.34 429.539C2639.97 429.702 2641.68 429.865 2643.47 430.027C2645.26 430.19 2646.89 430.353 2648.35 430.516C2649.98 430.516 2651.12 430.516 2651.77 430.516C2652.91 431.818 2653.81 433.201 2654.46 434.666C2655.27 436.131 2655.68 438.003 2655.68 440.281C2655.68 442.56 2655.43 444.757 2654.95 446.873C2654.62 448.989 2653.72 450.454 2652.26 451.268C2650.31 452.895 2648.11 453.79 2645.67 453.953C2643.39 454.279 2640.95 454.441 2638.34 454.441H2633.95L2628.09 452H2598.06C2597.9 452 2596.84 451.837 2594.89 451.512C2592.93 451.023 2591.63 450.779 2590.98 450.779H2584.14L2563.64 452ZM2570.72 128.514L2578.29 120.945L2586.34 114.598L2588.78 109.471C2590.74 108.006 2592.93 107.192 2595.38 107.029C2597.82 106.704 2600.01 106.541 2601.97 106.541H2604.41C2604.57 106.704 2605.06 106.948 2605.87 107.273C2606.69 107.599 2607.5 107.924 2608.31 108.25C2609.13 108.576 2609.86 108.901 2610.51 109.227C2611.33 109.389 2611.9 109.471 2612.22 109.471C2612.87 109.796 2613.85 110.122 2615.15 110.447C2616.62 110.61 2618.08 110.854 2619.54 111.18C2621.01 111.342 2622.39 111.505 2623.7 111.668C2625 111.668 2625.89 111.668 2626.38 111.668C2627.03 111.831 2627.76 112.807 2628.58 114.598C2629.39 116.388 2630.04 118.423 2630.53 120.701C2631.18 122.817 2631.67 124.933 2632 127.049C2632.48 129.002 2632.73 130.304 2632.73 130.955C2632.73 135.024 2632.24 138.849 2631.26 142.43C2630.45 145.848 2628.42 148.94 2625.16 151.707C2625 151.87 2624.51 152.114 2623.7 152.439C2623.04 152.602 2622.31 152.846 2621.5 153.172C2620.68 153.335 2619.87 153.579 2619.06 153.904C2618.41 154.067 2618.08 154.148 2618.08 154.148C2617.92 154.474 2617.51 155.044 2616.86 155.857C2616.21 156.508 2615.48 157.241 2614.66 158.055C2613.85 158.706 2613.03 159.357 2612.22 160.008C2611.41 160.496 2610.92 160.822 2610.76 160.984C2609.78 162.124 2608.31 162.775 2606.36 162.938C2604.57 163.1 2602.86 163.182 2601.23 163.182H2591.71C2589.92 163.182 2588.38 163.1 2587.07 162.938C2585.77 162.612 2583.98 161.554 2581.7 159.764C2578.94 155.695 2576.33 151.951 2573.89 148.533C2571.45 145.115 2570.23 140.802 2570.23 135.594L2570.72 128.514ZM2709.39 358.25L2707.92 333.836L2709.39 308.445V301.121C2709.55 300.307 2709.8 299.331 2710.12 298.191C2710.45 297.052 2710.61 296.076 2710.61 295.262C2710.61 290.542 2709.88 285.74 2708.41 280.857C2706.95 275.812 2705.81 270.929 2704.99 266.209C2703.37 265.07 2701.01 264.256 2697.91 263.768C2694.98 263.279 2692.05 262.71 2689.12 262.059C2686.2 261.245 2683.59 260.105 2681.31 258.641C2679.2 257.176 2678.14 254.897 2678.14 251.805C2678.14 248.387 2679.28 245.864 2681.56 244.236C2683.84 242.446 2686.52 240.981 2689.61 239.842C2692.87 238.54 2696.12 237.4 2699.38 236.424C2702.8 235.447 2705.56 233.982 2707.68 232.029C2709.8 230.239 2712.16 228.042 2714.76 225.438C2717.36 222.833 2719.24 220.799 2720.38 219.334C2721.68 216.73 2723.39 213.475 2725.5 209.568C2727.78 205.662 2730.22 201.919 2732.83 198.338C2735.43 194.594 2738.2 191.421 2741.13 188.816C2744.06 186.049 2746.99 184.666 2749.92 184.666C2751.87 184.666 2753.42 185.236 2754.55 186.375C2755.86 187.352 2756.83 188.654 2757.48 190.281C2758.3 191.746 2758.87 193.374 2759.19 195.164C2759.52 196.954 2759.76 198.663 2759.93 200.291V228.611L2761.15 230.32H2772.62C2776.69 230.32 2780.43 230.076 2783.85 229.588C2787.27 228.937 2790.44 228.286 2793.37 227.635C2796.47 226.821 2799.4 226.17 2802.16 225.682C2805.09 225.031 2808.18 224.705 2811.44 224.705C2816 224.705 2819.82 226.414 2822.91 229.832C2826.01 233.25 2827.55 237.319 2827.55 242.039C2827.55 245.783 2826.9 248.875 2825.6 251.316C2824.46 253.758 2822.75 255.711 2820.47 257.176C2818.19 258.641 2815.51 259.699 2812.42 260.35C2809.32 260.838 2805.91 261.082 2802.16 261.082L2786.05 259.861L2773.84 261.082L2762.12 259.861C2759.84 259.861 2757.73 260.919 2755.78 263.035C2753.99 264.988 2753.09 266.86 2753.09 268.65L2755.29 286.961C2755.29 289.24 2754.96 291.437 2754.31 293.553C2753.66 295.669 2752.93 297.866 2752.11 300.145C2751.3 302.26 2750.57 304.458 2749.92 306.736C2749.26 309.015 2748.94 311.375 2748.94 313.816V318.211L2751.14 346.531C2750.65 347.508 2750.32 348.484 2750.16 349.461C2750.16 350.438 2750.16 351.658 2750.16 353.123C2750.16 354.262 2750.32 355.32 2750.65 356.297C2750.97 357.273 2751.14 358.169 2751.14 358.982C2751.62 363.702 2751.87 368.341 2751.87 372.898C2751.87 376.967 2751.71 380.874 2751.38 384.617C2751.06 388.361 2750.57 392.104 2749.92 395.848C2750.08 396.01 2750.4 396.499 2750.89 397.312C2751.38 397.964 2751.87 398.777 2752.36 399.754C2753.01 400.568 2753.58 401.463 2754.07 402.439C2754.55 403.253 2754.96 403.742 2755.29 403.904C2756.59 405.857 2758.05 407.322 2759.68 408.299C2761.31 409.275 2762.94 410.171 2764.56 410.984C2766.35 411.635 2768.15 412.368 2769.94 413.182C2771.89 413.995 2773.76 415.216 2775.55 416.844H2784.83C2788.57 416.844 2792.15 416.437 2795.57 415.623C2798.99 414.809 2802.24 413.995 2805.34 413.182C2808.59 412.205 2811.68 411.31 2814.61 410.496C2817.71 409.682 2820.88 409.275 2824.13 409.275C2826.09 409.275 2827.55 410.252 2828.53 412.205C2829.51 414.158 2829.99 416.03 2829.99 417.82C2829.99 418.797 2829.91 419.611 2829.75 420.262C2829.75 420.75 2829.59 421.238 2829.26 421.727C2828.94 422.215 2828.45 422.785 2827.8 423.436C2827.31 424.087 2826.66 424.982 2825.84 426.121L2822.43 431.004C2821.94 431.329 2821.12 432.143 2819.98 433.445C2819.01 434.747 2817.87 436.212 2816.57 437.84C2815.26 439.305 2813.96 440.77 2812.66 442.234C2811.36 443.536 2810.38 444.513 2809.73 445.164C2808.1 446.954 2805.66 448.663 2802.41 450.291C2799.15 451.919 2795.73 453.302 2792.15 454.441C2788.57 455.743 2785.07 456.72 2781.65 457.371C2778.4 458.022 2775.79 458.348 2773.84 458.348L2742.59 452C2739.82 451.186 2736.73 449.965 2733.31 448.338C2729.9 446.71 2726.56 444.839 2723.3 442.723C2720.21 440.444 2717.45 437.921 2715 435.154C2712.73 432.387 2711.26 429.376 2710.61 426.121V409.275C2709.8 403.742 2708.82 398.533 2707.68 393.65C2706.7 388.605 2706.21 383.396 2706.21 378.025L2709.39 358.25Z" fill="black"/>
<path d="M27.2222 345.357C27.2222 345.357 17.7222 165.357 27.2222 146.357C36.7222 127.356 285.722 146.357 291.222 177.357C296.722 208.357 302.222 400.856 291.222 419.857C280.222 438.857 27.2222 405.857 27.2222 405.857" stroke="black" stroke-width="40" stroke-linecap="round" stroke-linejoin="round"/>
<path d="M123.781 218.081C106.263 207.716 68.5458 205.762 67.1062 218.755C65.6666 231.749 109.41 350.753 133.828 345.389C158.246 340.026 471.76 98.6446 463.396 81.5408C455.031 64.437 410.031 56.6163 396.462 63.48C382.894 70.3437 153.884 262.158 147.86 262.448C141.836 262.737 134.027 224.143 123.781 218.081Z" fill="#E64545"/>
</svg>
