<svg width="50" height="9" viewBox="0 0 50 9" fill="none" xmlns="http://www.w3.org/2000/svg">
<path d="M20.5284 5.79623C20.3737 6.02854 20.1646 6.25933 19.9013 6.48859C19.6379 6.71479 19.3367 6.91959 18.9976 7.103C18.6618 7.28335 18.2947 7.42854 17.8964 7.53859C17.498 7.65169 17.0865 7.70824 16.6618 7.70824C16.3293 7.70824 15.9968 7.68073 15.6643 7.62571C15.3351 7.57068 15.0174 7.48662 14.7112 7.37352C14.4083 7.26042 14.1252 7.11828 13.8619 6.9471C13.6018 6.77287 13.3746 6.56806 13.1804 6.33269C12.9861 6.09732 12.8331 5.82985 12.7211 5.53029C12.6125 5.23073 12.5582 4.89754 12.5582 4.53073C12.5582 4.17308 12.6141 3.83378 12.7261 3.51282C12.8413 3.19186 13.001 2.89535 13.2051 2.6233C13.4092 2.34819 13.6512 2.10059 13.931 1.88051C14.2108 1.66042 14.517 1.47396 14.8495 1.32112C15.182 1.16522 15.5326 1.04601 15.9013 0.963474C16.27 0.880942 16.647 0.839675 17.0322 0.839675C17.4569 0.839675 17.8552 0.887055 18.2272 0.981815C18.6025 1.07352 18.9301 1.20496 19.2099 1.37614C19.4898 1.54426 19.7103 1.74754 19.8716 1.98596C20.0362 2.22134 20.1186 2.48422 20.1186 2.77461C20.1186 3.04361 20.0511 3.30038 19.9161 3.54492C19.7811 3.7864 19.5951 3.99885 19.3581 4.18225C19.1243 4.36566 18.8494 4.51086 18.5334 4.61784C18.2206 4.72483 17.8865 4.77832 17.5309 4.77832C17.2445 4.77832 16.991 4.74623 16.7705 4.68204C16.5499 4.61479 16.3655 4.52308 16.2174 4.40693C16.0692 4.29077 15.9573 4.15474 15.8816 3.99885C15.8059 3.84295 15.768 3.67483 15.768 3.49448C15.768 3.3447 15.7927 3.20867 15.8421 3.0864C15.8947 2.96107 15.9507 2.85409 16.01 2.76544C16.0725 2.67679 16.1301 2.60802 16.1828 2.55911C16.2388 2.50714 16.27 2.4781 16.2766 2.47199C16.2931 2.45671 16.3112 2.44754 16.331 2.44448C16.354 2.43837 16.3754 2.43531 16.3951 2.43531C16.4478 2.43531 16.4923 2.45059 16.5285 2.48116C16.5647 2.51173 16.5828 2.55147 16.5828 2.60038C16.5828 2.6554 16.5614 2.70125 16.5186 2.73793C16.512 2.74099 16.489 2.76238 16.4495 2.80212C16.41 2.8388 16.3672 2.89077 16.3211 2.95802C16.275 3.02221 16.2322 3.10016 16.1927 3.19186C16.1565 3.28356 16.1384 3.38444 16.1384 3.49448C16.1384 3.66872 16.1795 3.81544 16.2618 3.93466C16.3474 4.05387 16.4577 4.15169 16.5927 4.22811C16.7277 4.30147 16.8774 4.35496 17.0421 4.38859C17.2067 4.41915 17.3713 4.43444 17.5359 4.43444C17.842 4.43444 18.1285 4.38859 18.3951 4.29688C18.6651 4.20518 18.9005 4.08291 19.1013 3.93007C19.3021 3.77723 19.4601 3.60147 19.5753 3.40278C19.6906 3.20409 19.7482 2.99623 19.7482 2.7792C19.7482 2.54077 19.6758 2.32374 19.5309 2.1281C19.3861 1.92941 19.1902 1.76129 18.9433 1.62374C18.6963 1.48313 18.4066 1.37461 18.0741 1.29819C17.7449 1.22177 17.3927 1.18356 17.0174 1.18356C16.7342 1.18356 16.4363 1.21566 16.1235 1.27985C15.8141 1.34099 15.5079 1.43422 15.205 1.55954C14.9022 1.68487 14.6125 1.84077 14.3359 2.02723C14.0627 2.21369 13.8223 2.43225 13.6149 2.68291C13.4075 2.93051 13.2413 3.20867 13.1162 3.51741C12.9944 3.82614 12.9335 4.16391 12.9335 4.53073C12.9335 4.86391 12.9829 5.165 13.0816 5.434C13.1837 5.703 13.3236 5.94295 13.5014 6.15387C13.6791 6.36173 13.8865 6.54208 14.1236 6.69492C14.3639 6.84776 14.6207 6.97461 14.8939 7.07549C15.1705 7.1733 15.4585 7.24667 15.7581 7.29557C16.0577 7.34143 16.3556 7.36435 16.6519 7.36435C17.047 7.36435 17.4272 7.31391 17.7927 7.21304C18.1581 7.10911 18.4955 6.97461 18.805 6.80955C19.1177 6.64143 19.3943 6.45343 19.6346 6.24557C19.8749 6.03771 20.0659 5.82832 20.2074 5.61741C20.2239 5.5899 20.2469 5.57003 20.2766 5.5578C20.3062 5.54252 20.3375 5.53487 20.3704 5.53487C20.4264 5.53487 20.4708 5.55322 20.5037 5.5899C20.5367 5.62352 20.5531 5.66173 20.5531 5.70453C20.5531 5.71981 20.5515 5.73509 20.5482 5.75038C20.5449 5.76566 20.5383 5.78094 20.5284 5.79623Z" fill="#333333"/>
<path d="M21.4321 7.10758C21.4848 7.00365 21.5457 6.89208 21.6148 6.77287C21.684 6.6506 21.758 6.5268 21.837 6.40147C21.9161 6.27308 22 6.14623 22.0889 6.0209C22.1778 5.89557 22.27 5.77789 22.3654 5.66784C22.4609 5.56086 22.5564 5.48444 22.6518 5.43859C22.7506 5.38968 22.8428 5.36522 22.9284 5.36522C23.014 5.36522 23.0881 5.38204 23.1506 5.41566C23.2164 5.44623 23.2691 5.48902 23.3086 5.54404C23.3514 5.59907 23.3827 5.66326 23.4025 5.73662C23.4255 5.80998 23.437 5.88946 23.437 5.97505C23.437 6.04536 23.4288 6.14012 23.4123 6.25933C23.3992 6.37549 23.3926 6.49776 23.3926 6.62614C23.3926 6.6995 23.3959 6.77287 23.4025 6.84623C23.4123 6.91653 23.4271 6.98073 23.4469 7.03881C23.4699 7.09383 23.5029 7.13968 23.5457 7.17636C23.5885 7.20998 23.6444 7.2268 23.7136 7.2268C23.7926 7.2268 23.8716 7.20693 23.9506 7.16719C24.0296 7.12439 24.107 7.06937 24.1827 7.00212C24.2584 6.93182 24.3308 6.8554 24.4 6.77287C24.4691 6.68728 24.5317 6.60322 24.5876 6.52068C24.6436 6.43509 24.693 6.35409 24.7358 6.27767C24.7786 6.19819 24.8131 6.13247 24.8395 6.08051C24.8724 6.0102 24.93 5.97505 25.0123 5.97505C25.0683 5.97505 25.1127 5.99339 25.1456 6.03007C25.1786 6.06675 25.195 6.10649 25.195 6.14929C25.195 6.17374 25.1901 6.19667 25.1802 6.21806C25.167 6.24252 25.1407 6.29295 25.1012 6.36937C25.065 6.44579 25.014 6.53444 24.9481 6.63531C24.8856 6.73619 24.8115 6.84164 24.7259 6.95169C24.6403 7.06173 24.5448 7.16413 24.4395 7.25889C24.3374 7.3506 24.2255 7.42701 24.1037 7.48815C23.9852 7.54623 23.8601 7.57527 23.7284 7.57527C23.5769 7.57527 23.4551 7.54623 23.3629 7.48815C23.2708 7.42701 23.1983 7.3506 23.1457 7.25889C23.0963 7.16719 23.0617 7.06479 23.042 6.95169C23.0255 6.83859 23.0173 6.72854 23.0173 6.62156C23.0173 6.56653 23.0189 6.50846 23.0222 6.44732C23.0288 6.38313 23.0354 6.32046 23.042 6.25933C23.0485 6.19819 23.0535 6.14164 23.0568 6.08968C23.0634 6.03466 23.0667 5.98881 23.0667 5.95212C23.0667 5.85736 23.0518 5.79317 23.0222 5.75955C22.9959 5.72592 22.9646 5.70911 22.9284 5.70911C22.8757 5.70911 22.8148 5.73815 22.7457 5.79623C22.6798 5.85125 22.609 5.92461 22.5333 6.01632C22.4609 6.10802 22.3868 6.21195 22.3111 6.32811C22.2387 6.44121 22.1679 6.55431 22.0988 6.66741C22.0296 6.78051 21.9671 6.88902 21.9111 6.99295C21.8552 7.09383 21.8091 7.17789 21.7728 7.24514C21.7037 7.37352 21.6329 7.45911 21.5605 7.50191C21.4914 7.54776 21.4288 7.57068 21.3729 7.57068C21.2708 7.57068 21.1918 7.534 21.1358 7.46064C21.0831 7.38422 21.0568 7.29252 21.0568 7.18553V6.89667C21.0568 6.31894 21.0568 5.76872 21.0568 5.24601C21.0601 4.72025 21.0683 4.23269 21.0815 3.78335C21.098 3.33094 21.1227 2.92286 21.1556 2.55911C21.1918 2.1923 21.2445 1.88051 21.3136 1.62374C21.3827 1.36391 21.47 1.16369 21.5753 1.02308C21.684 0.88247 21.8189 0.812164 21.9803 0.812164C22.1185 0.812164 22.2354 0.847317 22.3309 0.917623C22.4263 0.987929 22.5037 1.08422 22.563 1.20649C22.6222 1.3257 22.665 1.46631 22.6914 1.62832C22.7177 1.78727 22.7309 1.9554 22.7309 2.13269C22.7309 2.49339 22.6946 2.84797 22.6222 3.19645C22.5531 3.54186 22.4593 3.87963 22.3407 4.20976C22.2222 4.5399 22.084 4.86238 21.9259 5.17723C21.7679 5.48902 21.6017 5.79317 21.4272 6.08968C21.4272 6.1447 21.4272 6.21042 21.4272 6.28684C21.4272 6.36326 21.4272 6.43968 21.4272 6.5161C21.4272 6.59252 21.4272 6.66435 21.4272 6.7316C21.4272 6.79885 21.4272 6.85234 21.4272 6.89208L21.4321 7.10758ZM21.4321 5.41566C21.5704 5.13444 21.6955 4.86086 21.8074 4.59492C21.9226 4.32592 22.0198 4.05845 22.0988 3.79252C22.1811 3.52658 22.2453 3.25758 22.2914 2.98553C22.3374 2.71042 22.3605 2.42461 22.3605 2.1281C22.3605 2.0792 22.3572 2.00125 22.3506 1.89426C22.3473 1.78727 22.3325 1.67876 22.3062 1.56872C22.2831 1.45867 22.2453 1.36238 22.1926 1.27985C22.1432 1.19732 22.0724 1.15605 21.9803 1.15605C21.9078 1.15605 21.8453 1.2019 21.7926 1.29361C21.7399 1.38225 21.6938 1.50452 21.6543 1.66042C21.6148 1.81326 21.5819 1.99208 21.5556 2.19688C21.5292 2.40169 21.5078 2.61872 21.4914 2.84797C21.4749 3.07723 21.4617 3.3126 21.4519 3.55409C21.4453 3.79557 21.4403 4.03094 21.4371 4.2602C21.4338 4.4864 21.4321 4.69885 21.4321 4.89754C21.4321 5.09623 21.4321 5.26894 21.4321 5.41566Z" fill="#333333"/>
<path d="M25.437 6.99295C25.5061 7.0816 25.595 7.15343 25.7037 7.20846C25.8123 7.26042 25.9456 7.2864 26.1036 7.2864C26.265 7.2864 26.4115 7.25125 26.5431 7.18095C26.6748 7.10758 26.795 7.01282 26.9036 6.89667C27.0123 6.78051 27.1094 6.6506 27.195 6.50693C27.2806 6.36326 27.358 6.21959 27.4271 6.07592C27.4435 6.0423 27.4666 6.01784 27.4962 6.00256C27.5259 5.98422 27.5588 5.97505 27.595 5.97505C27.651 5.97505 27.6954 5.99339 27.7283 6.03007C27.7645 6.06675 27.7826 6.10649 27.7826 6.14929C27.7826 6.16457 27.781 6.17833 27.7777 6.19055C27.7744 6.19972 27.7695 6.21042 27.7629 6.22265C27.5357 6.68728 27.2872 7.03728 27.0172 7.27265C26.7506 7.50802 26.4477 7.62876 26.1086 7.63488C25.8913 7.63488 25.7037 7.59514 25.5456 7.51566C25.3876 7.43924 25.2576 7.3399 25.1555 7.21763C25.0535 7.0923 24.9777 6.95169 24.9284 6.79579C24.879 6.6399 24.8543 6.484 24.8543 6.32811C24.8543 6.17221 24.874 6.02854 24.9135 5.8971C24.9563 5.76566 25.0156 5.65103 25.0913 5.55322C25.1703 5.4554 25.2625 5.37898 25.3679 5.32396C25.4765 5.26894 25.595 5.24142 25.7234 5.24142C25.7991 5.24142 25.8732 5.25671 25.9456 5.28728C26.0213 5.31479 26.0888 5.35605 26.1481 5.41108C26.2074 5.46304 26.2551 5.52723 26.2913 5.60365C26.3275 5.68007 26.3456 5.76719 26.3456 5.86501C26.3456 5.99033 26.3226 6.10802 26.2765 6.21806C26.2304 6.32811 26.1662 6.43051 26.0839 6.52527C26.0049 6.62003 25.9094 6.70715 25.7975 6.78662C25.6855 6.8661 25.5654 6.93488 25.437 6.99295ZM25.2888 6.69492C25.3909 6.65518 25.4831 6.60474 25.5654 6.54361C25.651 6.48247 25.7234 6.41522 25.7827 6.34186C25.8419 6.2685 25.888 6.19208 25.9209 6.1126C25.9539 6.03007 25.9703 5.94754 25.9703 5.86501C25.9703 5.7733 25.9456 5.70453 25.8962 5.65867C25.8469 5.60977 25.7893 5.58531 25.7234 5.58531C25.6345 5.58531 25.5588 5.60824 25.4963 5.65409C25.4337 5.69994 25.3827 5.75955 25.3432 5.83291C25.3037 5.90627 25.274 5.98881 25.2543 6.08051C25.2378 6.16915 25.2296 6.2578 25.2296 6.34645C25.2296 6.40147 25.2345 6.45955 25.2444 6.52068C25.2576 6.58182 25.2724 6.6399 25.2888 6.69492Z" fill="#333333"/>
<path d="M30.6616 6.22723C30.6419 6.26086 30.6073 6.32199 30.5579 6.41064C30.5118 6.49929 30.4476 6.60016 30.3653 6.71326C30.2863 6.8233 30.1908 6.93793 30.0789 7.05715C29.967 7.17636 29.8386 7.2864 29.6937 7.38728C29.5489 7.48509 29.3859 7.5661 29.2048 7.63029C29.0271 7.69448 28.8328 7.72658 28.6221 7.72658C28.4345 7.72658 28.2682 7.69448 28.1234 7.63029C27.9785 7.56915 27.8551 7.48204 27.753 7.36894C27.651 7.25278 27.5736 7.11675 27.5209 6.96086C27.4682 6.80496 27.4419 6.63225 27.4419 6.44274C27.4419 6.25933 27.4699 6.08815 27.5258 5.9292C27.5818 5.76719 27.6575 5.62658 27.753 5.50736C27.8518 5.38815 27.9653 5.29492 28.0937 5.22767C28.2221 5.15736 28.3588 5.12221 28.5036 5.12221C28.6123 5.12221 28.711 5.14055 28.7999 5.17723C28.8888 5.21086 28.9629 5.25671 29.0221 5.31479C29.0847 5.37287 29.1324 5.43706 29.1653 5.50736C29.2015 5.57767 29.2197 5.64797 29.2197 5.71828C29.2197 5.78553 29.2098 5.84819 29.19 5.90627C29.1736 5.96435 29.1505 6.01632 29.1209 6.06217C29.0946 6.10496 29.0633 6.14011 29.0271 6.16763C28.9908 6.19208 28.9546 6.20431 28.9184 6.20431C28.8625 6.20431 28.8164 6.18749 28.7802 6.15387C28.7472 6.12025 28.7308 6.07898 28.7308 6.03007C28.7308 6.00562 28.7357 5.98422 28.7456 5.96588C28.7588 5.94754 28.7719 5.9292 28.7851 5.91086C28.8016 5.88946 28.8147 5.86501 28.8246 5.8375C28.8378 5.80693 28.8443 5.76872 28.8443 5.72287C28.8443 5.65867 28.8114 5.6006 28.7456 5.54863C28.683 5.49667 28.6024 5.47068 28.5036 5.47068C28.4114 5.47068 28.3225 5.49667 28.237 5.54863C28.1546 5.6006 28.0822 5.6709 28.0197 5.75955C27.9571 5.84514 27.9061 5.94754 27.8666 6.06675C27.8304 6.18291 27.8123 6.30671 27.8123 6.43815C27.8123 6.56348 27.8287 6.68269 27.8616 6.79579C27.8946 6.90889 27.944 7.00977 28.0098 7.09841C28.0756 7.184 28.1579 7.25278 28.2567 7.30474C28.3588 7.35671 28.4789 7.38269 28.6172 7.38269C28.795 7.38269 28.9596 7.35365 29.111 7.29557C29.2625 7.23444 29.4007 7.15802 29.5258 7.06632C29.6509 6.97461 29.7612 6.87527 29.8567 6.76828C29.9522 6.65824 30.0328 6.55584 30.0987 6.46108C30.1678 6.36326 30.2205 6.2792 30.2567 6.20889C30.2962 6.13553 30.3192 6.08968 30.3258 6.07134C30.339 6.04077 30.3604 6.01784 30.39 6.00256C30.4229 5.98422 30.4575 5.97505 30.4937 5.97505C30.5497 5.97505 30.5941 5.99339 30.627 6.03007C30.6633 6.06675 30.6814 6.10802 30.6814 6.15387C30.6814 6.17221 30.6748 6.19667 30.6616 6.22723Z" fill="#333333"/>
<path d="M31.5702 6.93335C31.6262 7.0495 31.7184 7.14274 31.8468 7.21304C31.9752 7.28029 32.12 7.31392 32.2813 7.31392C32.3307 7.31392 32.4114 7.3078 32.5233 7.29557C32.6352 7.28029 32.7636 7.23444 32.9085 7.15802C33.0566 7.07854 33.213 6.95474 33.3776 6.78662C33.5422 6.6185 33.7019 6.3816 33.8566 6.07592C33.8731 6.0423 33.8961 6.01784 33.9258 6.00256C33.9554 5.98422 33.9883 5.97505 34.0245 5.97505C34.0805 5.97505 34.1249 5.99339 34.1579 6.03007C34.1941 6.06675 34.2122 6.10649 34.2122 6.14929C34.2122 6.16763 34.2056 6.19208 34.1924 6.22265C34.0772 6.44579 33.9488 6.64601 33.8072 6.8233C33.6657 6.99754 33.5126 7.14732 33.348 7.27265C33.1834 7.39492 33.0105 7.48815 32.8295 7.55234C32.6517 7.61959 32.469 7.65322 32.2813 7.65322C32.1332 7.65322 31.9933 7.63182 31.8616 7.58902C31.7332 7.54623 31.6213 7.48968 31.5258 7.41937C31.4336 7.34601 31.3595 7.26501 31.3036 7.17636C31.2509 7.08466 31.2246 6.99143 31.2246 6.89667C31.2246 6.88444 31.2262 6.86763 31.2295 6.84623C31.2328 6.82483 31.241 6.80191 31.2542 6.77745C31.2707 6.74994 31.292 6.72549 31.3184 6.70409C31.348 6.67963 31.3875 6.65977 31.4369 6.64448C31.5719 6.6078 31.6953 6.56348 31.8073 6.51151C31.9225 6.45649 32.0213 6.39536 32.1036 6.32811C32.1859 6.26086 32.2501 6.1875 32.2962 6.10802C32.3422 6.02549 32.3653 5.93684 32.3653 5.84208C32.3653 5.75955 32.3357 5.6923 32.2764 5.64033C32.2171 5.58837 32.1447 5.56239 32.0591 5.56239C31.9702 5.56239 31.883 5.59142 31.7974 5.6495C31.7118 5.70453 31.6278 5.77942 31.5455 5.87418C31.4665 5.96588 31.3908 6.07287 31.3184 6.19514C31.246 6.31435 31.1785 6.43968 31.1159 6.57112C31.0567 6.70256 31.004 6.834 30.9579 6.96544C30.9118 7.09383 30.8739 7.21304 30.8443 7.32309C30.8344 7.35671 30.8229 7.39339 30.8098 7.43313C30.7999 7.47287 30.7834 7.50955 30.7604 7.54317C30.7373 7.57985 30.7093 7.60889 30.6764 7.63029C30.6435 7.65474 30.6007 7.66697 30.548 7.66697C30.4986 7.66697 30.4509 7.6471 30.4048 7.60736C30.3587 7.57068 30.3357 7.50649 30.3357 7.41479C30.3357 7.39645 30.3357 7.32614 30.3357 7.20387C30.339 7.0816 30.3423 6.92265 30.3456 6.72701C30.3489 6.52832 30.3521 6.30212 30.3554 6.04841C30.362 5.79164 30.367 5.52112 30.3703 5.23684C30.3735 4.9495 30.3785 4.65452 30.3851 4.3519C30.3917 4.04928 30.3966 3.75431 30.3999 3.46697C30.4032 3.17963 30.4065 2.90758 30.4098 2.65081C30.4163 2.39099 30.4213 2.16173 30.4246 1.96304C30.4279 1.76129 30.4295 1.59775 30.4295 1.47243C30.4328 1.34404 30.4345 1.26762 30.4345 1.24317C30.4345 1.19426 30.4542 1.15452 30.4937 1.12395C30.5332 1.09033 30.576 1.07352 30.6221 1.07352C30.6748 1.07352 30.7192 1.09033 30.7554 1.12395C30.7916 1.15452 30.8098 1.19579 30.8098 1.24775C30.8098 1.25387 30.8081 1.315 30.8048 1.43116C30.8048 1.54426 30.8032 1.6971 30.7999 1.88968C30.7966 2.08225 30.7916 2.30692 30.7851 2.56369C30.7818 2.82046 30.7768 3.09404 30.7702 3.38444C30.767 3.67177 30.762 3.96828 30.7554 4.27396C30.7521 4.57963 30.7472 4.87767 30.7406 5.16806C30.7373 5.45846 30.734 5.73509 30.7307 5.99798C30.7274 6.26086 30.7242 6.49317 30.7209 6.69492C30.7735 6.53902 30.841 6.37549 30.9233 6.20431C31.0056 6.03007 31.1028 5.86959 31.2147 5.72287C31.3266 5.57614 31.4517 5.4554 31.59 5.36064C31.7315 5.26588 31.8879 5.2185 32.0591 5.2185C32.1546 5.2185 32.2435 5.23531 32.3258 5.26894C32.4081 5.2995 32.4789 5.34383 32.5381 5.4019C32.6007 5.45693 32.6484 5.52265 32.6813 5.59907C32.7175 5.67549 32.7356 5.75802 32.7356 5.84667C32.7356 5.98422 32.7027 6.11108 32.6369 6.22723C32.571 6.34033 32.4838 6.44274 32.3752 6.53444C32.2665 6.62308 32.1414 6.70103 31.9999 6.76828C31.8616 6.83553 31.7184 6.89055 31.5702 6.93335Z" fill="#333333"/>
<path d="M35.0023 7.08924C35.0517 6.99754 35.1142 6.88444 35.1899 6.74994C35.2689 6.61239 35.3496 6.47483 35.4319 6.33728C35.5175 6.19972 35.5998 6.06981 35.6788 5.94754C35.7611 5.82527 35.8303 5.73204 35.8862 5.66784C35.9817 5.56086 36.0805 5.48444 36.1825 5.43859C36.2846 5.39274 36.3784 5.36981 36.464 5.36981C36.5496 5.36981 36.622 5.38662 36.6813 5.42025C36.7438 5.45387 36.7949 5.49972 36.8344 5.5578C36.8739 5.61282 36.9035 5.67854 36.9232 5.75496C36.943 5.82833 36.9529 5.9078 36.9529 5.99339C36.9529 6.0423 36.9496 6.10649 36.943 6.18597C36.9397 6.26544 36.9348 6.35103 36.9282 6.44274C36.9249 6.53444 36.92 6.6292 36.9134 6.72701C36.9101 6.82483 36.9068 6.91653 36.9035 7.00212C36.9529 6.91042 37.0088 6.80955 37.0714 6.6995C37.1339 6.5864 37.1965 6.47483 37.259 6.36479C37.3249 6.25474 37.3874 6.15234 37.4467 6.05758C37.5059 5.95977 37.5603 5.88029 37.6097 5.81915C37.7512 5.63881 37.8829 5.51806 38.0047 5.45693C38.1298 5.39579 38.2401 5.36522 38.3356 5.36522C38.4475 5.36522 38.5397 5.38509 38.6121 5.42483C38.6845 5.46151 38.7405 5.51042 38.78 5.57156C38.8228 5.62963 38.8524 5.69535 38.8689 5.76872C38.8854 5.84208 38.8936 5.91239 38.8936 5.97964C38.8936 6.08357 38.8854 6.19208 38.8689 6.30518C38.8524 6.41828 38.8442 6.55278 38.8442 6.70867C38.8442 6.77287 38.8475 6.83706 38.8541 6.90125C38.8607 6.96544 38.8738 7.02199 38.8936 7.0709C38.9166 7.11981 38.9512 7.15955 38.9973 7.19012C39.0434 7.22068 39.1059 7.23597 39.1849 7.23597C39.2705 7.23597 39.3545 7.2161 39.4368 7.17636C39.5191 7.13357 39.5981 7.07854 39.6738 7.01129C39.7495 6.94405 39.8203 6.86763 39.8862 6.78204C39.9553 6.69645 40.0178 6.61086 40.0738 6.52527C40.1298 6.43968 40.1792 6.35867 40.222 6.28225C40.2648 6.20278 40.2993 6.13553 40.3257 6.08051C40.3421 6.04688 40.3652 6.0209 40.3948 6.00256C40.4244 5.98422 40.4573 5.97505 40.4936 5.97505C40.5495 5.97505 40.594 5.99492 40.6269 6.03466C40.6631 6.07134 40.6812 6.11108 40.6812 6.15387C40.6812 6.17527 40.6763 6.19667 40.6664 6.21806C40.6532 6.24252 40.6269 6.29448 40.5874 6.37396C40.5479 6.45038 40.4952 6.53902 40.4294 6.6399C40.3635 6.73771 40.2862 6.84164 40.1973 6.95169C40.1117 7.06173 40.0162 7.16413 39.9109 7.25889C39.8055 7.3506 39.6919 7.42701 39.5701 7.48815C39.4483 7.54623 39.3199 7.57527 39.1849 7.57527C39.0401 7.57527 38.9216 7.55081 38.8294 7.50191C38.7405 7.45605 38.6681 7.39339 38.6121 7.31392C38.5594 7.23444 38.5232 7.14274 38.5035 7.03881C38.4837 6.93487 38.4738 6.82636 38.4738 6.71326C38.4738 6.56348 38.4821 6.42592 38.4985 6.3006C38.515 6.17221 38.5232 6.07287 38.5232 6.00256C38.5232 5.92614 38.515 5.86806 38.4985 5.82832C38.4854 5.78859 38.4673 5.76108 38.4442 5.74579C38.4245 5.72745 38.4047 5.71828 38.3849 5.71828C38.3652 5.71522 38.3504 5.7137 38.3405 5.7137C38.2615 5.7137 38.1775 5.75496 38.0887 5.8375C38.0031 5.91697 37.9142 6.02396 37.822 6.15846C37.7298 6.29295 37.6343 6.44579 37.5356 6.61697C37.4401 6.78815 37.343 6.96239 37.2442 7.13968C37.1883 7.2375 37.1405 7.3185 37.101 7.38269C37.0648 7.44688 37.0286 7.49732 36.9924 7.534C36.9595 7.57068 36.9265 7.59667 36.8936 7.61195C36.8607 7.62723 36.8245 7.63488 36.785 7.63488C36.6994 7.63488 36.6335 7.60736 36.5874 7.55234C36.5446 7.49732 36.5232 7.42549 36.5232 7.33684C36.5232 7.29099 36.5249 7.22985 36.5282 7.15343C36.5315 7.07702 36.5348 6.99295 36.5381 6.90125C36.5414 6.80955 36.5463 6.71479 36.5529 6.61697C36.5595 6.51915 36.5644 6.42592 36.5677 6.33728C36.571 6.24557 36.5743 6.16457 36.5776 6.09426C36.5809 6.02396 36.5825 5.97046 36.5825 5.93378C36.5825 5.85431 36.5677 5.79776 36.5381 5.76413C36.5084 5.72745 36.4739 5.70911 36.4344 5.70911C36.3981 5.70911 36.357 5.72134 36.3109 5.74579C36.2681 5.77025 36.2171 5.81763 36.1578 5.88793C36.1117 5.94295 36.0525 6.02396 35.98 6.13094C35.9109 6.23488 35.8368 6.35103 35.7578 6.47942C35.6788 6.6078 35.5998 6.73924 35.5208 6.87374C35.4451 7.00824 35.3792 7.12898 35.3233 7.23597C35.2541 7.36435 35.185 7.45147 35.1159 7.49732C35.0467 7.54623 34.9792 7.57068 34.9134 7.57068C34.8179 7.57068 34.7471 7.5447 34.7011 7.49274C34.655 7.43771 34.6319 7.36588 34.6319 7.27723C34.6319 7.26806 34.6336 7.21304 34.6369 7.11217C34.6434 7.01129 34.65 6.88902 34.6566 6.74536C34.6632 6.59863 34.6698 6.44274 34.6764 6.27767C34.6862 6.1126 34.6945 5.95824 34.7011 5.81457C34.7043 5.73815 34.7011 5.66784 34.6912 5.60365C34.6813 5.53946 34.6681 5.50125 34.6517 5.48902C34.6253 5.49514 34.5727 5.55169 34.4936 5.65867C34.4179 5.76566 34.3208 5.95212 34.2023 6.21806C34.1858 6.25169 34.1611 6.27767 34.1282 6.29601C34.0953 6.31435 34.0607 6.32352 34.0245 6.32352C33.9686 6.32352 33.9241 6.30671 33.8912 6.27308C33.8583 6.2364 33.8418 6.19514 33.8418 6.14929C33.8418 6.12789 33.8467 6.10496 33.8566 6.08051C34.0048 5.75343 34.1463 5.51348 34.2813 5.36064C34.4163 5.20474 34.548 5.1268 34.6764 5.1268C34.7521 5.1268 34.8146 5.14361 34.864 5.17723C34.9167 5.2078 34.9578 5.24907 34.9875 5.30103C35.0171 5.34994 35.0385 5.40649 35.0517 5.47068C35.0648 5.53487 35.0714 5.59754 35.0714 5.65867C35.0714 5.93073 35.0632 6.17985 35.0467 6.40605C35.0336 6.63226 35.0187 6.85998 35.0023 7.08924Z" fill="#333333"/>
<path d="M44.1478 6.21806C44.1347 6.24252 44.1067 6.29448 44.0639 6.37396C44.0244 6.45038 43.9717 6.53902 43.9059 6.6399C43.8433 6.74077 43.7692 6.84623 43.6836 6.95627C43.598 7.06632 43.5026 7.16719 43.3972 7.25889C43.2919 7.3506 43.1783 7.42701 43.0565 7.48815C42.9347 7.54623 42.8063 7.57527 42.6713 7.57527C42.4804 7.57527 42.319 7.51872 42.1874 7.40562C42.059 7.29252 41.9651 7.15038 41.9059 6.9792C41.794 7.15343 41.6606 7.29252 41.5059 7.39645C41.3512 7.49732 41.1964 7.54776 41.0417 7.54776C40.9199 7.54776 40.8096 7.52789 40.7108 7.48815C40.6121 7.44536 40.5281 7.38728 40.459 7.31392C40.3899 7.2375 40.3355 7.14885 40.296 7.04798C40.2598 6.9471 40.2417 6.83706 40.2417 6.71784C40.2417 6.47942 40.2845 6.27003 40.3701 6.08968C40.459 5.90627 40.5709 5.75343 40.7059 5.63116C40.8409 5.50889 40.989 5.41719 41.1503 5.35605C41.3149 5.29492 41.473 5.26435 41.6244 5.26435C41.7265 5.26435 41.8203 5.27811 41.9059 5.30562C41.9915 5.33007 42.0639 5.35758 42.1232 5.38815C42.1857 5.41872 42.2335 5.44776 42.2664 5.47527C42.2993 5.49972 42.3174 5.51348 42.3207 5.51653C42.3569 5.55627 42.375 5.59754 42.375 5.64033C42.375 5.68618 42.3569 5.72745 42.3207 5.76413C42.2845 5.79776 42.2417 5.81457 42.1923 5.81457C42.1396 5.81457 42.0952 5.79776 42.059 5.76413C42.0524 5.75802 42.0376 5.74732 42.0145 5.73204C41.9915 5.7137 41.9602 5.69536 41.9207 5.67701C41.8812 5.65867 41.8335 5.64339 41.7775 5.63116C41.7248 5.61588 41.6639 5.60824 41.5948 5.60824C41.4927 5.60824 41.3841 5.62963 41.2689 5.67243C41.1536 5.71522 41.0483 5.78247 40.9528 5.87418C40.8573 5.96282 40.7767 6.07592 40.7108 6.21348C40.6483 6.34798 40.617 6.50846 40.617 6.69492C40.617 6.753 40.6236 6.8126 40.6368 6.87374C40.6499 6.93182 40.673 6.98531 40.7059 7.03422C40.7388 7.08313 40.7833 7.12287 40.8392 7.15343C40.8952 7.184 40.9643 7.19929 41.0466 7.19929C41.1059 7.19929 41.1734 7.18095 41.2491 7.14426C41.3281 7.10758 41.4022 7.05103 41.4713 6.97461C41.5438 6.89819 41.6079 6.80191 41.6639 6.68575C41.7232 6.56959 41.7643 6.43204 41.7874 6.27308C41.794 6.23029 41.8154 6.19514 41.8516 6.16763C41.8878 6.13706 41.9306 6.12177 41.98 6.12177C42.0261 6.12177 42.0656 6.13859 42.0985 6.17221C42.1347 6.20584 42.1544 6.24405 42.1577 6.28684C42.161 6.34492 42.1676 6.42745 42.1775 6.53444C42.1874 6.63837 42.2088 6.7423 42.2417 6.84623C42.2779 6.95016 42.3306 7.04033 42.3997 7.11675C42.4688 7.19317 42.5643 7.23138 42.6861 7.23138C42.7651 7.23138 42.8425 7.21151 42.9182 7.17178C42.9972 7.13204 43.0729 7.08007 43.1454 7.01588C43.2211 6.94863 43.2919 6.87374 43.3577 6.79121C43.4269 6.70562 43.4894 6.62003 43.5454 6.53444C43.6013 6.44885 43.6507 6.36632 43.6935 6.28684C43.7363 6.20736 43.7725 6.13859 43.8022 6.08051C43.8186 6.04688 43.8417 6.0209 43.8713 6.00256C43.9042 5.98422 43.9388 5.97505 43.975 5.97505C44.031 5.97505 44.0754 5.99492 44.1083 6.03466C44.1445 6.07134 44.1626 6.11108 44.1626 6.15387C44.1626 6.17527 44.1577 6.19667 44.1478 6.21806Z" fill="#333333"/>
<path d="M47.807 2.90758C47.807 2.95649 47.7889 2.99623 47.7527 3.02679C47.7165 3.05431 47.6721 3.06806 47.6194 3.06806H45.1157V3.1185C45.1157 3.30496 45.1009 3.50365 45.0713 3.71457C45.0416 3.92549 45.0005 4.1364 44.9478 4.34732C44.8984 4.55518 44.8408 4.75846 44.775 4.95715C44.7124 5.15584 44.6466 5.33924 44.5775 5.50736C44.5116 5.67549 44.4458 5.82221 44.3799 5.94754C44.3141 6.06981 44.2548 6.16151 44.2022 6.22265C44.2449 6.36326 44.296 6.4947 44.3552 6.61697C44.4145 6.73619 44.4803 6.84164 44.5528 6.93335C44.6285 7.02199 44.7091 7.0923 44.7947 7.14426C44.8803 7.19623 44.9725 7.22221 45.0713 7.22221C45.1865 7.22221 45.3001 7.17789 45.412 7.08924C45.5272 6.99754 45.6326 6.89055 45.7281 6.76828C45.8268 6.64295 45.9124 6.51763 45.9848 6.3923C46.0606 6.26391 46.1149 6.16151 46.1478 6.08509C46.1807 6.01173 46.2383 5.97505 46.3206 5.97505C46.3766 5.97505 46.421 5.99339 46.454 6.03007C46.4902 6.06675 46.5083 6.10649 46.5083 6.14929C46.5083 6.17068 46.5034 6.19208 46.4935 6.21348C46.4836 6.23487 46.4589 6.28378 46.4194 6.3602C46.3832 6.43662 46.3338 6.52527 46.2713 6.62614C46.212 6.72702 46.1412 6.834 46.0589 6.9471C45.9799 7.05715 45.8894 7.15802 45.7873 7.24972C45.6885 7.34143 45.5816 7.41785 45.4663 7.47898C45.3511 7.54012 45.2293 7.57068 45.1009 7.57068C44.8737 7.57068 44.6696 7.50191 44.4886 7.36435C44.3075 7.2268 44.1528 7.03422 44.0244 6.78662C43.8993 6.53902 43.8038 6.24557 43.738 5.90627C43.6721 5.56697 43.6392 5.19557 43.6392 4.79208C43.6392 4.69121 43.6408 4.57352 43.6441 4.43902C43.6474 4.30147 43.654 4.1578 43.6639 4.00802C43.6738 3.85518 43.6886 3.69928 43.7083 3.54033C43.7281 3.37832 43.7544 3.2209 43.7873 3.06806H42.0145C41.9619 3.06806 41.9174 3.05431 41.8812 3.02679C41.845 2.99623 41.8269 2.95649 41.8269 2.90758C41.8269 2.85867 41.845 2.82046 41.8812 2.79295C41.9174 2.76238 41.9619 2.7471 42.0145 2.7471H43.8713C43.9042 2.63706 43.9421 2.53618 43.9849 2.44448C44.031 2.35278 44.082 2.2733 44.138 2.20605C44.1972 2.1388 44.2614 2.08684 44.3305 2.05016C44.403 2.01042 44.482 1.99055 44.5676 1.99055C44.6499 1.99055 44.7207 2.01042 44.7799 2.05016C44.8425 2.08684 44.8951 2.1388 44.9379 2.20605C44.9807 2.2733 45.0137 2.35278 45.0367 2.44448C45.063 2.53618 45.0828 2.63706 45.096 2.7471H47.6194C47.6721 2.7471 47.7165 2.76238 47.7527 2.79295C47.7889 2.82046 47.807 2.85867 47.807 2.90758ZM44.0886 5.76413C44.1873 5.56239 44.2762 5.34535 44.3552 5.11304C44.4375 4.87767 44.5067 4.64077 44.5626 4.40234C44.6219 4.16391 44.6663 3.93007 44.696 3.70081C44.7289 3.47155 44.7454 3.26064 44.7454 3.06806H44.1626C44.1166 3.25758 44.0787 3.49295 44.0491 3.77417C44.0227 4.05234 44.0096 4.39164 44.0096 4.79208C44.0096 5.01522 44.0161 5.20322 44.0293 5.35605C44.0425 5.50584 44.0622 5.64186 44.0886 5.76413ZM44.5478 2.33444C44.5182 2.33444 44.4754 2.365 44.4194 2.42614C44.3635 2.48422 44.3075 2.5912 44.2515 2.7471H44.7256C44.7091 2.61872 44.6844 2.51784 44.6515 2.44448C44.6219 2.37112 44.5873 2.33444 44.5478 2.33444ZM44.1676 6.09426V6.09885V6.09426Z" fill="#333333"/>
<path d="M46.7601 6.99295C46.8293 7.0816 46.9182 7.15343 47.0268 7.20846C47.1354 7.26042 47.2688 7.2864 47.4268 7.2864C47.5881 7.2864 47.7346 7.25125 47.8663 7.18095C47.998 7.10758 48.1181 7.01282 48.2268 6.89667C48.3354 6.78051 48.4325 6.6506 48.5181 6.50693C48.6037 6.36326 48.6811 6.21959 48.7502 6.07592C48.7667 6.0423 48.7897 6.01784 48.8194 6.00256C48.849 5.98422 48.8819 5.97505 48.9181 5.97505C48.9741 5.97505 49.0185 5.99339 49.0515 6.03007C49.0877 6.06675 49.1058 6.10649 49.1058 6.14929C49.1058 6.16457 49.1041 6.17833 49.1008 6.19055C49.0976 6.19972 49.0926 6.21042 49.086 6.22265C48.8589 6.68728 48.6103 7.03728 48.3404 7.27265C48.0737 7.50802 47.7708 7.62876 47.4317 7.63488C47.2145 7.63488 47.0268 7.59514 46.8688 7.51566C46.7108 7.43924 46.5807 7.3399 46.4787 7.21763C46.3766 7.0923 46.3009 6.95169 46.2515 6.79579C46.2021 6.6399 46.1774 6.484 46.1774 6.32811C46.1774 6.17221 46.1972 6.02854 46.2367 5.8971C46.2795 5.76566 46.3387 5.65103 46.4145 5.55322C46.4935 5.4554 46.5857 5.37898 46.691 5.32396C46.7996 5.26894 46.9182 5.24142 47.0466 5.24142C47.1223 5.24142 47.1963 5.25671 47.2688 5.28728C47.3445 5.31479 47.412 5.35605 47.4712 5.41108C47.5305 5.46304 47.5782 5.52723 47.6144 5.60365C47.6507 5.68007 47.6688 5.76719 47.6688 5.86501C47.6688 5.99033 47.6457 6.10802 47.5996 6.21806C47.5535 6.32811 47.4893 6.43051 47.407 6.52527C47.328 6.62003 47.2326 6.70715 47.1206 6.78662C47.0087 6.8661 46.8885 6.93488 46.7601 6.99295ZM46.612 6.69492C46.714 6.65518 46.8062 6.60474 46.8885 6.54361C46.9741 6.48247 47.0466 6.41522 47.1058 6.34186C47.1651 6.2685 47.2112 6.19208 47.2441 6.1126C47.277 6.03007 47.2935 5.94754 47.2935 5.86501C47.2935 5.7733 47.2688 5.70453 47.2194 5.65867C47.17 5.60977 47.1124 5.58531 47.0466 5.58531C46.9577 5.58531 46.8819 5.60824 46.8194 5.65409C46.7568 5.69994 46.7058 5.75955 46.6663 5.83291C46.6268 5.90627 46.5972 5.98881 46.5774 6.08051C46.561 6.16915 46.5527 6.2578 46.5527 6.34645C46.5527 6.40147 46.5577 6.45955 46.5675 6.52068C46.5807 6.58182 46.5955 6.6399 46.612 6.69492Z" fill="#333333"/>
<circle cx="8.95674" cy="1.85312" r="0.308853" fill="#333333"/>
<path d="M8.33905 4.01509H8.95676V2.16197" stroke="#333333" stroke-width="0.308853" stroke-linecap="round" stroke-linejoin="round"/>
<circle cx="4.32394" cy="4.32394" r="4.01509" fill="white" stroke="#333333" stroke-width="0.617706"/>
<path d="M7.10361 4.32394C7.10361 5.85912 5.8591 7.10362 4.32393 7.10362C2.78875 7.10362 1.54425 5.85912 1.54425 4.32394C1.54425 2.78877 2.78875 2.77968 4.32393 2.77968C5.8591 2.77968 7.10361 2.78877 7.10361 4.32394Z" fill="white" stroke="#333333" stroke-width="0.617706"/>
<circle cx="3.08852" cy="4.6328" r="0.308853" fill="#333333"/>
<circle cx="5.55934" cy="4.6328" r="0.308853" fill="#333333"/>
<path d="M3.70624 5.86821C3.70624 5.86821 3.95332 6.17706 4.32394 6.17706C4.69457 6.17706 4.94165 5.86821 4.94165 5.86821" stroke="#333333" stroke-width="0.308853" stroke-linecap="round" stroke-linejoin="round"/>
</svg>
