<svg width="2809" height="470" viewBox="0 0 2809 470" fill="none" xmlns="http://www.w3.org/2000/svg">
<path d="M411.611 322.85C411.611 322.361 411.449 321.629 411.123 320.652C410.96 319.676 410.716 318.699 410.391 317.723C410.228 316.583 409.984 315.607 409.658 314.793C409.495 313.816 409.414 313.084 409.414 312.596C409.089 311.456 408.926 310.561 408.926 309.91C408.926 309.259 408.926 308.608 408.926 307.957C408.926 306.655 409.089 305.597 409.414 304.783C409.74 303.969 410.309 302.749 411.123 301.121L408.193 252.293L409.414 238.621C409.74 238.133 410.065 237.563 410.391 236.912C410.716 236.424 410.96 236.017 411.123 235.691C411.286 235.203 411.449 234.796 411.611 234.471C413.076 231.053 414.215 227.798 415.029 224.705C415.843 221.613 416.82 218.357 417.959 214.939C418.773 211.684 419.18 208.592 419.18 205.662C419.18 202.081 419.831 199.152 421.133 196.873C423.249 191.99 425.609 187.352 428.213 182.957C430.98 178.4 434.316 173.11 438.223 167.088C438.548 166.6 438.874 166.111 439.199 165.623C439.525 164.972 439.85 164.402 440.176 163.914C441.641 161.798 443.187 159.438 444.814 156.834C446.605 154.23 447.581 152.765 447.744 152.439C449.697 149.51 451.569 147.312 453.359 145.848C455.312 144.383 457.591 142.43 460.195 139.988C465.729 135.757 470.612 131.85 474.844 128.27C479.076 124.689 484.121 121.108 489.98 117.527L496.084 114.842C497.549 114.354 499.176 113.702 500.967 112.889C502.757 111.912 504.629 110.936 506.582 109.959C508.535 108.982 510.407 108.087 512.197 107.273C513.988 106.46 515.615 105.809 517.08 105.32L541.982 101.902C542.633 101.902 543.691 101.658 545.156 101.17C546.621 100.682 547.679 100.031 548.33 99.2168C555.329 99.054 560.944 98.8913 565.176 98.7285C569.408 98.5658 573.395 98.4844 577.139 98.4844C582.184 98.4844 587.148 98.5658 592.031 98.7285C596.914 98.8913 601.797 99.054 606.68 99.2168C609.772 100.031 612.295 100.682 614.248 101.17C616.201 101.495 617.747 101.821 618.887 102.146C620.026 102.309 620.84 102.391 621.328 102.391C621.816 102.391 622.305 102.391 622.793 102.391C624.746 102.228 626.292 102.146 627.432 102.146C628.734 101.984 629.873 101.902 630.85 101.902C631.989 101.902 633.21 101.902 634.512 101.902C635.814 101.902 637.523 101.902 639.639 101.902C641.429 102.879 643.382 104.262 645.498 106.053C647.614 107.843 649.567 108.738 651.357 108.738C652.008 108.738 652.66 108.494 653.311 108.006C653.962 107.518 654.45 107.273 654.775 107.273H669.18C671.296 106.948 673.249 106.297 675.039 105.32C676.992 104.181 678.864 103.042 680.654 101.902C682.607 100.6 684.479 99.5423 686.27 98.7285C688.06 97.752 690.094 97.2637 692.373 97.2637C695.14 97.2637 697.5 98.1589 699.453 99.9492C701.569 101.577 702.627 104.018 702.627 107.273V147.801C702.79 148.615 703.034 149.917 703.359 151.707C703.685 153.497 703.848 154.799 703.848 155.613C705.312 163.426 707.021 171.482 708.975 179.783C710.928 187.921 711.904 195.896 711.904 203.709C711.742 204.686 711.335 205.743 710.684 206.883C710.033 208.022 709.219 209.08 708.242 210.057C707.428 211.033 706.615 211.928 705.801 212.742C704.987 213.393 704.336 213.719 703.848 213.719C703.848 214.044 703.278 214.207 702.139 214.207C698.883 214.207 696.035 213.475 693.594 212.01C691.315 210.545 689.362 208.673 687.734 206.395C686.107 204.116 684.886 201.674 684.072 199.07C683.258 196.466 682.689 194.025 682.363 191.746V183.689C682.038 181.411 681.549 179.62 680.898 178.318C680.41 176.854 679.759 175.633 678.945 174.656C678.132 173.517 677.155 172.378 676.016 171.238C675.039 170.099 673.9 168.634 672.598 166.844C670.807 165.053 669.749 163.1 669.424 160.984C669.098 158.706 668.203 156.427 666.738 154.148C666.413 153.497 665.68 152.846 664.541 152.195C663.402 151.544 662.669 151.219 662.344 151.219L646.719 139.988C646.719 139.826 646.312 139.419 645.498 138.768C644.847 137.954 644.115 137.14 643.301 136.326C642.487 135.35 641.673 134.454 640.859 133.641C640.208 132.827 639.801 132.257 639.639 131.932C637.848 130.955 636.872 130.467 636.709 130.467C636.383 130.792 635.244 130.955 633.291 130.955C632.152 130.955 631.582 130.792 631.582 130.467C628.164 129.816 624.827 128.758 621.572 127.293C618.48 125.828 615.632 124.363 613.027 122.898L583.486 121.678C582.347 120.376 581.208 119.562 580.068 119.236C578.929 118.911 577.546 118.748 575.918 118.748C570.384 118.748 565.664 119.236 561.758 120.213C557.852 121.189 554.271 122.573 551.016 124.363C550.853 124.689 550.69 124.933 550.527 125.096C550.202 125.421 549.876 125.584 549.551 125.584C547.272 127.374 544.749 128.758 541.982 129.734C539.378 130.711 536.693 131.688 533.926 132.664C531.159 133.478 528.392 134.454 525.625 135.594C523.021 136.57 520.579 138.035 518.301 139.988L509.023 147.801C508.861 148.126 508.047 148.859 506.582 149.998C505.117 150.975 504.303 151.788 504.141 152.439C503.327 154.23 501.943 155.939 499.99 157.566C498.037 159.031 496.735 159.926 496.084 160.252C494.782 162.042 493.805 163.995 493.154 166.111C492.666 168.064 492.096 169.204 491.445 169.529L485.83 177.586L478.994 193.211L475.82 207.371C475.658 207.697 475.251 208.266 474.6 209.08C474.111 209.894 473.46 210.789 472.646 211.766C471.995 212.579 471.263 213.312 470.449 213.963C469.798 214.614 469.31 214.939 468.984 214.939C468.984 215.102 468.903 215.753 468.74 216.893C468.577 218.032 468.415 219.415 468.252 221.043C468.252 222.508 468.171 224.054 468.008 225.682C467.845 227.146 467.764 228.286 467.764 229.1V235.691L468.984 260.594L471.914 272.557L468.984 285.984C468.984 293.797 470.042 301.609 472.158 309.422C474.274 317.234 476.553 324.803 478.994 332.127C479.32 332.29 480.785 334.243 483.389 337.986L485.83 344.822C486.318 346.124 487.051 347.426 488.027 348.729C489.004 349.868 490.062 351.007 491.201 352.146C492.503 353.286 493.724 354.344 494.863 355.32C496.003 356.297 496.979 357.273 497.793 358.25C498.607 361.18 499.176 363.214 499.502 364.354C499.827 365.493 500.153 366.307 500.479 366.795C500.804 367.12 501.211 367.446 501.699 367.771C502.188 367.934 503.001 368.585 504.141 369.725C505.28 370.213 506.175 371.027 506.826 372.166C507.64 373.143 508.372 374.282 509.023 375.584C509.674 376.886 510.326 378.188 510.977 379.49C511.628 380.792 512.523 381.85 513.662 382.664C516.755 383.152 519.359 383.478 521.475 383.641C523.753 383.641 525.788 384.617 527.578 386.57C531.484 389.826 535.146 392.674 538.564 395.115C541.982 397.394 545.4 399.428 548.818 401.219C552.399 402.846 556.143 404.311 560.049 405.613C563.955 406.753 568.35 407.729 573.232 408.543L585.928 412.205C590.16 412.205 593.577 411.635 596.182 410.496C598.949 409.194 601.634 408.543 604.238 408.543C606.68 408.543 608.958 409.438 611.074 411.229C613.19 412.856 615.55 413.67 618.154 413.67C620.27 413.67 621.979 413.019 623.281 411.717C624.746 410.252 626.536 409.194 628.652 408.543C628.978 408.543 629.954 408.38 631.582 408.055C633.372 407.729 634.512 407.485 635 407.322C635.651 407.322 636.709 406.915 638.174 406.102C639.639 405.288 640.697 404.555 641.348 403.904C646.882 403.09 650.381 402.439 651.846 401.951C653.473 401.3 654.45 400.975 654.775 400.975C654.938 400.812 655.345 400.486 655.996 399.998C656.647 399.347 657.298 398.696 657.949 398.045C658.763 397.231 659.495 396.499 660.146 395.848C660.798 395.034 661.286 394.464 661.611 394.139C662.262 394.139 663.32 393.732 664.785 392.918C666.25 392.104 667.796 391.128 669.424 389.988C671.214 388.849 672.923 387.71 674.551 386.57C676.341 385.431 677.806 384.536 678.945 383.885C679.759 383.396 680.329 382.827 680.654 382.176C680.98 381.362 681.549 380.548 682.363 379.734C684.805 376.316 687.246 373.794 689.688 372.166C692.129 370.538 694.733 368.016 697.5 364.598C698.151 363.947 699.046 362.97 700.186 361.668C701.488 360.203 702.301 359.064 702.627 358.25C702.79 357.924 703.115 356.948 703.604 355.32C704.255 353.53 704.906 352.553 705.557 352.391C707.673 350.6 709.707 349.38 711.66 348.729C713.613 348.077 715.648 347.752 717.764 347.752C718.903 347.752 719.88 348.24 720.693 349.217C721.67 350.193 722.402 351.333 722.891 352.635C723.542 353.937 724.03 355.402 724.355 357.029C724.681 358.494 724.844 359.715 724.844 360.691C724.844 363.947 724.111 366.876 722.646 369.48C721.182 371.922 719.554 374.282 717.764 376.561C715.973 378.839 714.183 381.199 712.393 383.641C710.765 385.919 709.626 388.605 708.975 391.697C708.324 392.186 707.266 393.081 705.801 394.383C704.336 395.522 702.871 396.824 701.406 398.289C699.941 399.754 698.558 401.219 697.256 402.684C695.954 403.986 695.14 404.962 694.814 405.613C691.234 410.333 687.979 413.67 685.049 415.623C682.119 417.413 679.352 419.285 676.748 421.238C675.609 422.703 674.714 424.249 674.062 425.877C673.574 427.342 672.354 428.481 670.4 429.295C668.122 430.597 665.518 431.818 662.588 432.957C659.821 433.934 656.81 434.829 653.555 435.643C648.346 438.898 643.708 441.095 639.639 442.234C635.57 443.374 631.338 444.676 626.943 446.141L617.178 451.512C608.551 452 602.611 452.651 599.355 453.465C596.1 454.441 594.147 454.93 593.496 454.93C588.288 454.767 584.707 454.279 582.754 453.465C580.964 452.814 579.743 452.488 579.092 452.488L563.955 457.371C562.165 457.208 560.212 457.046 558.096 456.883C556.143 456.72 554.189 456.476 552.236 456.15C550.283 455.988 548.493 455.662 546.865 455.174C545.238 454.848 544.017 454.36 543.203 453.709C538.809 452.57 534.251 451.756 529.531 451.268C524.811 450.779 520.254 449.477 515.859 447.361L497.793 440.281C497.467 439.956 496.491 439.63 494.863 439.305C493.236 438.816 492.096 438.572 491.445 438.572C486.725 432.387 484.04 429.295 483.389 429.295H477.529C476.227 428.481 474.681 426.935 472.891 424.656C471.263 422.215 469.554 419.529 467.764 416.6C467.764 414.646 466.624 413.426 464.346 412.938C462.23 412.449 460.358 412.205 458.73 412.205C457.754 411.717 457.103 411.066 456.777 410.252C456.452 409.275 456.126 408.299 455.801 407.322C455.638 406.183 455.394 405.044 455.068 403.904C454.743 402.765 454.173 401.788 453.359 400.975C453.034 400.161 452.22 399.021 450.918 397.557C449.616 395.929 448.558 394.79 447.744 394.139C446.605 393.488 445.71 392.999 445.059 392.674C444.408 392.348 443.838 392.104 443.35 391.941C442.861 391.616 442.373 391.209 441.885 390.721C441.396 390.07 440.745 389.093 439.932 387.791L433.828 378.514L428.457 372.654C428.457 366.958 428.05 362.97 427.236 360.691C426.423 358.413 425.853 357.192 425.527 357.029C425.527 356.378 425.283 354.995 424.795 352.879C424.469 350.6 424.144 349.298 423.818 348.973C420.563 347.508 418.529 346.45 417.715 345.799C417.064 345.311 416.576 344.985 416.25 344.822L411.611 322.85ZM747.549 438.572C747.549 438.247 747.956 437.514 748.77 436.375C749.258 435.887 749.746 435.317 750.234 434.666L757.314 431.736C759.919 430.923 762.279 430.353 764.395 430.027C766.673 429.539 768.789 429.132 770.742 428.807C772.695 428.481 774.567 427.993 776.357 427.342C778.148 426.528 779.938 425.307 781.729 423.68C782.054 423.517 782.542 422.947 783.193 421.971C783.844 420.994 784.495 419.936 785.146 418.797C785.798 417.658 786.367 416.6 786.855 415.623C787.344 414.484 787.669 413.67 787.832 413.182V409.275L786.123 398.777L789.541 383.152C789.541 381.036 789.215 379.165 788.564 377.537C788.076 375.747 787.832 373.712 787.832 371.434C787.832 371.108 787.995 370.457 788.32 369.48C788.646 368.504 788.971 367.527 789.297 366.551C789.622 365.411 789.948 364.435 790.273 363.621C790.599 362.645 790.762 362.156 790.762 362.156L789.541 337.986C789.541 333.104 789.785 328.628 790.273 324.559C790.924 320.327 791.494 316.095 791.982 311.863V302.83C791.982 302.667 792.145 302.179 792.471 301.365C792.959 300.389 793.203 299.249 793.203 297.947C793.203 296.157 792.633 294.692 791.494 293.553C790.355 292.413 789.704 290.867 789.541 288.914C789.053 285.659 788.564 282.892 788.076 280.613C787.588 278.335 787.344 275.893 787.344 273.289L790.762 199.07L790.273 192.723C790.111 190.281 789.622 187.84 788.809 185.398C788.158 182.957 787.425 180.516 786.611 178.074C785.96 175.47 785.309 172.947 784.658 170.506C784.17 167.902 783.926 165.298 783.926 162.693L786.123 151.219C785.635 150.73 784.984 149.754 784.17 148.289C783.519 146.824 782.868 145.278 782.217 143.65C781.729 142.023 781.159 140.477 780.508 139.012C780.02 137.547 779.613 136.57 779.287 136.082L766.104 125.828C764.639 125.503 763.662 125.096 763.174 124.607C761.383 123.631 760 122.817 759.023 122.166C758.21 121.515 757.477 120.864 756.826 120.213C756.338 119.562 755.768 118.748 755.117 117.771C754.466 116.795 753.49 115.33 752.188 113.377C752.025 112.563 751.943 112.075 751.943 111.912C751.943 111.587 751.943 111.017 751.943 110.203C751.943 109.552 752.025 108.901 752.188 108.25C752.35 107.436 752.676 106.867 753.164 106.541C753.652 105.727 754.629 104.913 756.094 104.1C757.559 103.123 759.023 102.228 760.488 101.414C762.116 100.6 763.581 99.9492 764.883 99.4609C766.185 98.9727 766.917 98.6471 767.08 98.4844C767.243 98.4844 767.731 98.403 768.545 98.2402C769.359 98.0775 770.173 97.9147 770.986 97.752C771.963 97.4264 772.858 97.1823 773.672 97.0195C774.486 96.694 774.974 96.4499 775.137 96.2871C775.299 96.2871 776.032 96.2057 777.334 96.043C778.799 95.7174 779.775 95.3919 780.264 95.0664C785.96 92.9505 791.494 90.9974 796.865 89.207C802.399 87.4167 808.503 85.8704 815.176 84.5684C818.919 85.7077 821.93 87.1725 824.209 88.9629C826.488 90.5905 828.685 93.0319 830.801 96.2871V137.303C830.801 137.628 830.882 138.279 831.045 139.256C831.208 140.232 831.37 141.29 831.533 142.43C831.859 143.569 832.103 144.708 832.266 145.848C832.428 146.824 832.51 147.475 832.51 147.801L827.871 168.553C827.871 170.018 828.115 171.32 828.604 172.459C829.092 173.436 829.58 174.412 830.068 175.389C830.719 176.365 831.289 177.423 831.777 178.562C832.266 179.539 832.51 180.76 832.51 182.225C832.51 185.154 831.696 187.677 830.068 189.793C828.604 191.909 827.871 194.269 827.871 196.873V197.85C828.359 200.128 828.604 202.407 828.604 204.686C828.766 206.801 828.848 209.08 828.848 211.521C828.848 213.8 828.929 216.16 829.092 218.602C829.417 220.88 829.987 223.24 830.801 225.682C832.266 229.751 833.73 233.087 835.195 235.691C836.66 238.296 838.857 240.574 841.787 242.527C843.74 242.527 845.368 242.202 846.67 241.551C848.135 240.737 849.355 239.76 850.332 238.621C851.471 237.482 852.529 236.342 853.506 235.203C854.645 234.064 855.947 233.087 857.412 232.273L862.051 229.832H879.385C884.919 229.181 890.534 227.96 896.23 226.17C901.927 224.38 907.705 223.484 913.564 223.484C916.331 223.484 918.773 224.298 920.889 225.926C923.005 227.391 925.365 228.693 927.969 229.832C928.783 230.158 930.003 230.483 931.631 230.809C933.421 231.134 934.479 231.622 934.805 232.273C936.921 233.087 939.281 234.308 941.885 235.936C944.652 237.4 947.256 239.191 949.697 241.307C952.139 243.26 954.417 245.538 956.533 248.143C958.649 250.584 960.277 253.107 961.416 255.711C961.579 255.874 961.904 257.094 962.393 259.373C962.881 261.652 963.125 263.361 963.125 264.5V281.346L966.055 290.135C966.055 292.902 965.973 295.099 965.811 296.727C965.648 298.191 965.16 299.819 964.346 301.609V333.836L967.764 340.428C967.764 340.916 967.682 341.567 967.52 342.381C967.357 343.195 967.194 344.008 967.031 344.822C966.868 345.636 966.624 346.368 966.299 347.02C966.136 347.671 966.055 347.996 966.055 347.996C966.055 348.322 965.973 349.135 965.811 350.438C965.648 351.577 965.485 352.879 965.322 354.344C965.16 355.809 964.997 357.192 964.834 358.494C964.671 359.633 964.508 360.366 964.346 360.691L964.834 369.969C964.997 371.108 965.566 372.898 966.543 375.34C967.682 377.618 968.496 379.083 968.984 379.734V405.613L970.205 416.6C970.368 418.227 970.612 419.529 970.938 420.506C971.263 421.32 971.751 422.052 972.402 422.703C973.053 423.354 973.867 424.005 974.844 424.656C975.983 425.307 977.367 426.121 978.994 427.098L983.633 427.83C985.423 428.318 986.888 428.644 988.027 428.807C989.167 428.969 990.225 429.214 991.201 429.539C992.178 429.702 993.154 430.027 994.131 430.516C995.27 430.841 996.735 431.411 998.525 432.225C998.851 434.015 999.502 435.236 1000.48 435.887C1001.46 436.375 1001.94 436.782 1001.94 437.107C1001.94 437.596 1002.19 438.572 1002.68 440.037C1003.33 441.502 1003.65 442.641 1003.65 443.455C1003.65 444.757 1003.25 445.896 1002.43 446.873C1001.78 447.85 1000.89 448.826 999.746 449.803H999.258C998.281 450.617 996.979 451.349 995.352 452C993.887 452.814 992.259 453.221 990.469 453.221H983.633C980.378 453.221 977.367 452.814 974.6 452C971.995 451.186 969.391 450.779 966.787 450.779L952.139 453.221H922.109L903.555 449.803C901.276 449.803 899.079 449.721 896.963 449.559C894.847 449.233 892.894 448.663 891.104 447.85C889.801 447.199 888.988 446.222 888.662 444.92C888.337 443.455 888.174 441.909 888.174 440.281V438.084C888.174 436.131 888.825 434.178 890.127 432.225C891.592 430.271 893.626 429.295 896.23 429.295L902.578 427.586C904.043 427.098 905.589 426.772 907.217 426.609C909.007 426.284 910.716 425.796 912.344 425.145C914.134 424.331 915.843 423.191 917.471 421.727C919.098 420.099 920.645 417.658 922.109 414.402C922.272 414.24 922.435 413.751 922.598 412.938C922.923 412.124 923.167 411.31 923.33 410.496C923.493 409.682 923.574 408.95 923.574 408.299C923.737 407.485 923.818 406.997 923.818 406.834C923.981 404.718 924.062 402.928 924.062 401.463C924.062 399.835 924.225 398.777 924.551 398.289C924.388 398.452 924.388 398.37 924.551 398.045C924.714 397.557 924.876 397.068 925.039 396.58C925.365 395.929 925.609 395.278 925.771 394.627C926.097 393.976 926.26 393.406 926.26 392.918L923.818 387.791V376.072C923.493 372.98 922.76 370.213 921.621 367.771C920.482 365.167 919.912 362.563 919.912 359.959V354.1C920.563 347.752 921.377 341.079 922.354 334.08C923.33 326.919 923.818 320.083 923.818 313.572C923.818 310.317 923.493 306.899 922.842 303.318C922.354 299.575 921.377 295.913 919.912 292.332C919.587 291.844 919.342 291.355 919.18 290.867C918.854 289.891 918.691 289.24 918.691 288.914V282.566C918.529 281.915 918.203 281.02 917.715 279.881C917.389 278.579 916.901 277.277 916.25 275.975C915.762 274.673 915.192 273.533 914.541 272.557C914.053 271.417 913.727 270.685 913.564 270.359C913.402 270.359 912.751 270.115 911.611 269.627C910.472 269.139 909.251 268.569 907.949 267.918C906.647 267.267 905.264 266.616 903.799 265.965C902.497 265.314 901.52 264.826 900.869 264.5L896.23 263.279C895.742 262.628 894.847 261.896 893.545 261.082C892.406 260.105 891.104 259.129 889.639 258.152C888.337 257.176 887.035 256.281 885.732 255.467C884.593 254.49 883.779 253.676 883.291 253.025H845.205C844.391 253.025 843.496 253.432 842.52 254.246C841.706 254.897 840.892 255.711 840.078 256.688C839.427 257.501 838.776 258.315 838.125 259.129C837.474 259.943 836.986 260.431 836.66 260.594C834.219 264.012 832.184 267.186 830.557 270.115C829.092 272.882 827.952 276.463 827.139 280.857L832.021 331.15C832.021 331.964 831.94 332.859 831.777 333.836C831.615 334.65 831.289 335.708 830.801 337.01C830.475 338.637 830.231 340.102 830.068 341.404C830.068 342.706 830.068 344.253 830.068 346.043L830.312 359.471L833.242 370.945C834.219 377.293 834.707 383.641 834.707 389.988C834.707 397.312 834.219 404.718 833.242 412.205C834.056 413.344 834.707 414.24 835.195 414.891C835.684 415.542 836.172 416.355 836.66 417.332C837.311 418.146 838.044 419.285 838.857 420.75C839.671 422.215 840.973 424.331 842.764 427.098C843.74 428.4 844.717 429.376 845.693 430.027C846.833 430.516 847.972 430.841 849.111 431.004C850.251 431.167 851.471 431.329 852.773 431.492C854.076 431.492 855.459 431.736 856.924 432.225C858.714 432.55 859.609 434.34 859.609 437.596C859.609 438.572 859.447 439.793 859.121 441.258C858.958 442.56 858.633 443.862 858.145 445.164C857.656 446.303 857.087 447.361 856.436 448.338C855.785 449.152 855.133 449.64 854.482 449.803C852.204 450.291 850.251 451.023 848.623 452C847.158 453.139 845.205 453.709 842.764 453.709C839.346 453.709 836.253 453.628 833.486 453.465C830.719 453.302 828.441 453.221 826.65 453.221H816.885L795.4 452C794.261 451.349 793.366 451.023 792.715 451.023C792.227 450.861 791.576 450.779 790.762 450.779C788.483 450.779 786.367 451.105 784.414 451.756C782.461 452.244 780.426 452.814 778.311 453.465C776.357 454.116 774.242 454.686 771.963 455.174C769.847 455.825 767.487 456.15 764.883 456.15L753.652 457.127C751.862 455.174 750.397 452.488 749.258 449.07C748.118 445.652 747.549 442.153 747.549 438.572ZM1022.7 345.066C1022.7 344.253 1022.86 342.706 1023.18 340.428C1023.51 337.986 1023.83 335.464 1024.16 332.859C1024.65 330.092 1024.97 327.488 1025.14 325.047C1025.46 322.605 1025.62 320.978 1025.62 320.164C1026.28 312.352 1027.99 304.376 1030.75 296.238C1033.68 288.1 1037.34 280.288 1041.74 272.801C1046.13 265.151 1051.18 258.152 1056.88 251.805C1062.73 245.457 1069.08 240.086 1075.92 235.691C1076.08 235.366 1076.89 234.796 1078.36 233.982C1079.99 233.169 1081.7 232.355 1083.49 231.541C1085.28 230.727 1086.99 229.913 1088.61 229.1C1090.24 228.286 1091.22 227.716 1091.54 227.391C1092.68 226.902 1094.15 226.089 1095.94 224.949C1097.89 223.647 1099.84 222.426 1101.8 221.287C1103.75 219.985 1105.7 218.846 1107.66 217.869C1109.61 216.893 1111.4 216.404 1113.03 216.404C1114.49 216.404 1115.63 216.567 1116.45 216.893C1117.42 217.218 1118.56 217.706 1119.86 218.357C1122.63 218.032 1125.23 217.788 1127.68 217.625C1130.28 217.299 1132.88 217.137 1135.49 217.137C1138.26 217.137 1140.86 217.299 1143.3 217.625C1145.74 217.788 1148.35 218.032 1151.11 218.357C1151.11 218.357 1151.44 218.52 1152.09 218.846C1152.74 219.008 1153.47 219.253 1154.29 219.578C1155.1 219.904 1155.91 220.229 1156.73 220.555C1157.54 220.88 1158.19 221.124 1158.68 221.287C1159.17 221.45 1160.15 221.938 1161.61 222.752C1163.08 223.403 1164.7 224.217 1166.49 225.193C1168.28 226.17 1169.99 227.065 1171.62 227.879C1173.25 228.53 1174.39 228.937 1175.04 229.1C1175.04 229.262 1175.61 229.507 1176.75 229.832C1177.89 230.158 1178.62 230.32 1178.95 230.32L1188.71 235.691L1210.68 255.711C1211.33 256.525 1212.31 258.722 1213.61 262.303C1215.08 265.721 1216.46 269.546 1217.76 273.777C1219.23 277.846 1220.45 281.753 1221.43 285.496C1222.57 289.24 1223.13 291.681 1223.13 292.82C1223.13 295.099 1222.48 296.971 1221.18 298.436C1219.88 299.738 1218.33 300.877 1216.54 301.854C1214.75 302.667 1212.8 303.318 1210.68 303.807C1208.73 304.132 1207.02 304.376 1205.56 304.539H1204.58C1202.95 304.702 1200.27 304.865 1196.52 305.027C1192.94 305.19 1189.12 305.353 1185.05 305.516C1181.14 305.516 1177.4 305.597 1173.82 305.76C1170.4 305.76 1168.04 305.76 1166.74 305.76C1164.95 306.574 1163.32 307.062 1161.86 307.225C1160.55 307.387 1159.17 307.469 1157.71 307.469L1140.37 305.76C1137.12 305.76 1133.7 306.329 1130.12 307.469C1126.7 308.608 1123.36 309.178 1120.11 309.178C1117.99 309.178 1115.88 308.445 1113.76 306.98C1111.81 305.353 1109.61 304.539 1107.17 304.539C1106.84 304.539 1105.95 304.946 1104.48 305.76C1103.18 306.411 1102.2 306.736 1101.55 306.736L1083 305.516C1080.39 305.516 1077.95 306.004 1075.67 306.98C1073.4 307.957 1070.79 309.666 1067.86 312.107C1067.37 316.339 1067.05 320.083 1066.88 323.338C1066.72 326.43 1066.64 329.93 1066.64 333.836C1066.64 337.254 1066.8 340.021 1067.13 342.137C1067.62 344.253 1068.27 346.287 1069.08 348.24C1069.9 350.031 1070.87 351.902 1072.01 353.855C1073.15 355.646 1074.45 357.924 1075.92 360.691L1078.36 365.33C1082.59 374.607 1088.04 382.094 1094.72 387.791C1101.39 393.488 1110.02 397.964 1120.6 401.219C1120.6 402.033 1121.74 402.846 1124.01 403.66C1126.46 404.311 1129.14 404.799 1132.07 405.125C1135.49 405.776 1139.39 406.183 1143.79 406.346C1149.16 406.346 1154.69 406.02 1160.39 405.369C1166.09 404.718 1171.62 403.66 1176.99 402.195C1182.36 400.73 1187.41 398.777 1192.13 396.336C1197.01 393.895 1201.16 390.883 1204.58 387.303H1208.49C1210.44 387.303 1211.74 387.628 1212.39 388.279C1213.21 388.768 1214.02 390.314 1214.83 392.918C1214.35 397.638 1213.61 401.87 1212.64 405.613C1211.82 409.194 1210.6 412.449 1208.97 415.379C1207.51 418.309 1205.56 421.076 1203.12 423.68C1200.67 426.121 1197.5 428.644 1193.59 431.248C1192.29 432.225 1191.07 432.957 1189.93 433.445C1188.79 433.771 1187.73 434.096 1186.76 434.422C1185.78 434.747 1184.72 435.236 1183.58 435.887C1182.61 436.538 1181.47 437.677 1180.17 439.305L1154.04 452.488L1151.11 452L1132.8 454.93C1119.13 454.93 1106.84 452.977 1095.94 449.07C1085.03 445.164 1075.27 439.63 1066.64 432.469C1058.18 425.145 1050.77 416.437 1044.42 406.346C1038.24 396.255 1032.95 385.105 1028.55 372.898C1027.09 368.504 1026.19 364.028 1025.87 359.471C1025.54 354.751 1024.49 349.949 1022.7 345.066ZM1070.79 278.416C1070.79 279.23 1070.87 280.451 1071.04 282.078C1071.36 283.706 1071.77 285.333 1072.26 286.961C1072.74 288.589 1073.31 290.053 1073.96 291.355C1074.62 292.658 1075.27 293.39 1075.92 293.553H1083.49L1115.96 288.426L1136.71 290.135C1140.29 290.135 1143.46 289.809 1146.23 289.158C1149.16 288.507 1152.33 287.775 1155.75 286.961C1158.84 286.473 1161.45 286.066 1163.56 285.74C1165.84 285.252 1167.63 284.438 1168.94 283.299C1170.4 282.16 1171.46 280.695 1172.11 278.904C1172.76 276.951 1173.09 274.266 1173.09 270.848C1173.09 265.151 1171.54 260.187 1168.45 255.955C1165.35 251.723 1161.45 248.224 1156.73 245.457C1152.17 242.527 1147.13 240.411 1141.59 239.109C1136.22 237.645 1131.18 236.912 1126.46 236.912C1125.32 236.912 1123.69 237.238 1121.57 237.889C1119.46 238.377 1117.01 239.109 1114.25 240.086C1111.64 240.9 1108.88 241.876 1105.95 243.016C1103.18 243.992 1100.58 245.132 1098.13 246.434C1095.86 247.573 1093.82 248.712 1092.03 249.852C1090.24 250.828 1089.1 251.723 1088.61 252.537L1083.49 263.523C1082.51 264.663 1081.29 265.721 1079.82 266.697C1078.36 267.674 1076.89 268.732 1075.43 269.871C1074.13 271.01 1072.99 272.312 1072.01 273.777C1071.2 275.079 1070.79 276.626 1070.79 278.416ZM1332.51 450.779C1322.09 450.779 1312.57 448.826 1303.95 444.92C1295.32 440.851 1288.24 434.178 1282.71 424.9L1270.74 412.693C1270.58 411.88 1270.01 410.333 1269.03 408.055C1268.06 405.776 1267 403.335 1265.86 400.73C1264.72 398.126 1263.66 395.766 1262.69 393.65C1261.71 391.535 1261.22 390.151 1261.22 389.5V376.316C1260.9 374.363 1260.33 372.654 1259.51 371.189C1258.86 369.562 1258.05 368.016 1257.07 366.551C1256.26 364.923 1255.52 363.377 1254.87 361.912C1254.22 360.285 1253.9 358.494 1253.9 356.541L1256.09 326.512C1256.09 325.047 1255.77 323.501 1255.12 321.873C1254.63 320.245 1254.38 318.536 1254.38 316.746C1254.38 314.467 1254.63 312.514 1255.12 310.887C1255.77 309.259 1256.42 307.632 1257.07 306.004C1257.72 304.376 1258.29 302.667 1258.78 300.877C1259.43 298.924 1259.76 296.482 1259.76 293.553L1276.85 271.58L1275.14 267.918C1275.62 267.267 1276.19 266.535 1276.85 265.721C1277.33 265.07 1277.82 264.337 1278.31 263.523C1278.96 262.71 1279.53 261.896 1280.02 261.082C1289.62 249.201 1300.77 239.76 1313.47 232.762C1326.16 225.6 1340.08 219.985 1355.21 215.916L1359.61 214.695C1368.4 214.695 1377.19 215.509 1385.98 217.137C1394.93 218.764 1403.39 221.043 1411.37 223.973C1412.51 226.74 1414.3 228.53 1416.74 229.344C1419.34 229.995 1421.78 230.32 1424.06 230.32C1425.53 232.924 1426.91 235.203 1428.21 237.156C1429.51 239.109 1430.65 241.062 1431.63 243.016C1432.61 244.969 1433.34 247.085 1433.83 249.363C1434.48 251.479 1434.8 254.002 1434.8 256.932C1434.8 262.791 1432.77 267.755 1428.7 271.824C1424.63 275.893 1418.85 277.928 1411.37 277.928C1410.88 277.277 1410.23 276.463 1409.41 275.486C1408.6 274.347 1407.71 273.289 1406.73 272.312C1405.75 271.173 1404.86 270.197 1404.04 269.383C1403.23 268.569 1402.58 268.081 1402.09 267.918C1401.93 267.592 1401.11 267.348 1399.65 267.186C1398.18 266.86 1397.37 266.697 1397.21 266.697C1393.3 264.907 1390.29 262.14 1388.17 258.396C1386.22 254.49 1384.1 250.665 1381.83 246.922C1379.71 243.016 1377.02 239.598 1373.77 236.668C1370.68 233.738 1365.96 232.273 1359.61 232.273C1354.89 232.273 1350.58 233.087 1346.67 234.715C1342.76 236.18 1339.02 238.214 1335.44 240.818C1331.86 243.26 1328.44 246.189 1325.19 249.607C1322.09 252.863 1318.92 256.281 1315.66 259.861C1315.01 261.163 1313.96 262.547 1312.49 264.012C1311.03 265.314 1310.05 266.616 1309.56 267.918V277.928L1307.61 280.857C1305 286.066 1303.21 291.03 1302.24 295.75C1301.26 300.47 1300.77 305.841 1300.77 311.863C1300.77 312.84 1300.77 314.061 1300.77 315.525C1300.77 316.827 1300.85 318.211 1301.02 319.676C1301.18 320.978 1301.34 322.199 1301.5 323.338C1301.67 324.314 1301.99 324.803 1302.48 324.803C1302.48 326.105 1302.48 327.732 1302.48 329.686C1302.64 331.476 1302.81 333.266 1302.97 335.057C1303.13 336.847 1303.29 338.393 1303.46 339.695C1303.62 340.997 1303.7 341.648 1303.7 341.648L1305.9 345.066V351.902C1305.9 355.646 1306.06 358.901 1306.39 361.668C1306.88 364.435 1307.53 367.12 1308.34 369.725C1309.32 372.166 1310.37 374.689 1311.51 377.293C1312.82 379.734 1314.2 382.501 1315.66 385.594C1315.66 385.919 1316.32 387.059 1317.62 389.012C1318.92 390.802 1320.3 392.837 1321.77 395.115C1323.23 397.231 1324.62 399.266 1325.92 401.219C1327.22 403.009 1328.03 404.148 1328.36 404.637C1329.66 406.102 1331.37 406.997 1333.49 407.322C1335.6 407.648 1337.23 408.299 1338.37 409.275C1340.97 411.229 1343.09 412.938 1344.72 414.402C1346.51 415.704 1348.22 416.844 1349.84 417.82C1351.63 418.797 1353.51 419.529 1355.46 420.018C1357.41 420.506 1360.02 420.75 1363.27 420.75C1370.76 420.75 1378.41 419.204 1386.22 416.111C1394.03 413.019 1400.87 409.194 1406.73 404.637C1408.03 403.66 1409.41 402.439 1410.88 400.975C1412.51 399.347 1414.13 397.801 1415.76 396.336C1417.39 394.871 1419.02 393.569 1420.64 392.43C1422.43 391.29 1424.14 390.721 1425.77 390.721C1428.7 390.721 1430.65 391.29 1431.63 392.43C1432.77 393.569 1433.34 395.522 1433.34 398.289V401.219C1430.57 410.496 1426.18 418.471 1420.16 425.145C1414.3 431.818 1407.46 437.352 1399.65 441.746C1391.84 445.978 1383.45 449.152 1374.5 451.268C1365.55 453.383 1356.76 454.441 1348.13 454.441H1340.57L1336.17 450.779H1332.51ZM1451.65 450.291C1451.49 449.965 1451.41 449.477 1451.41 448.826C1451.41 448.012 1451.41 447.28 1451.41 446.629L1451.65 441.502C1451.65 440.037 1452.22 439.142 1453.36 438.816C1454.66 438.491 1455.96 437.921 1457.27 437.107C1458.73 435.317 1460.52 434.34 1462.64 434.178C1464.92 433.852 1466.79 433.283 1468.25 432.469C1472.65 430.678 1477.12 428.888 1481.68 427.098C1486.24 425.145 1489.9 421.727 1492.67 416.844C1493.15 416.193 1493.81 414.891 1494.62 412.938C1495.6 410.984 1496.49 408.868 1497.3 406.59C1498.12 404.148 1498.85 401.788 1499.5 399.51C1500.15 397.231 1500.56 395.604 1500.72 394.627C1501.05 394.139 1501.21 393.488 1501.21 392.674C1501.21 391.697 1501.21 391.046 1501.21 390.721L1495.6 364.109C1495.6 361.993 1496.33 360.04 1497.79 358.25C1499.26 356.46 1499.99 354.588 1499.99 352.635L1497.06 341.404C1497.06 339.126 1497.06 336.359 1497.06 333.104C1497.22 329.848 1497.39 326.593 1497.55 323.338C1497.87 319.92 1498.36 316.827 1499.01 314.061C1499.66 311.131 1500.56 308.934 1501.7 307.469C1502.02 302.749 1502.27 298.273 1502.43 294.041C1502.76 289.809 1502.92 285.415 1502.92 280.857C1502.92 277.277 1502.76 273.777 1502.43 270.359C1502.27 266.779 1502.02 263.117 1501.7 259.373C1502.51 258.071 1503 256.606 1503.16 254.979C1503.49 253.188 1503.65 251.561 1503.65 250.096V246.189L1501.94 228.611C1501.94 227.146 1502.27 226.089 1502.92 225.438C1503.73 224.624 1504.55 223.973 1505.36 223.484C1506.18 222.833 1506.91 222.264 1507.56 221.775C1508.37 221.124 1508.78 220.311 1508.78 219.334L1501.94 205.418L1505.85 177.586C1505.85 174.493 1505.44 171.482 1504.63 168.553C1503.98 165.46 1503.65 162.124 1503.65 158.543L1504.87 148.777C1504.87 146.173 1503.65 143.488 1501.21 140.721C1498.93 137.791 1496.98 135.268 1495.35 133.152L1478.75 116.551C1478.42 116.551 1477.94 116.388 1477.29 116.062C1476.63 115.574 1476.31 115.167 1476.31 114.842C1476.15 114.516 1476.06 114.272 1476.06 114.109C1475.9 113.947 1475.82 113.702 1475.82 113.377C1475.82 111.098 1475.98 108.982 1476.31 107.029C1476.63 105.076 1477.45 103.774 1478.75 103.123C1479.56 102.309 1480.62 101.821 1481.92 101.658C1483.39 101.495 1485.02 101.414 1486.81 101.414H1490.96C1493.24 101.414 1494.78 101.251 1495.6 100.926C1500.15 99.9492 1504.71 98.403 1509.27 96.2871C1513.82 94.1712 1518.71 93.1133 1523.92 93.1133C1525.54 93.1133 1527.5 93.4388 1529.78 94.0898C1532.22 94.7409 1534.58 95.5547 1536.86 96.5312C1539.13 97.5078 1541.09 98.7285 1542.71 100.193C1544.34 101.495 1545.16 102.879 1545.16 104.344C1545.16 106.297 1544.67 108.087 1543.69 109.715C1542.88 111.18 1542.47 112.807 1542.47 114.598L1546.38 141.453C1546.38 143.732 1546.3 145.441 1546.13 146.58C1545.97 147.719 1545.48 149.428 1544.67 151.707V174.9C1544.67 176.528 1544.67 178.644 1544.67 181.248C1544.83 183.852 1544.91 186.456 1544.91 189.061C1544.91 191.502 1544.91 193.699 1544.91 195.652C1545.07 197.443 1545.16 198.419 1545.16 198.582L1546.38 215.428L1544.67 222.752C1544.67 225.519 1544.91 228.123 1545.4 230.564C1546.05 233.006 1546.38 235.61 1546.38 238.377C1546.38 241.632 1545.73 244.399 1544.42 246.678C1543.12 248.956 1542.47 251.235 1542.47 253.514L1545.16 262.303C1545.16 263.442 1544.75 264.581 1543.94 265.721C1543.28 266.697 1542.55 267.755 1541.74 268.895C1540.92 270.034 1540.11 271.173 1539.3 272.312C1538.65 273.452 1538.32 274.673 1538.32 275.975L1539.3 285.252L1538.32 292.332C1538.32 294.122 1538.97 295.994 1540.27 297.947C1541.74 299.9 1543.77 300.877 1546.38 300.877H1547.6C1549.06 300.714 1550.53 300.145 1551.99 299.168C1553.62 298.029 1555.08 296.808 1556.39 295.506C1557.85 294.204 1559.15 292.983 1560.29 291.844C1561.43 290.704 1562.41 289.891 1563.22 289.402C1567.45 287.124 1571.04 285.415 1573.96 284.275C1577.06 282.973 1579.82 281.671 1582.27 280.369C1584.87 278.904 1587.31 277.114 1589.59 274.998C1592.03 272.719 1594.8 269.383 1597.89 264.988C1598.7 263.523 1599.36 262.384 1599.84 261.57C1600.49 260.757 1600.98 260.105 1601.31 259.617C1601.8 259.129 1602.12 258.641 1602.29 258.152C1602.45 257.664 1602.53 256.932 1602.53 255.955C1602.53 254.165 1601.96 252.618 1600.82 251.316C1599.84 250.014 1598.7 248.712 1597.4 247.41C1596.26 246.108 1595.21 244.725 1594.23 243.26C1593.25 241.795 1592.76 240.005 1592.76 237.889V234.959C1592.76 234.308 1592.85 233.657 1593.01 233.006C1593.33 232.355 1594.15 231.704 1595.45 231.053C1597.73 230.727 1600.01 230.483 1602.29 230.32C1604.56 229.995 1606.6 229.832 1608.39 229.832C1611.16 230.158 1613.84 230.483 1616.45 230.809C1619.05 230.971 1621.57 231.053 1624.01 231.053C1625.32 231.053 1626.46 231.053 1627.43 231.053C1628.57 231.053 1629.71 230.89 1630.85 230.564L1650.38 229.832C1650.54 229.832 1650.95 229.751 1651.6 229.588C1652.42 229.425 1653.23 229.262 1654.04 229.1C1654.86 228.774 1655.59 228.53 1656.24 228.367C1656.89 228.204 1657.3 228.123 1657.46 228.123H1679.43C1681.22 229.588 1682.85 231.134 1684.32 232.762C1685.78 234.389 1686.51 236.098 1686.51 237.889C1686.51 239.516 1685.7 241.144 1684.07 242.771C1682.44 244.236 1680.33 245.701 1677.72 247.166C1675.12 248.468 1672.19 249.689 1668.94 250.828C1665.84 251.967 1662.83 253.025 1659.9 254.002C1656.97 254.979 1654.29 255.874 1651.85 256.688C1649.4 257.339 1647.61 257.827 1646.47 258.152C1641.75 260.268 1637.85 262.059 1634.76 263.523C1631.66 264.826 1628 266.535 1623.77 268.65C1622.47 270.441 1621.49 272.15 1620.84 273.777C1620.35 275.405 1619.05 277.114 1616.93 278.904C1616.12 279.393 1614.65 280.044 1612.54 280.857C1610.59 281.671 1608.47 282.648 1606.19 283.787C1604.08 284.926 1602.12 286.31 1600.33 287.938C1598.7 289.402 1597.89 291.03 1597.89 292.82C1597.89 294.122 1597.89 295.831 1597.89 297.947C1598.05 300.063 1598.3 302.26 1598.62 304.539C1598.95 306.818 1599.44 309.015 1600.09 311.131C1600.74 313.247 1601.55 315.037 1602.53 316.502C1606.11 321.222 1609.85 325.372 1613.76 328.953C1617.67 332.371 1621 336.521 1623.77 341.404C1624.75 342.544 1625.32 343.439 1625.48 344.09C1625.8 344.578 1625.97 345.066 1625.97 345.555C1626.13 346.043 1626.29 346.694 1626.46 347.508C1626.62 348.159 1627.11 349.217 1627.92 350.682C1628.41 352.472 1629.3 353.937 1630.61 355.076C1632.07 356.053 1633.54 357.029 1635 358.006C1636.63 358.982 1638.17 360.04 1639.64 361.18C1641.27 362.156 1642.57 363.458 1643.54 365.086C1647.61 374.526 1653.23 383.803 1660.39 392.918C1667.55 401.87 1674.88 409.764 1682.36 416.6C1683.83 417.739 1686.27 418.96 1689.69 420.262C1693.27 421.564 1697.01 423.029 1700.92 424.656C1704.99 426.121 1708.89 427.667 1712.64 429.295C1716.38 430.923 1719.23 432.713 1721.18 434.666C1721.67 435.154 1721.91 435.724 1721.91 436.375C1722.08 437.026 1722.16 437.758 1722.16 438.572V443.455C1722.16 445.083 1721.67 446.548 1720.69 447.85C1719.88 449.152 1718.82 449.965 1717.52 450.291H1697.26L1667.23 446.141C1667.06 446.141 1666.9 446.222 1666.74 446.385C1666.58 446.385 1666.41 446.385 1666.25 446.385C1665.92 446.548 1665.68 446.629 1665.52 446.629C1654.78 449.884 1644.52 451.512 1634.76 451.512L1621.08 452C1618.48 452 1615.96 451.837 1613.52 451.512C1611.24 451.186 1609.53 450.617 1608.39 449.803C1606.6 448.012 1605.54 446.303 1605.21 444.676C1604.89 442.885 1604.73 440.851 1604.73 438.572V433.934C1604.73 432.306 1605.7 431.085 1607.66 430.271C1609.61 429.295 1611.81 428.318 1614.25 427.342C1616.69 426.365 1618.89 425.145 1620.84 423.68C1622.79 422.215 1623.77 420.099 1623.77 417.332C1623.77 415.379 1623.2 413.833 1622.06 412.693C1620.92 411.391 1619.62 410.252 1618.15 409.275C1616.69 408.136 1615.14 407.078 1613.52 406.102C1611.89 404.962 1610.59 403.66 1609.61 402.195C1608.47 399.754 1607.66 397.231 1607.17 394.627C1606.84 391.86 1606.35 389.256 1605.7 386.814C1605.05 384.21 1603.91 381.85 1602.29 379.734C1600.66 377.618 1598.05 375.91 1594.47 374.607C1594.15 373.956 1593.58 372.898 1592.76 371.434C1592.11 369.969 1591.38 368.423 1590.57 366.795C1589.75 365.005 1588.94 363.377 1588.12 361.912C1587.47 360.285 1587.07 359.064 1586.9 358.25C1586.09 356.948 1584.87 355.89 1583.24 355.076C1581.78 354.262 1580.31 353.449 1578.85 352.635C1576.73 350.682 1574.62 348.322 1572.5 345.555C1570.55 342.625 1568.35 339.777 1565.91 337.01C1563.63 334.243 1561.19 331.883 1558.58 329.93C1555.98 327.977 1553.05 327 1549.79 327C1548.49 327 1547.27 327.407 1546.13 328.221C1545.16 328.872 1544.67 330.174 1544.67 332.127L1546.38 337.498C1546.38 337.986 1545.97 338.963 1545.16 340.428C1544.51 341.73 1543.69 343.113 1542.71 344.578C1541.9 346.043 1541.09 347.426 1540.27 348.729C1539.62 349.868 1539.3 350.519 1539.3 350.682V362.4C1539.3 366.958 1539.87 371.027 1541.01 374.607C1542.31 378.188 1542.96 382.013 1542.96 386.082C1542.96 387.872 1542.71 389.419 1542.23 390.721C1541.74 392.023 1541.25 393.325 1540.76 394.627C1540.44 396.092 1540.11 397.475 1539.79 398.777C1539.46 400.079 1539.3 401.463 1539.3 402.928C1539.3 409.113 1540.11 414.24 1541.74 418.309C1543.53 422.215 1545.89 425.145 1548.82 427.098C1550.61 428.237 1552.64 429.132 1554.92 429.783C1557.36 430.271 1559.64 430.678 1561.76 431.004C1564.04 431.167 1566.15 431.329 1568.11 431.492C1570.06 431.655 1571.52 431.98 1572.5 432.469C1574.29 433.283 1575.27 434.096 1575.43 434.91C1575.76 435.724 1575.92 436.619 1575.92 437.596C1575.92 439.874 1575.67 442.316 1575.19 444.92C1574.86 447.361 1573.88 449.314 1572.26 450.779C1570.95 451.593 1569.33 452.081 1567.37 452.244C1565.42 452.57 1563.47 452.732 1561.51 452.732H1554.92L1535.88 449.07L1510 450.779H1493.89L1474.11 452.732L1462.64 453.221C1461.66 452.895 1460.44 452.732 1458.97 452.732C1457.51 452.732 1456.21 452.732 1455.07 452.732L1451.65 450.291ZM1733.88 441.502C1733.88 439.223 1733.96 437.677 1734.12 436.863C1734.28 435.887 1734.85 435.154 1735.83 434.666C1736.64 434.34 1737.78 434.178 1739.25 434.178C1740.88 434.178 1742.42 434.178 1743.89 434.178C1744.7 434.178 1745.68 433.934 1746.82 433.445C1747.96 432.794 1748.69 432.387 1749.01 432.225C1749.34 431.899 1749.83 431.574 1750.48 431.248C1751.29 430.76 1752.19 430.353 1753.16 430.027C1756.74 429.376 1759.27 429.051 1760.73 429.051C1762.2 428.888 1763.34 427.667 1764.15 425.389C1764.48 420.994 1764.8 416.437 1765.13 411.717C1765.62 406.834 1765.86 402.277 1765.86 398.045C1765.86 392.674 1765.7 387.547 1765.37 382.664C1765.05 377.618 1764.64 372.817 1764.15 368.26L1765.13 363.621V346.531C1765.13 342.625 1765.29 338.8 1765.62 335.057C1766.1 331.15 1767.32 327.326 1769.28 323.582L1767.57 287.205C1767.41 286.88 1767.24 286.31 1767.08 285.496C1766.92 284.52 1766.75 283.543 1766.59 282.566C1766.43 281.59 1766.27 280.695 1766.1 279.881C1765.94 279.067 1765.86 278.579 1765.86 278.416C1765.05 277.602 1764.48 277.195 1764.15 277.195C1764.15 276.87 1763.74 276.463 1762.93 275.975C1762.28 275.486 1761.46 274.998 1760.49 274.51C1759.67 273.859 1758.86 273.37 1758.05 273.045C1757.23 272.557 1756.74 272.231 1756.58 272.068C1756.42 272.068 1756.01 271.824 1755.36 271.336C1754.87 270.848 1754.3 270.359 1753.65 269.871C1753 269.22 1752.35 268.65 1751.7 268.162C1751.21 267.511 1750.89 267.104 1750.72 266.941C1748.93 266.453 1747.3 266.128 1745.84 265.965C1744.38 265.802 1742.99 265.639 1741.69 265.477C1740.55 265.151 1739.41 264.663 1738.27 264.012C1737.13 263.361 1736.07 262.221 1735.1 260.594C1735.42 260.268 1735.5 259.21 1735.34 257.42C1735.34 255.467 1735.99 253.595 1737.29 251.805C1738.76 250.665 1740.31 249.933 1741.93 249.607C1743.56 249.282 1745.19 248.875 1746.82 248.387C1748.28 248.061 1749.66 247.736 1750.97 247.41C1752.43 246.922 1753.9 246.108 1755.36 244.969C1755.52 244.969 1756.01 244.725 1756.83 244.236C1757.64 243.748 1758.45 243.178 1759.27 242.527C1760.08 241.876 1760.81 241.307 1761.46 240.818C1762.28 240.33 1762.77 240.086 1762.93 240.086L1775.14 234.959C1775.3 234.796 1775.71 234.389 1776.36 233.738C1777.17 232.924 1777.99 232.192 1778.8 231.541C1779.61 230.727 1780.35 229.995 1781 229.344C1781.65 228.693 1782.14 228.286 1782.46 228.123H1789.05C1792.31 228.123 1794.83 228.286 1796.62 228.611C1798.57 228.937 1799.96 229.507 1800.77 230.32C1801.75 231.134 1802.32 232.355 1802.48 233.982C1802.81 235.61 1802.97 237.726 1802.97 240.33V244.969C1803.13 246.434 1803.29 248.061 1803.46 249.852C1803.78 251.642 1804.27 253.351 1804.92 254.979C1805.57 256.443 1806.47 257.745 1807.61 258.885C1808.91 260.024 1810.54 260.594 1812.49 260.594C1812.65 260.268 1813.14 259.78 1813.96 259.129C1814.77 258.315 1815.66 257.501 1816.64 256.688C1817.62 255.711 1818.51 254.897 1819.33 254.246C1820.14 253.595 1820.63 253.188 1820.79 253.025L1830.07 250.096C1830.39 250.096 1830.8 250.014 1831.29 249.852C1831.94 249.526 1832.43 249.201 1832.75 248.875C1833.08 248.712 1834.14 247.898 1835.93 246.434C1837.72 244.969 1839.67 243.423 1841.79 241.795C1843.9 240.167 1845.94 238.702 1847.89 237.4C1849.84 235.936 1851.23 235.122 1852.04 234.959C1852.2 234.796 1852.77 234.471 1853.75 233.982C1854.89 233.494 1856.19 233.006 1857.66 232.518C1859.12 231.867 1860.5 231.297 1861.81 230.809C1863.11 230.32 1864.09 229.995 1864.74 229.832H1868.64C1871.08 229.181 1873.44 227.96 1875.72 226.17C1878.16 224.38 1880.85 223.484 1883.78 223.484H1886.71L1893.54 226.902C1893.71 227.065 1894.28 227.228 1895.25 227.391C1896.23 227.553 1897.29 227.716 1898.43 227.879C1899.73 227.879 1900.95 227.96 1902.09 228.123C1903.23 228.123 1904.04 228.123 1904.53 228.123C1909.25 229.588 1912.99 231.541 1915.76 233.982C1918.69 236.261 1921.3 239.516 1923.57 243.748C1924.88 245.538 1925.85 247.41 1926.5 249.363C1927.32 251.316 1928.13 253.107 1928.95 254.734C1929.76 256.362 1930.82 257.745 1932.12 258.885C1933.58 260.024 1935.62 260.594 1938.22 260.594C1938.71 260.594 1939.28 260.594 1939.93 260.594C1940.75 260.431 1941.56 260.024 1942.37 259.373L1958 243.748L1966.05 240.086L1974.6 229.832L1984.37 226.902C1989.57 225.438 1994.62 224.298 1999.5 223.484C2004.38 222.671 2009.19 222.264 2013.91 222.264H2019.28C2021.88 222.264 2024.24 222.508 2026.36 222.996C2028.64 223.322 2031.24 224.217 2034.17 225.682C2034.33 225.844 2035.15 226.577 2036.61 227.879C2038.08 229.181 2038.97 229.832 2039.3 229.832C2039.3 229.995 2039.7 230.239 2040.52 230.564C2041.49 230.89 2042.47 231.297 2043.45 231.785C2044.42 232.273 2045.32 232.68 2046.13 233.006C2047.11 233.331 2047.76 233.576 2048.09 233.738C2048.41 233.738 2048.74 233.901 2049.06 234.227C2049.55 234.389 2049.79 234.633 2049.79 234.959C2049.96 235.122 2050.2 235.691 2050.53 236.668C2051.02 237.482 2051.5 238.458 2051.99 239.598C2052.64 240.574 2053.21 241.632 2053.7 242.771C2054.19 243.748 2054.6 244.48 2054.92 244.969C2055.9 248.712 2057.44 252.618 2059.56 256.688C2061.84 260.594 2063.22 264.419 2063.71 268.162V277.195L2065.91 282.566V288.914C2065.91 295.913 2065.58 303.074 2064.93 310.398C2064.44 317.56 2063.87 324.64 2063.22 331.639L2064.93 349.461V352.635L2063.71 357.029V370.945C2063.55 371.759 2063.39 373.468 2063.22 376.072C2063.06 378.514 2062.9 381.118 2062.73 383.885C2062.73 386.489 2062.65 388.93 2062.49 391.209C2062.49 393.488 2062.49 394.871 2062.49 395.359L2062 400.975C2062 402.765 2062.08 405.206 2062.25 408.299C2062.57 411.391 2063.06 413.589 2063.71 414.891C2064.04 415.542 2064.69 416.6 2065.66 418.064C2066.64 419.529 2069.33 421.401 2073.72 423.68C2076.32 424.982 2078.36 426.202 2079.82 427.342C2081.45 428.318 2082.75 429.295 2083.73 430.271C2084.87 431.085 2085.76 431.818 2086.42 432.469C2087.23 432.957 2088.12 433.445 2089.1 433.934C2090.73 434.91 2091.54 436.701 2091.54 439.305C2091.54 442.723 2090.81 445.245 2089.35 446.873C2088.69 448.175 2088.12 448.989 2087.64 449.314C2087.31 449.477 2086.9 449.559 2086.42 449.559H2083.97C2083.65 449.559 2083.32 449.64 2083 449.803C2082.67 449.803 2082.18 449.803 2081.53 449.803L2055.17 446.629L2048.09 446.873H2023.67C2022.86 446.873 2021.47 447.361 2019.52 448.338C2017.57 449.152 2016.27 449.559 2015.62 449.559L2004.63 446.873H1999.99C1998.2 446.873 1997.22 446.466 1997.06 445.652L1996.57 437.596C1996.57 434.666 1997.55 432.632 1999.5 431.492C2001.46 430.19 2003.25 428.562 2004.87 426.609C2007.15 423.68 2009.35 421.076 2011.46 418.797C2013.74 416.518 2016.51 414.646 2019.77 413.182L2024.4 406.834L2020.99 384.861L2024.89 369.236L2023.92 355.809C2023.75 354.995 2023.67 354.344 2023.67 353.855C2023.67 353.204 2023.67 352.553 2023.67 351.902C2023.67 351.089 2023.67 350.438 2023.67 349.949C2023.83 349.461 2024.24 348.81 2024.89 347.996C2023.1 338.068 2022.21 327.814 2022.21 317.234V307.957C2023.51 306.167 2024.24 304.783 2024.4 303.807C2024.73 302.83 2024.89 301.691 2024.89 300.389V296.971L2020.5 273.289C2020.34 273.289 2020.09 273.208 2019.77 273.045C2019.44 272.719 2019.28 272.394 2019.28 272.068C2018.95 272.068 2018.38 271.906 2017.57 271.58C2016.92 271.255 2016.18 270.848 2015.37 270.359C2014.72 269.871 2014.07 269.464 2013.42 269.139C2012.77 268.65 2012.36 268.325 2012.2 268.162L2005.85 263.279C2004.55 261.489 2002.76 260.431 2000.48 260.105C1998.2 259.617 1995.76 259.373 1993.15 259.373H1987.29C1984.37 259.373 1981.92 259.454 1979.97 259.617C1978.18 259.617 1975.66 259.943 1972.4 260.594C1969.31 262.059 1967.11 263.605 1965.81 265.232C1964.51 266.046 1963.21 266.941 1961.9 267.918C1960.6 268.732 1959.3 269.546 1958 270.359C1957.84 270.685 1956.94 271.092 1955.31 271.58C1953.68 271.906 1952.63 272.068 1952.14 272.068C1948.4 273.37 1945.55 275.161 1943.59 277.439C1941.8 279.718 1940.01 282.566 1938.22 285.984C1938.06 286.31 1937.65 286.961 1937 287.938C1936.35 288.914 1935.62 290.053 1934.8 291.355C1933.99 292.495 1933.26 293.634 1932.61 294.773C1931.96 295.75 1931.55 296.482 1931.39 296.971V301.609C1931.55 302.098 1931.71 303.725 1931.88 306.492C1932.04 309.096 1932.2 312.026 1932.36 315.281C1932.53 318.374 1932.61 321.385 1932.61 324.314C1932.77 327.081 1932.85 328.79 1932.85 329.441V335.057L1937 343.113V345.555C1937 348.159 1936.68 350.763 1936.03 353.367C1935.54 355.971 1935.29 358.576 1935.29 361.18L1937 372.654C1937 376.723 1936.68 380.63 1936.03 384.373C1935.37 388.117 1934.8 392.186 1934.32 396.58C1934.32 396.906 1934.24 398.045 1934.07 399.998C1934.07 401.788 1934.07 403.335 1934.07 404.637C1934.07 405.125 1934.15 405.857 1934.32 406.834C1934.64 407.648 1934.89 408.624 1935.05 409.764C1935.21 410.74 1935.37 411.717 1935.54 412.693C1935.86 413.507 1936.03 414.077 1936.03 414.402C1936.35 415.542 1936.68 416.355 1937 416.844C1937.33 417.169 1937.57 417.413 1937.73 417.576C1938.06 417.739 1938.39 417.983 1938.71 418.309C1939.04 418.471 1939.44 419.041 1939.93 420.018C1939.93 420.018 1940.18 420.343 1940.66 420.994C1941.15 421.645 1941.64 422.378 1942.13 423.191C1942.78 423.842 1943.35 424.493 1943.84 425.145C1944.49 425.796 1944.9 426.284 1945.06 426.609C1945.71 426.935 1947.09 427.342 1949.21 427.83C1951.49 428.318 1953.85 428.888 1956.29 429.539C1958.89 430.19 1961.42 431.004 1963.86 431.98C1966.3 432.794 1968.01 433.689 1968.98 434.666C1970.29 435.317 1971.02 435.968 1971.18 436.619C1971.51 437.107 1971.67 437.758 1971.67 438.572V443.455C1971.67 444.269 1971.51 445.164 1971.18 446.141C1971.02 446.954 1970.29 447.931 1968.98 449.07C1966.87 450.21 1963.78 451.105 1959.71 451.756C1955.64 452.244 1952.3 452.488 1949.7 452.488C1947.42 452.488 1945.38 452.407 1943.59 452.244C1941.97 452.081 1940.5 452 1939.2 452H1931.39L1924.31 450.779C1923.17 450.454 1922.03 450.21 1920.89 450.047C1919.91 449.884 1918.53 449.803 1916.74 449.803C1914.95 449.803 1913.08 449.803 1911.12 449.803C1909.33 449.803 1907.54 449.965 1905.75 450.291L1897.7 450.779C1895.9 451.268 1894.44 451.674 1893.3 452C1892.16 452.163 1891.02 452.326 1889.88 452.488C1888.91 452.814 1887.85 452.977 1886.71 452.977C1885.57 453.139 1884.19 453.221 1882.56 453.221C1881.74 453.221 1880.36 453.058 1878.41 452.732C1876.46 452.407 1874.42 452 1872.3 451.512C1870.35 451.023 1868.48 450.372 1866.69 449.559C1865.06 448.745 1864 447.85 1863.52 446.873C1862.38 445.734 1861.81 444.513 1861.81 443.211C1861.81 442.723 1861.89 442.316 1862.05 441.99C1862.21 441.502 1862.29 440.77 1862.29 439.793C1862.46 437.189 1862.95 435.561 1863.76 434.91C1864.74 434.096 1865.79 433.283 1866.93 432.469C1868.07 431.492 1870.11 430.923 1873.04 430.76C1875.97 430.597 1878.9 430.19 1881.83 429.539C1884.92 428.888 1887.6 427.667 1889.88 425.877C1892.32 424.087 1893.54 420.994 1893.54 416.6L1893.79 410.252L1891.35 400.486L1893.79 371.434L1890.86 342.137C1890.86 338.556 1891.51 335.301 1892.81 332.371C1894.11 329.441 1894.77 326.349 1894.77 323.094L1889.64 314.793V311.863L1891.35 305.76V293.553C1891.35 286.066 1890.53 280.044 1888.91 275.486C1887.44 270.929 1885.08 267.43 1881.83 264.988C1878.73 262.547 1874.58 260.919 1869.38 260.105C1864.33 259.292 1858.31 258.885 1851.31 258.885C1850.01 258.885 1848.46 258.966 1846.67 259.129C1845.04 259.292 1843.9 259.373 1843.25 259.373L1824.7 266.941C1822.42 267.592 1820.47 268.162 1818.84 268.65C1817.37 269.139 1815.75 270.278 1813.96 272.068C1812.98 272.882 1811.92 274.103 1810.78 275.73C1809.64 277.358 1808.58 279.23 1807.61 281.346C1806.63 283.299 1805.74 285.333 1804.92 287.449C1804.27 289.402 1803.95 291.03 1803.95 292.332C1803.95 293.146 1804.03 293.878 1804.19 294.529C1804.51 295.018 1804.84 295.831 1805.17 296.971V313.572L1808.1 322.361V340.428C1808.1 340.753 1808.26 341.567 1808.58 342.869C1809.07 344.171 1809.48 344.904 1809.8 345.066V349.461C1809.48 349.624 1809.07 350.6 1808.58 352.391C1808.26 354.181 1808.1 355.32 1808.1 355.809V369.725L1805.17 391.697C1805.17 391.86 1805.08 392.674 1804.92 394.139C1804.92 395.604 1804.84 397.231 1804.68 399.021C1804.51 400.812 1804.35 402.521 1804.19 404.148C1804.19 405.776 1804.11 406.915 1803.95 407.566C1803.95 409.845 1804.19 411.798 1804.68 413.426C1805.33 414.891 1806.14 416.274 1807.12 417.576C1808.26 418.715 1809.56 419.773 1811.03 420.75C1812.49 421.727 1814.04 422.866 1815.66 424.168C1816.48 424.819 1817.45 425.389 1818.59 425.877C1819.73 426.365 1821.04 426.609 1822.5 426.609L1828.12 430.027C1829.74 430.027 1831.21 430.19 1832.51 430.516C1833.81 430.841 1834.87 431.492 1835.68 432.469C1836.5 433.608 1836.99 434.503 1837.15 435.154C1837.31 435.805 1837.47 436.619 1837.64 437.596V441.014C1837.64 442.316 1837.56 443.618 1837.39 444.92C1837.23 446.059 1836.66 447.036 1835.68 447.85C1833.4 449.965 1830.31 451.186 1826.41 451.512C1822.5 451.837 1819.08 452 1816.15 452L1799.79 451.268H1770.99L1745.6 452.732C1745.27 452.732 1744.78 452.651 1744.13 452.488C1743.64 452.488 1743.15 452.326 1742.67 452C1742.34 451.674 1741.36 451.512 1739.74 451.512C1738.11 451.349 1736.97 451.105 1736.32 450.779C1735.18 449.965 1734.45 448.663 1734.12 446.873C1733.96 445.083 1733.88 443.292 1733.88 441.502ZM2224.84 423.191C2224.19 423.517 2223.13 424.493 2221.67 426.121C2220.37 427.586 2219.31 428.318 2218.5 428.318L2209.22 432.957C2208.89 433.12 2208.32 433.527 2207.51 434.178C2206.86 434.666 2206.04 435.317 2205.07 436.131C2204.25 436.782 2203.52 437.433 2202.87 438.084C2202.22 438.572 2201.81 438.816 2201.65 438.816C2201.32 438.979 2200.67 439.142 2199.7 439.305C2198.88 439.467 2197.91 439.63 2196.77 439.793C2195.79 439.956 2194.81 440.118 2193.84 440.281C2193.02 440.281 2192.37 440.281 2191.88 440.281C2190.58 440.607 2189.36 441.176 2188.22 441.99C2187.25 442.804 2186.19 443.781 2185.05 444.92C2184.07 445.896 2182.93 446.954 2181.63 448.094C2180.33 449.07 2178.86 449.965 2177.24 450.779H2154.04C2153.23 450.779 2152.09 450.617 2150.62 450.291C2149.32 449.965 2147.86 449.559 2146.23 449.07C2144.77 448.582 2143.3 448.012 2141.84 447.361C2140.37 446.71 2139.23 446.141 2138.42 445.652C2138.42 445.327 2137.93 444.594 2136.95 443.455C2136.14 442.153 2135.65 441.095 2135.49 440.281C2135.16 439.956 2134.92 439.549 2134.76 439.061C2134.27 438.572 2134.02 438.084 2134.02 437.596L2127.43 431.248C2126.13 428.644 2124.99 425.389 2124.01 421.482C2123.2 417.413 2122.79 414.077 2122.79 411.473L2124.5 406.346L2122.79 401.219V398.289C2122.79 397.475 2122.96 396.417 2123.28 395.115C2123.77 393.65 2124.26 392.267 2124.75 390.965C2125.23 389.5 2125.72 388.198 2126.21 387.059C2126.7 385.757 2127.11 384.861 2127.43 384.373C2127.59 384.21 2128.16 383.641 2129.14 382.664C2130.28 381.525 2131.5 380.304 2132.8 379.002C2134.1 377.537 2135.24 376.235 2136.22 375.096C2137.36 373.956 2138.09 373.143 2138.42 372.654C2138.58 372.654 2139.15 372.085 2140.13 370.945C2141.27 369.806 2141.84 369.074 2141.84 368.748L2142.32 367.771C2142.49 367.446 2142.57 367.12 2142.57 366.795C2145.34 365.005 2148.02 363.133 2150.62 361.18C2153.23 359.064 2156.16 357.273 2159.41 355.809C2159.58 355.646 2160.72 355.158 2162.83 354.344C2165.11 353.367 2167.55 352.391 2170.16 351.414C2172.92 350.275 2175.61 349.298 2178.21 348.484C2180.82 347.671 2182.77 347.101 2184.07 346.775C2185.7 345.962 2187.41 344.904 2189.2 343.602C2190.99 342.299 2192.7 341.079 2194.33 339.939C2196.12 338.8 2197.74 337.824 2199.21 337.01C2200.67 336.033 2201.89 335.545 2202.87 335.545H2209.22C2209.38 335.545 2209.87 335.301 2210.68 334.812C2211.01 334.65 2211.42 334.406 2211.9 334.08C2212.56 333.917 2214.1 333.673 2216.54 333.348C2219.15 333.022 2220.86 332.859 2221.67 332.859L2224.84 328.709C2225.98 328.058 2227.12 327.57 2228.26 327.244C2229.4 326.756 2230.46 326.268 2231.44 325.779C2232.41 325.291 2233.23 324.64 2233.88 323.826C2234.69 322.85 2235.34 321.548 2235.83 319.92C2236.97 316.502 2237.7 312.921 2238.03 309.178C2238.52 305.271 2238.76 301.609 2238.76 298.191V292.82C2238.76 292.495 2238.27 291.6 2237.29 290.135C2236.32 288.67 2235.83 287.612 2235.83 286.961L2232.9 274.51L2227.53 267.918L2224.84 262.791C2224.19 262.465 2223.54 261.652 2222.89 260.35C2222.24 259.048 2221.83 257.99 2221.67 257.176C2221.34 256.199 2220.12 255.304 2218.01 254.49C2215.89 253.514 2213.53 252.7 2210.93 252.049C2208.32 251.235 2205.72 250.665 2203.12 250.34C2200.67 249.852 2198.96 249.607 2197.99 249.607C2197.66 249.607 2196.36 249.607 2194.08 249.607C2191.97 249.445 2190.18 249.363 2188.71 249.363C2187.25 249.363 2185.21 249.526 2182.61 249.852C2180.17 250.014 2177.81 250.503 2175.53 251.316C2173.25 251.967 2171.21 252.944 2169.42 254.246C2167.8 255.548 2166.98 257.257 2166.98 259.373V261.57C2167.15 261.896 2167.47 262.628 2167.96 263.768C2168.45 264.744 2168.94 265.883 2169.42 267.186C2169.91 268.325 2170.32 269.464 2170.64 270.604C2171.13 271.58 2171.38 272.231 2171.38 272.557C2171.38 273.208 2171.13 274.184 2170.64 275.486C2170.32 276.626 2169.99 277.846 2169.67 279.148C2168.53 284.357 2166.98 288.344 2165.03 291.111C2163.08 293.878 2159.98 296.564 2155.75 299.168L2152.82 301.365C2152.17 301.854 2151.6 302.342 2151.11 302.83H2132.56C2131.09 302.83 2129.87 302.26 2128.9 301.121C2127.92 299.982 2127.11 298.68 2126.46 297.215C2125.8 295.587 2125.32 294.041 2124.99 292.576C2124.66 290.949 2124.5 289.728 2124.5 288.914C2124.5 287.938 2124.66 286.635 2124.99 285.008C2125.32 283.38 2125.8 281.834 2126.46 280.369C2127.11 278.742 2127.76 277.277 2128.41 275.975C2129.22 274.51 2130.04 273.37 2130.85 272.557C2131.34 271.417 2131.91 270.441 2132.56 269.627C2132.88 268.813 2133.21 268.162 2133.54 267.674C2134.02 267.186 2134.35 266.86 2134.51 266.697L2138.42 262.791C2142 260.512 2145.01 258.152 2147.45 255.711C2149.89 253.27 2152.74 250.665 2156 247.898L2173.09 236.668C2174.71 235.203 2176.18 234.145 2177.48 233.494C2178.95 232.68 2180.41 232.029 2181.88 231.541C2183.34 231.053 2184.8 230.646 2186.27 230.32C2187.9 229.995 2189.77 229.425 2191.88 228.611C2192.05 228.611 2192.45 228.449 2193.11 228.123C2193.92 227.798 2194.73 227.472 2195.55 227.146C2196.36 226.658 2197.17 226.251 2197.99 225.926C2198.8 225.6 2199.37 225.356 2199.7 225.193C2200.51 225.031 2202.06 224.705 2204.34 224.217C2206.78 223.729 2209.3 223.24 2211.9 222.752C2214.67 222.264 2217.28 221.857 2219.72 221.531C2222.16 221.206 2223.87 221.043 2224.84 221.043C2225.66 221.043 2226.39 221.368 2227.04 222.02C2227.85 222.508 2228.42 222.752 2228.75 222.752C2229.24 222.752 2229.97 222.833 2230.95 222.996C2231.92 222.996 2232.9 223.077 2233.88 223.24C2235.02 223.403 2235.99 223.566 2236.81 223.729C2237.78 223.729 2238.43 223.81 2238.76 223.973C2239.74 224.298 2241.04 224.786 2242.67 225.438C2244.29 225.926 2245.92 226.495 2247.55 227.146C2249.18 227.798 2250.64 228.367 2251.94 228.855C2253.25 229.344 2254.06 229.669 2254.38 229.832C2254.55 229.995 2254.95 230.402 2255.61 231.053C2256.26 231.704 2256.99 232.518 2257.8 233.494C2258.78 234.308 2259.67 235.122 2260.49 235.936C2261.3 236.749 2261.87 237.4 2262.2 237.889C2263.99 240.493 2265.78 242.853 2267.57 244.969C2269.52 247.085 2270.9 249.526 2271.72 252.293C2272.53 253.921 2273.1 255.711 2273.43 257.664C2273.92 259.454 2274.32 261.245 2274.65 263.035C2275.14 264.826 2275.71 266.535 2276.36 268.162C2277.01 269.79 2278.07 271.255 2279.53 272.557V287.693C2279.53 298.436 2279.12 309.015 2278.31 319.432C2277.66 329.686 2277.17 340.265 2276.85 351.17C2276.19 352.798 2275.62 354.425 2275.14 356.053C2274.65 357.518 2274.4 359.227 2274.4 361.18C2274.4 362.645 2274.57 364.272 2274.89 366.062C2275.38 367.853 2275.62 369.155 2275.62 369.969L2273.43 374.607C2273.26 375.258 2273.18 375.91 2273.18 376.561V379.246C2273.18 381.688 2273.26 384.292 2273.43 387.059C2273.59 389.826 2274 392.592 2274.65 395.359C2275.3 398.126 2276.19 400.73 2277.33 403.172C2278.64 405.613 2280.43 407.648 2282.71 409.275C2283.52 409.926 2284.58 410.903 2285.88 412.205C2287.34 413.344 2288.4 413.914 2289.05 413.914H2290.03C2291.66 413.914 2293.53 413.67 2295.64 413.182C2297.76 412.531 2299.96 411.88 2302.24 411.229C2304.51 410.415 2306.79 409.682 2309.07 409.031C2311.51 408.38 2313.87 408.055 2316.15 408.055C2319.24 408.055 2320.79 409.031 2320.79 410.984C2320.79 416.193 2319.73 421.238 2317.62 426.121C2315.66 431.004 2312.9 435.398 2309.32 439.305C2305.74 443.048 2301.59 446.141 2296.87 448.582C2292.15 450.861 2287.02 452 2281.48 452C2275.95 452 2270.58 451.756 2265.37 451.268C2260.16 450.617 2254.47 449.152 2248.28 446.873L2246.57 445.652C2246.25 445.327 2245.43 444.35 2244.13 442.723C2242.99 440.932 2241.69 439.061 2240.22 437.107C2238.92 435.154 2237.7 433.364 2236.56 431.736C2235.42 429.946 2234.77 428.807 2234.61 428.318L2228.75 423.191H2227.04H2224.84ZM2169.67 386.57C2169.67 389.174 2170.07 392.186 2170.89 395.604C2171.87 399.021 2173.25 402.277 2175.04 405.369C2176.83 408.299 2179.03 410.822 2181.63 412.938C2184.24 415.053 2187.16 416.111 2190.42 416.111C2191.07 416.111 2191.64 416.03 2192.13 415.867C2192.62 415.704 2194 415.053 2196.28 413.914L2218.5 411.961C2218.98 411.635 2219.72 410.984 2220.69 410.008C2221.83 408.868 2222.89 407.729 2223.87 406.59C2225.01 405.451 2225.98 404.393 2226.8 403.416C2227.77 402.439 2228.42 401.707 2228.75 401.219C2228.91 401.219 2229.16 400.73 2229.48 399.754C2229.97 398.777 2230.54 397.557 2231.19 396.092C2231.84 394.627 2232.41 393.081 2232.9 391.453C2233.55 389.826 2234.12 388.361 2234.61 387.059C2234.93 386.245 2235.18 385.024 2235.34 383.396C2235.67 381.769 2235.83 380.874 2235.83 380.711C2235.67 378.921 2235.5 377.13 2235.34 375.34C2235.18 373.549 2235.1 371.759 2235.1 369.969C2235.1 368.341 2235.18 366.876 2235.34 365.574C2235.5 364.109 2235.67 362.645 2235.83 361.18L2237.54 355.809V351.414C2237.54 348.647 2236.64 346.124 2234.85 343.846C2233.06 341.567 2230.46 340.428 2227.04 340.428C2224.27 340.428 2221.91 341.079 2219.96 342.381C2218.17 343.52 2216.05 344.985 2213.61 346.775C2212.8 347.264 2211.17 348.159 2208.73 349.461C2206.29 350.6 2203.68 351.821 2200.92 353.123C2198.31 354.262 2195.79 355.402 2193.35 356.541C2191.07 357.68 2189.52 358.413 2188.71 358.738L2184.07 361.18C2183.75 361.18 2183.1 361.342 2182.12 361.668C2181.14 361.993 2180.65 362.238 2180.65 362.4L2177.24 368.748L2171.38 374.607C2170.56 376.398 2170.07 378.514 2169.91 380.955C2169.75 383.234 2169.67 385.105 2169.67 386.57ZM2352.04 417.332C2352.04 407.566 2354.16 400.161 2358.39 395.115C2362.62 389.907 2369.86 387.303 2380.12 387.303C2383.54 387.303 2386.55 387.872 2389.15 389.012C2391.75 390.151 2394.44 391.29 2397.21 392.43C2400.79 394.22 2403.47 395.929 2405.26 397.557C2407.22 399.184 2408.6 401.056 2409.41 403.172C2410.39 405.125 2410.96 407.404 2411.12 410.008C2411.29 412.612 2411.37 415.786 2411.37 419.529V433.934C2411.04 435.236 2410.07 436.945 2408.44 439.061C2406.97 441.014 2405.18 442.967 2403.07 444.92C2401.11 446.873 2399.08 448.582 2396.96 450.047C2394.85 451.349 2393.06 452 2391.59 452C2385.9 450.861 2380.61 449.559 2375.72 448.094C2371 446.629 2366.85 444.676 2363.27 442.234C2359.85 439.793 2357.09 436.619 2354.97 432.713C2353.02 428.644 2352.04 423.517 2352.04 417.332ZM2462.64 452C2460.68 452 2459.14 452.326 2458 452.977C2457.02 453.79 2455.96 454.197 2454.82 454.197C2454.17 454.197 2453.36 453.872 2452.38 453.221C2451.57 452.57 2450.27 451.756 2448.48 450.779C2448.15 450.617 2447.91 450.21 2447.74 449.559C2447.74 448.745 2447.58 447.85 2447.26 446.873C2446.93 445.896 2446.69 444.676 2446.52 443.211C2446.52 443.048 2446.69 442.641 2447.01 441.99C2447.5 441.176 2447.99 440.363 2448.48 439.549C2448.96 438.572 2449.45 437.677 2449.94 436.863C2450.43 436.049 2450.84 435.48 2451.16 435.154L2455.8 432.469H2461.17C2464.92 432.469 2468.25 432.225 2471.18 431.736C2474.27 431.085 2476.72 429.214 2478.51 426.121C2479.16 420.587 2479.65 415.298 2479.97 410.252C2480.3 405.206 2481.11 400.242 2482.41 395.359L2485.34 383.885V361.18L2486.56 339.207V324.803C2486.56 324.477 2486.4 323.663 2486.07 322.361C2485.75 320.896 2485.42 319.35 2485.1 317.723C2484.77 315.932 2484.45 314.305 2484.12 312.84C2483.8 311.212 2483.63 309.992 2483.63 309.178V285.984C2482.98 284.194 2481.92 281.997 2480.46 279.393C2478.99 276.788 2477.53 274.917 2476.06 273.777L2468.5 271.336C2465.73 269.383 2463.21 267.267 2460.93 264.988C2458.81 262.71 2457.1 259.861 2455.8 256.443C2455.8 254.653 2456.21 253.27 2457.02 252.293C2457.84 251.316 2458.89 250.584 2460.2 250.096C2461.5 249.607 2462.88 249.201 2464.35 248.875C2465.81 248.549 2467.19 248.224 2468.5 247.898L2486.56 238.621C2488.03 237.97 2489.25 237.482 2490.22 237.156C2491.36 236.668 2492.42 236.18 2493.4 235.691C2494.38 235.203 2495.27 234.633 2496.08 233.982C2497.06 233.331 2498.12 232.355 2499.26 231.053L2506.34 230.564C2507.15 230.564 2508.37 230.646 2510 230.809C2511.79 230.971 2512.85 231.053 2513.17 231.053C2513.66 231.053 2514.48 231.134 2515.62 231.297C2516.75 231.46 2517.98 231.704 2519.28 232.029C2520.58 232.355 2521.8 232.68 2522.94 233.006C2524.08 233.331 2524.89 233.576 2525.38 233.738C2526.85 234.389 2527.74 235.773 2528.07 237.889C2528.55 239.842 2528.8 241.632 2528.8 243.26V251.072L2527.09 256.932C2526.28 267.511 2525.87 277.928 2525.87 288.182C2525.87 298.436 2525.71 309.015 2525.38 319.92L2524.16 328.709C2524 328.872 2523.83 329.441 2523.67 330.418C2523.67 331.395 2523.67 332.534 2523.67 333.836C2523.67 335.138 2523.67 336.44 2523.67 337.742C2523.67 338.882 2523.67 339.777 2523.67 340.428C2523.67 341.567 2523.67 342.869 2523.67 344.334C2523.67 345.799 2523.67 347.182 2523.67 348.484C2523.67 349.786 2523.67 350.926 2523.67 351.902C2523.83 352.716 2524 353.123 2524.16 353.123C2524.16 353.611 2524.32 354.751 2524.65 356.541C2524.97 358.169 2525.22 359.145 2525.38 359.471V364.598C2525.38 365.086 2525.3 366.388 2525.14 368.504C2524.97 370.62 2524.81 373.061 2524.65 375.828C2524.49 378.432 2524.32 381.036 2524.16 383.641C2524.16 386.082 2524.16 387.872 2524.16 389.012C2524.16 390.477 2524.24 392.837 2524.4 396.092C2524.73 399.184 2525.06 402.521 2525.38 406.102C2525.87 409.682 2526.28 413.1 2526.6 416.355C2526.93 419.448 2527.09 421.645 2527.09 422.947C2527.09 424.738 2527.99 426.202 2529.78 427.342C2531.73 428.318 2533.27 428.969 2534.41 429.295C2534.9 429.295 2535.88 429.376 2537.34 429.539C2538.97 429.702 2540.68 429.865 2542.47 430.027C2544.26 430.19 2545.89 430.353 2547.35 430.516C2548.98 430.516 2550.12 430.516 2550.77 430.516C2551.91 431.818 2552.81 433.201 2553.46 434.666C2554.27 436.131 2554.68 438.003 2554.68 440.281C2554.68 442.56 2554.43 444.757 2553.95 446.873C2553.62 448.989 2552.72 450.454 2551.26 451.268C2549.31 452.895 2547.11 453.79 2544.67 453.953C2542.39 454.279 2539.95 454.441 2537.34 454.441H2532.95L2527.09 452H2497.06C2496.9 452 2495.84 451.837 2493.89 451.512C2491.93 451.023 2490.63 450.779 2489.98 450.779H2483.14L2462.64 452ZM2469.72 128.514L2477.29 120.945L2485.34 114.598L2487.78 109.471C2489.74 108.006 2491.93 107.192 2494.38 107.029C2496.82 106.704 2499.01 106.541 2500.97 106.541H2503.41C2503.57 106.704 2504.06 106.948 2504.87 107.273C2505.69 107.599 2506.5 107.924 2507.31 108.25C2508.13 108.576 2508.86 108.901 2509.51 109.227C2510.33 109.389 2510.9 109.471 2511.22 109.471C2511.87 109.796 2512.85 110.122 2514.15 110.447C2515.62 110.61 2517.08 110.854 2518.54 111.18C2520.01 111.342 2521.39 111.505 2522.7 111.668C2524 111.668 2524.89 111.668 2525.38 111.668C2526.03 111.831 2526.76 112.807 2527.58 114.598C2528.39 116.388 2529.04 118.423 2529.53 120.701C2530.18 122.817 2530.67 124.933 2531 127.049C2531.48 129.002 2531.73 130.304 2531.73 130.955C2531.73 135.024 2531.24 138.849 2530.26 142.43C2529.45 145.848 2527.42 148.94 2524.16 151.707C2524 151.87 2523.51 152.114 2522.7 152.439C2522.04 152.602 2521.31 152.846 2520.5 153.172C2519.68 153.335 2518.87 153.579 2518.06 153.904C2517.41 154.067 2517.08 154.148 2517.08 154.148C2516.92 154.474 2516.51 155.044 2515.86 155.857C2515.21 156.508 2514.48 157.241 2513.66 158.055C2512.85 158.706 2512.03 159.357 2511.22 160.008C2510.41 160.496 2509.92 160.822 2509.76 160.984C2508.78 162.124 2507.31 162.775 2505.36 162.938C2503.57 163.1 2501.86 163.182 2500.23 163.182H2490.71C2488.92 163.182 2487.38 163.1 2486.07 162.938C2484.77 162.612 2482.98 161.554 2480.7 159.764C2477.94 155.695 2475.33 151.951 2472.89 148.533C2470.45 145.115 2469.23 140.802 2469.23 135.594L2469.72 128.514ZM2608.39 358.25L2606.92 333.836L2608.39 308.445V301.121C2608.55 300.307 2608.8 299.331 2609.12 298.191C2609.45 297.052 2609.61 296.076 2609.61 295.262C2609.61 290.542 2608.88 285.74 2607.41 280.857C2605.95 275.812 2604.81 270.929 2603.99 266.209C2602.37 265.07 2600.01 264.256 2596.91 263.768C2593.98 263.279 2591.05 262.71 2588.12 262.059C2585.2 261.245 2582.59 260.105 2580.31 258.641C2578.2 257.176 2577.14 254.897 2577.14 251.805C2577.14 248.387 2578.28 245.864 2580.56 244.236C2582.84 242.446 2585.52 240.981 2588.61 239.842C2591.87 238.54 2595.12 237.4 2598.38 236.424C2601.8 235.447 2604.56 233.982 2606.68 232.029C2608.8 230.239 2611.16 228.042 2613.76 225.438C2616.36 222.833 2618.24 220.799 2619.38 219.334C2620.68 216.73 2622.39 213.475 2624.5 209.568C2626.78 205.662 2629.22 201.919 2631.83 198.338C2634.43 194.594 2637.2 191.421 2640.13 188.816C2643.06 186.049 2645.99 184.666 2648.92 184.666C2650.87 184.666 2652.42 185.236 2653.55 186.375C2654.86 187.352 2655.83 188.654 2656.48 190.281C2657.3 191.746 2657.87 193.374 2658.19 195.164C2658.52 196.954 2658.76 198.663 2658.93 200.291V228.611L2660.15 230.32H2671.62C2675.69 230.32 2679.43 230.076 2682.85 229.588C2686.27 228.937 2689.44 228.286 2692.37 227.635C2695.47 226.821 2698.4 226.17 2701.16 225.682C2704.09 225.031 2707.18 224.705 2710.44 224.705C2715 224.705 2718.82 226.414 2721.91 229.832C2725.01 233.25 2726.55 237.319 2726.55 242.039C2726.55 245.783 2725.9 248.875 2724.6 251.316C2723.46 253.758 2721.75 255.711 2719.47 257.176C2717.19 258.641 2714.51 259.699 2711.42 260.35C2708.32 260.838 2704.91 261.082 2701.16 261.082L2685.05 259.861L2672.84 261.082L2661.12 259.861C2658.84 259.861 2656.73 260.919 2654.78 263.035C2652.99 264.988 2652.09 266.86 2652.09 268.65L2654.29 286.961C2654.29 289.24 2653.96 291.437 2653.31 293.553C2652.66 295.669 2651.93 297.866 2651.11 300.145C2650.3 302.26 2649.57 304.458 2648.92 306.736C2648.26 309.015 2647.94 311.375 2647.94 313.816V318.211L2650.14 346.531C2649.65 347.508 2649.32 348.484 2649.16 349.461C2649.16 350.438 2649.16 351.658 2649.16 353.123C2649.16 354.262 2649.32 355.32 2649.65 356.297C2649.97 357.273 2650.14 358.169 2650.14 358.982C2650.62 363.702 2650.87 368.341 2650.87 372.898C2650.87 376.967 2650.71 380.874 2650.38 384.617C2650.06 388.361 2649.57 392.104 2648.92 395.848C2649.08 396.01 2649.4 396.499 2649.89 397.312C2650.38 397.964 2650.87 398.777 2651.36 399.754C2652.01 400.568 2652.58 401.463 2653.07 402.439C2653.55 403.253 2653.96 403.742 2654.29 403.904C2655.59 405.857 2657.05 407.322 2658.68 408.299C2660.31 409.275 2661.94 410.171 2663.56 410.984C2665.35 411.635 2667.15 412.368 2668.94 413.182C2670.89 413.995 2672.76 415.216 2674.55 416.844H2683.83C2687.57 416.844 2691.15 416.437 2694.57 415.623C2697.99 414.809 2701.24 413.995 2704.34 413.182C2707.59 412.205 2710.68 411.31 2713.61 410.496C2716.71 409.682 2719.88 409.275 2723.13 409.275C2725.09 409.275 2726.55 410.252 2727.53 412.205C2728.51 414.158 2728.99 416.03 2728.99 417.82C2728.99 418.797 2728.91 419.611 2728.75 420.262C2728.75 420.75 2728.59 421.238 2728.26 421.727C2727.94 422.215 2727.45 422.785 2726.8 423.436C2726.31 424.087 2725.66 424.982 2724.84 426.121L2721.43 431.004C2720.94 431.329 2720.12 432.143 2718.98 433.445C2718.01 434.747 2716.87 436.212 2715.57 437.84C2714.26 439.305 2712.96 440.77 2711.66 442.234C2710.36 443.536 2709.38 444.513 2708.73 445.164C2707.1 446.954 2704.66 448.663 2701.41 450.291C2698.15 451.919 2694.73 453.302 2691.15 454.441C2687.57 455.743 2684.07 456.72 2680.65 457.371C2677.4 458.022 2674.79 458.348 2672.84 458.348L2641.59 452C2638.82 451.186 2635.73 449.965 2632.31 448.338C2628.9 446.71 2625.56 444.839 2622.3 442.723C2619.21 440.444 2616.45 437.921 2614 435.154C2611.73 432.387 2610.26 429.376 2609.61 426.121V409.275C2608.8 403.742 2607.82 398.533 2606.68 393.65C2605.7 388.605 2605.21 383.396 2605.21 378.025L2608.39 358.25Z" fill="black"/>
<path d="M24.2222 389.261C24.2222 389.261 14.7222 209.262 24.2222 190.261C33.7222 171.261 282.722 148.167 288.222 179.167C293.722 210.167 299.222 408.166 288.222 427.167C277.222 446.167 24.2222 449.761 24.2222 449.761" stroke="black" stroke-width="40" stroke-linecap="round" stroke-linejoin="round"/>
<path d="M125.338 246.792C111.951 237.833 83.1267 236.143 82.0265 247.376C80.9263 258.608 114.355 361.485 133.016 356.848C151.676 352.211 391.266 143.543 384.874 128.757C378.482 113.971 344.093 107.21 333.723 113.144C323.354 119.077 148.343 284.897 143.739 285.147C139.136 285.397 133.168 252.033 125.338 246.792Z" fill="#E64545"/>
</svg>
